%TF.GenerationSoftware,KiCad,Pcbnew,(5.1.6)-1*%
%TF.CreationDate,2021-02-25T22:42:19-08:00*%
%TF.ProjectId,KiCAD Schematic and PCB - Quick Design Example and Build,4b694341-4420-4536-9368-656d61746963,rev?*%
%TF.SameCoordinates,Original*%
%TF.FileFunction,Soldermask,Bot*%
%TF.FilePolarity,Negative*%
%FSLAX46Y46*%
G04 Gerber Fmt 4.6, Leading zero omitted, Abs format (unit mm)*
G04 Created by KiCad (PCBNEW (5.1.6)-1) date 2021-02-25 22:42:19*
%MOMM*%
%LPD*%
G01*
G04 APERTURE LIST*
%ADD10R,2.400000X1.600000*%
%ADD11O,2.400000X1.600000*%
%ADD12R,1.700000X1.700000*%
%ADD13O,1.700000X1.700000*%
%ADD14C,1.600000*%
%ADD15O,1.600000X1.600000*%
%ADD16C,1.400000*%
%ADD17O,1.400000X1.400000*%
%ADD18C,1.440000*%
%ADD19C,7.000000*%
%ADD20C,0.800000*%
G04 APERTURE END LIST*
D10*
%TO.C,U5*%
X149860000Y-80010000D03*
D11*
X157480000Y-87630000D03*
X149860000Y-82550000D03*
X157480000Y-85090000D03*
X149860000Y-85090000D03*
X157480000Y-82550000D03*
X149860000Y-87630000D03*
X157480000Y-80010000D03*
%TD*%
D12*
%TO.C,J13*%
X233680000Y-55880000D03*
D13*
X233680000Y-58420000D03*
X233680000Y-60960000D03*
%TD*%
D14*
%TO.C,R1*%
X151130000Y-66040000D03*
D15*
X161290000Y-66040000D03*
%TD*%
D16*
%TO.C,C1*%
X142240000Y-72390000D03*
D17*
X142240000Y-67310000D03*
%TD*%
D13*
%TO.C,J1*%
X233680000Y-81280000D03*
X233680000Y-78740000D03*
D12*
X233680000Y-76200000D03*
%TD*%
%TO.C,J2*%
X135890000Y-87630000D03*
%TD*%
%TO.C,J3*%
X146812000Y-75692000D03*
%TD*%
%TO.C,J4*%
X147320000Y-46990000D03*
%TD*%
%TO.C,J5*%
X184150000Y-87630000D03*
%TD*%
%TO.C,J6*%
X174752000Y-66548000D03*
%TD*%
%TO.C,J7*%
X177292000Y-82550000D03*
%TD*%
%TO.C,J8*%
X184150000Y-67310000D03*
%TD*%
%TO.C,J9*%
X175260000Y-74930000D03*
%TD*%
%TO.C,J10*%
X185420000Y-44450000D03*
%TD*%
%TO.C,J11*%
X154940000Y-46990000D03*
D13*
X154940000Y-49530000D03*
%TD*%
%TO.C,J12*%
X157480000Y-100330000D03*
D12*
X157480000Y-97790000D03*
%TD*%
D14*
%TO.C,R2*%
X166370000Y-68580000D03*
D15*
X166370000Y-78740000D03*
%TD*%
%TO.C,R3*%
X166370000Y-92710000D03*
D14*
X166370000Y-82550000D03*
%TD*%
%TO.C,R4*%
X199644000Y-101600000D03*
D15*
X209804000Y-101600000D03*
%TD*%
%TO.C,R5*%
X170180000Y-46990000D03*
D14*
X180340000Y-46990000D03*
%TD*%
D15*
%TO.C,R6*%
X173990000Y-54610000D03*
D14*
X184150000Y-54610000D03*
%TD*%
D15*
%TO.C,R7*%
X162560000Y-46990000D03*
D14*
X162560000Y-57150000D03*
%TD*%
%TO.C,R8*%
X191770000Y-59690000D03*
D15*
X191770000Y-49530000D03*
%TD*%
D14*
%TO.C,R9*%
X210820000Y-62230000D03*
D15*
X200660000Y-62230000D03*
%TD*%
%TO.C,R10*%
X198120000Y-91440000D03*
D14*
X208280000Y-91440000D03*
%TD*%
%TO.C,R11*%
X227330000Y-62230000D03*
D15*
X217170000Y-62230000D03*
%TD*%
%TO.C,R12*%
X219710000Y-54610000D03*
D14*
X229870000Y-54610000D03*
%TD*%
%TO.C,R13*%
X210820000Y-67564000D03*
D15*
X220980000Y-67564000D03*
%TD*%
%TO.C,R14*%
X233680000Y-96520000D03*
D14*
X223520000Y-96520000D03*
%TD*%
%TO.C,R15*%
X210820000Y-82550000D03*
D15*
X210820000Y-72390000D03*
%TD*%
%TO.C,R16*%
X233680000Y-89408000D03*
D14*
X223520000Y-89408000D03*
%TD*%
D15*
%TO.C,R17*%
X152400000Y-110490000D03*
D14*
X152400000Y-100330000D03*
%TD*%
%TO.C,R18*%
X151130000Y-72390000D03*
D15*
X161290000Y-72390000D03*
%TD*%
D14*
%TO.C,R20*%
X140970000Y-78740000D03*
D15*
X130810000Y-78740000D03*
%TD*%
%TO.C,R21*%
X147320000Y-63500000D03*
D14*
X147320000Y-53340000D03*
%TD*%
D18*
%TO.C,RV1*%
X140970000Y-96520000D03*
X143510000Y-93980000D03*
X146050000Y-96520000D03*
%TD*%
D10*
%TO.C,U1*%
X191770000Y-69850000D03*
D11*
X199390000Y-85090000D03*
X191770000Y-72390000D03*
X199390000Y-82550000D03*
X191770000Y-74930000D03*
X199390000Y-80010000D03*
X191770000Y-77470000D03*
X199390000Y-77470000D03*
X191770000Y-80010000D03*
X199390000Y-74930000D03*
X191770000Y-82550000D03*
X199390000Y-72390000D03*
X191770000Y-85090000D03*
X199390000Y-69850000D03*
%TD*%
D16*
%TO.C,C2*%
X130810000Y-92710000D03*
D17*
X135890000Y-92710000D03*
%TD*%
D19*
%TO.C,H1*%
X133350000Y-106680000D03*
D20*
X135975000Y-106680000D03*
X135206155Y-108536155D03*
X133350000Y-109305000D03*
X131493845Y-108536155D03*
X130725000Y-106680000D03*
X131493845Y-104823845D03*
X133350000Y-104055000D03*
X135206155Y-104823845D03*
%TD*%
%TO.C,H2*%
X232996155Y-103553845D03*
X231140000Y-102785000D03*
X229283845Y-103553845D03*
X228515000Y-105410000D03*
X229283845Y-107266155D03*
X231140000Y-108035000D03*
X232996155Y-107266155D03*
X233765000Y-105410000D03*
D19*
X231140000Y-105410000D03*
%TD*%
%TO.C,H3*%
X229870000Y-46990000D03*
D20*
X232495000Y-46990000D03*
X231726155Y-48846155D03*
X229870000Y-49615000D03*
X228013845Y-48846155D03*
X227245000Y-46990000D03*
X228013845Y-45133845D03*
X229870000Y-44365000D03*
X231726155Y-45133845D03*
%TD*%
%TO.C,H4*%
X135206155Y-45133845D03*
X133350000Y-44365000D03*
X131493845Y-45133845D03*
X130725000Y-46990000D03*
X131493845Y-48846155D03*
X133350000Y-49615000D03*
X135206155Y-48846155D03*
X135975000Y-46990000D03*
D19*
X133350000Y-46990000D03*
%TD*%
M02*
