M48
; DRILL file {KiCad (5.1.6)-1} date 02/25/21 22:45:28
; FORMAT={-:-/ absolute / inch / decimal}
; #@! TF.CreationDate,2021-02-25T22:45:28-08:00
; #@! TF.GenerationSoftware,Kicad,Pcbnew,(5.1.6)-1
FMAT,2
INCH
T1C0.0157
T2C0.0197
T3C0.0276
T4C0.0315
T5C0.0394
T6C0.1378
%
G90
G05
T1
X6.403Y-2.0825
T2
X8.9967Y-4.15
X9.0269Y-4.0769
X9.0269Y-4.2231
X9.1Y-4.0467
X9.1Y-4.2533
X9.1731Y-4.0769
X9.1731Y-4.2231
X9.2033Y-4.15
X8.9467Y-1.85
X8.9769Y-1.7769
X8.9769Y-1.9231
X9.05Y-1.7467
X9.05Y-1.9533
X9.1231Y-1.7769
X9.1231Y-1.9231
X9.1533Y-1.85
X5.1467Y-4.2
X5.1769Y-4.1269
X5.1769Y-4.2731
X5.25Y-4.0967
X5.25Y-4.3033
X5.3231Y-4.1269
X5.3231Y-4.2731
X5.3533Y-4.2
X5.1467Y-1.85
X5.1769Y-1.7769
X5.1769Y-1.9231
X5.25Y-1.7467
X5.25Y-1.9533
X5.3231Y-1.7769
X5.3231Y-1.9231
X5.3533Y-1.85
T3
X5.15Y-3.65
X5.35Y-3.65
X5.6Y-2.65
X5.6Y-2.85
T4
X5.55Y-3.8
X5.65Y-3.7
X5.75Y-3.8
X6.0Y-3.95
X6.0Y-4.35
X5.95Y-2.6
X6.35Y-2.6
X8.3Y-2.66
X8.7Y-2.66
X6.4Y-1.85
X6.4Y-2.25
X5.8Y-2.1
X5.8Y-2.5
X8.8Y-3.52
X9.2Y-3.52
X7.9Y-2.45
X8.3Y-2.45
X5.15Y-3.1
X5.55Y-3.1
X8.8Y-3.8
X9.2Y-3.8
X7.86Y-4.0
X8.26Y-4.0
X6.55Y-3.25
X6.55Y-3.65
X5.9Y-3.15
X5.9Y-3.25
X5.9Y-3.35
X5.9Y-3.45
X6.2Y-3.15
X6.2Y-3.25
X6.2Y-3.35
X6.2Y-3.45
X7.8Y-3.6
X8.2Y-3.6
X6.85Y-2.15
X7.25Y-2.15
X8.65Y-2.15
X9.05Y-2.15
X6.7Y-1.85
X7.1Y-1.85
X6.55Y-2.7
X6.55Y-3.1
X7.55Y-2.75
X7.55Y-2.85
X7.55Y-2.95
X7.55Y-3.05
X7.55Y-3.15
X7.55Y-3.25
X7.55Y-3.35
X7.85Y-2.75
X7.85Y-2.85
X7.85Y-2.95
X7.85Y-3.05
X7.85Y-3.15
X7.85Y-3.25
X7.85Y-3.35
X8.3Y-2.85
X8.3Y-3.25
X5.95Y-2.85
X6.35Y-2.85
X7.55Y-1.95
X7.55Y-2.35
X8.55Y-2.45
X8.95Y-2.45
T5
X7.25Y-2.65
X6.1Y-1.85
X6.1Y-1.95
X6.9Y-2.95
X6.98Y-3.25
X9.2Y-2.2
X9.2Y-2.3
X9.2Y-2.4
X7.25Y-3.45
X6.88Y-2.62
X5.8Y-1.85
X9.2Y-3.0
X9.2Y-3.1
X9.2Y-3.2
X6.2Y-3.85
X6.2Y-3.95
X5.35Y-3.45
X7.3Y-1.75
X5.78Y-2.98
T6
X9.1Y-4.15
X9.05Y-1.85
X5.25Y-4.2
X5.25Y-1.85
T0
M30
