%TF.GenerationSoftware,KiCad,Pcbnew,(5.1.6)-1*%
%TF.CreationDate,2021-02-25T22:42:19-08:00*%
%TF.ProjectId,KiCAD Schematic and PCB - Quick Design Example and Build,4b694341-4420-4536-9368-656d61746963,rev?*%
%TF.SameCoordinates,Original*%
%TF.FileFunction,Copper,L2,Bot*%
%TF.FilePolarity,Positive*%
%FSLAX46Y46*%
G04 Gerber Fmt 4.6, Leading zero omitted, Abs format (unit mm)*
G04 Created by KiCad (PCBNEW (5.1.6)-1) date 2021-02-25 22:42:19*
%MOMM*%
%LPD*%
G01*
G04 APERTURE LIST*
%TA.AperFunction,ComponentPad*%
%ADD10R,2.400000X1.600000*%
%TD*%
%TA.AperFunction,ComponentPad*%
%ADD11O,2.400000X1.600000*%
%TD*%
%TA.AperFunction,ComponentPad*%
%ADD12R,1.700000X1.700000*%
%TD*%
%TA.AperFunction,ComponentPad*%
%ADD13O,1.700000X1.700000*%
%TD*%
%TA.AperFunction,ComponentPad*%
%ADD14C,1.600000*%
%TD*%
%TA.AperFunction,ComponentPad*%
%ADD15O,1.600000X1.600000*%
%TD*%
%TA.AperFunction,ComponentPad*%
%ADD16C,1.400000*%
%TD*%
%TA.AperFunction,ComponentPad*%
%ADD17O,1.400000X1.400000*%
%TD*%
%TA.AperFunction,ComponentPad*%
%ADD18C,1.440000*%
%TD*%
%TA.AperFunction,ComponentPad*%
%ADD19C,7.000000*%
%TD*%
%TA.AperFunction,ComponentPad*%
%ADD20C,0.800000*%
%TD*%
%TA.AperFunction,ViaPad*%
%ADD21C,0.800000*%
%TD*%
%TA.AperFunction,Conductor*%
%ADD22C,0.304800*%
%TD*%
%TA.AperFunction,Conductor*%
%ADD23C,0.254000*%
%TD*%
G04 APERTURE END LIST*
D10*
%TO.P,U5,1*%
%TO.N,GND*%
X149860000Y-80010000D03*
D11*
%TO.P,U5,5*%
%TO.N,Net-(U5-Pad5)*%
X157480000Y-87630000D03*
%TO.P,U5,2*%
%TO.N,Net-(C1-Pad1)*%
X149860000Y-82550000D03*
%TO.P,U5,6*%
X157480000Y-85090000D03*
%TO.P,U5,3*%
%TO.N,Net-(R20-Pad1)*%
X149860000Y-85090000D03*
%TO.P,U5,7*%
%TO.N,Net-(J12-Pad1)*%
X157480000Y-82550000D03*
%TO.P,U5,4*%
%TO.N,+9V*%
X149860000Y-87630000D03*
%TO.P,U5,8*%
X157480000Y-80010000D03*
%TD*%
D12*
%TO.P,J13,1*%
%TO.N,GND*%
X233680000Y-55880000D03*
D13*
%TO.P,J13,2*%
X233680000Y-58420000D03*
%TO.P,J13,3*%
X233680000Y-60960000D03*
%TD*%
D14*
%TO.P,R1,1*%
%TO.N,+9V*%
X151130000Y-66040000D03*
D15*
%TO.P,R1,2*%
%TO.N,Net-(J9-Pad1)*%
X161290000Y-66040000D03*
%TD*%
D16*
%TO.P,C1,1*%
%TO.N,Net-(C1-Pad1)*%
X142240000Y-72390000D03*
D17*
%TO.P,C1,2*%
%TO.N,GND*%
X142240000Y-67310000D03*
%TD*%
D13*
%TO.P,J1,3*%
%TO.N,1out*%
X233680000Y-81280000D03*
%TO.P,J1,2*%
%TO.N,3out*%
X233680000Y-78740000D03*
D12*
%TO.P,J1,1*%
%TO.N,5out*%
X233680000Y-76200000D03*
%TD*%
%TO.P,J2,1*%
%TO.N,+9V*%
X135890000Y-87630000D03*
%TD*%
%TO.P,J3,1*%
%TO.N,GND*%
X146812000Y-75692000D03*
%TD*%
%TO.P,J4,1*%
%TO.N,Tsig*%
X147320000Y-46990000D03*
%TD*%
%TO.P,J5,1*%
%TO.N,Net-(J5-Pad1)*%
X184150000Y-87630000D03*
%TD*%
%TO.P,J6,1*%
%TO.N,Net-(J6-Pad1)*%
X174752000Y-66548000D03*
%TD*%
%TO.P,J7,1*%
%TO.N,Net-(J7-Pad1)*%
X177292000Y-82550000D03*
%TD*%
%TO.P,J8,1*%
%TO.N,Net-(J8-Pad1)*%
X184150000Y-67310000D03*
%TD*%
%TO.P,J9,1*%
%TO.N,Net-(J9-Pad1)*%
X175260000Y-74930000D03*
%TD*%
%TO.P,J10,1*%
%TO.N,Net-(J10-Pad1)*%
X185420000Y-44450000D03*
%TD*%
%TO.P,J11,1*%
%TO.N,Tsig*%
X154940000Y-46990000D03*
D13*
%TO.P,J11,2*%
%TO.N,Net-(J11-Pad2)*%
X154940000Y-49530000D03*
%TD*%
%TO.P,J12,2*%
%TO.N,Net-(J12-Pad2)*%
X157480000Y-100330000D03*
D12*
%TO.P,J12,1*%
%TO.N,Net-(J12-Pad1)*%
X157480000Y-97790000D03*
%TD*%
D14*
%TO.P,R2,1*%
%TO.N,Net-(J9-Pad1)*%
X166370000Y-68580000D03*
D15*
%TO.P,R2,2*%
%TO.N,Net-(J7-Pad1)*%
X166370000Y-78740000D03*
%TD*%
%TO.P,R3,2*%
%TO.N,Net-(J5-Pad1)*%
X166370000Y-92710000D03*
D14*
%TO.P,R3,1*%
%TO.N,Net-(J7-Pad1)*%
X166370000Y-82550000D03*
%TD*%
%TO.P,R4,1*%
%TO.N,Net-(J5-Pad1)*%
X199644000Y-101600000D03*
D15*
%TO.P,R4,2*%
%TO.N,GND*%
X209804000Y-101600000D03*
%TD*%
%TO.P,R5,2*%
%TO.N,Tsig*%
X170180000Y-46990000D03*
D14*
%TO.P,R5,1*%
%TO.N,Net-(J10-Pad1)*%
X180340000Y-46990000D03*
%TD*%
D15*
%TO.P,R6,2*%
%TO.N,Tsig*%
X173990000Y-54610000D03*
D14*
%TO.P,R6,1*%
%TO.N,Net-(J8-Pad1)*%
X184150000Y-54610000D03*
%TD*%
D15*
%TO.P,R7,2*%
%TO.N,Tsig*%
X162560000Y-46990000D03*
D14*
%TO.P,R7,1*%
%TO.N,Net-(J6-Pad1)*%
X162560000Y-57150000D03*
%TD*%
%TO.P,R8,1*%
%TO.N,5out*%
X191770000Y-59690000D03*
D15*
%TO.P,R8,2*%
%TO.N,Net-(J10-Pad1)*%
X191770000Y-49530000D03*
%TD*%
D14*
%TO.P,R9,1*%
%TO.N,3out*%
X210820000Y-62230000D03*
D15*
%TO.P,R9,2*%
%TO.N,Net-(J8-Pad1)*%
X200660000Y-62230000D03*
%TD*%
%TO.P,R10,2*%
%TO.N,Net-(J6-Pad1)*%
X198120000Y-91440000D03*
D14*
%TO.P,R10,1*%
%TO.N,1out*%
X208280000Y-91440000D03*
%TD*%
%TO.P,R11,1*%
%TO.N,5out*%
X227330000Y-62230000D03*
D15*
%TO.P,R11,2*%
%TO.N,+9V*%
X217170000Y-62230000D03*
%TD*%
%TO.P,R12,2*%
%TO.N,5out*%
X219710000Y-54610000D03*
D14*
%TO.P,R12,1*%
%TO.N,GND*%
X229870000Y-54610000D03*
%TD*%
%TO.P,R13,1*%
%TO.N,3out*%
X210820000Y-67564000D03*
D15*
%TO.P,R13,2*%
%TO.N,+9V*%
X220980000Y-67564000D03*
%TD*%
%TO.P,R14,2*%
%TO.N,3out*%
X233680000Y-96520000D03*
D14*
%TO.P,R14,1*%
%TO.N,GND*%
X223520000Y-96520000D03*
%TD*%
%TO.P,R15,1*%
%TO.N,1out*%
X210820000Y-82550000D03*
D15*
%TO.P,R15,2*%
%TO.N,+9V*%
X210820000Y-72390000D03*
%TD*%
%TO.P,R16,2*%
%TO.N,1out*%
X233680000Y-89408000D03*
D14*
%TO.P,R16,1*%
%TO.N,GND*%
X223520000Y-89408000D03*
%TD*%
D15*
%TO.P,R17,2*%
%TO.N,Net-(C1-Pad1)*%
X152400000Y-110490000D03*
D14*
%TO.P,R17,1*%
%TO.N,Net-(J12-Pad2)*%
X152400000Y-100330000D03*
%TD*%
%TO.P,R18,1*%
%TO.N,+9V*%
X151130000Y-72390000D03*
D15*
%TO.P,R18,2*%
%TO.N,Net-(J12-Pad1)*%
X161290000Y-72390000D03*
%TD*%
D14*
%TO.P,R20,1*%
%TO.N,Net-(R20-Pad1)*%
X140970000Y-78740000D03*
D15*
%TO.P,R20,2*%
%TO.N,Net-(J11-Pad2)*%
X130810000Y-78740000D03*
%TD*%
%TO.P,R21,2*%
%TO.N,GND*%
X147320000Y-63500000D03*
D14*
%TO.P,R21,1*%
%TO.N,Net-(J11-Pad2)*%
X147320000Y-53340000D03*
%TD*%
D18*
%TO.P,RV1,3*%
%TO.N,Net-(C1-Pad1)*%
X140970000Y-96520000D03*
%TO.P,RV1,2*%
%TO.N,Net-(J12-Pad1)*%
X143510000Y-93980000D03*
%TO.P,RV1,1*%
%TO.N,Net-(RV1-Pad1)*%
X146050000Y-96520000D03*
%TD*%
D10*
%TO.P,U1,1*%
%TO.N,3out*%
X191770000Y-69850000D03*
D11*
%TO.P,U1,8*%
%TO.N,N/C*%
X199390000Y-85090000D03*
%TO.P,U1,2*%
%TO.N,5out*%
X191770000Y-72390000D03*
%TO.P,U1,9*%
%TO.N,N/C*%
X199390000Y-82550000D03*
%TO.P,U1,3*%
%TO.N,+9V*%
X191770000Y-74930000D03*
%TO.P,U1,10*%
%TO.N,Net-(J5-Pad1)*%
X199390000Y-80010000D03*
%TO.P,U1,4*%
%TO.N,Net-(J9-Pad1)*%
X191770000Y-77470000D03*
%TO.P,U1,11*%
%TO.N,Net-(J6-Pad1)*%
X199390000Y-77470000D03*
%TO.P,U1,5*%
%TO.N,Net-(J10-Pad1)*%
X191770000Y-80010000D03*
%TO.P,U1,12*%
%TO.N,GND*%
X199390000Y-74930000D03*
%TO.P,U1,6*%
%TO.N,Net-(J7-Pad1)*%
X191770000Y-82550000D03*
%TO.P,U1,13*%
%TO.N,1out*%
X199390000Y-72390000D03*
%TO.P,U1,7*%
%TO.N,Net-(J8-Pad1)*%
X191770000Y-85090000D03*
%TO.P,U1,14*%
%TO.N,N/C*%
X199390000Y-69850000D03*
%TD*%
D16*
%TO.P,C2,1*%
%TO.N,GND*%
X130810000Y-92710000D03*
D17*
%TO.P,C2,2*%
%TO.N,+9V*%
X135890000Y-92710000D03*
%TD*%
D19*
%TO.P,H1,1*%
%TO.N,GND*%
X133350000Y-106680000D03*
D20*
X135975000Y-106680000D03*
X135206155Y-108536155D03*
X133350000Y-109305000D03*
X131493845Y-108536155D03*
X130725000Y-106680000D03*
X131493845Y-104823845D03*
X133350000Y-104055000D03*
X135206155Y-104823845D03*
%TD*%
%TO.P,H2,1*%
%TO.N,GND*%
X232996155Y-103553845D03*
X231140000Y-102785000D03*
X229283845Y-103553845D03*
X228515000Y-105410000D03*
X229283845Y-107266155D03*
X231140000Y-108035000D03*
X232996155Y-107266155D03*
X233765000Y-105410000D03*
D19*
X231140000Y-105410000D03*
%TD*%
%TO.P,H3,1*%
%TO.N,GND*%
X229870000Y-46990000D03*
D20*
X232495000Y-46990000D03*
X231726155Y-48846155D03*
X229870000Y-49615000D03*
X228013845Y-48846155D03*
X227245000Y-46990000D03*
X228013845Y-45133845D03*
X229870000Y-44365000D03*
X231726155Y-45133845D03*
%TD*%
%TO.P,H4,1*%
%TO.N,GND*%
X135206155Y-45133845D03*
X133350000Y-44365000D03*
X131493845Y-45133845D03*
X130725000Y-46990000D03*
X131493845Y-48846155D03*
X133350000Y-49615000D03*
X135206155Y-48846155D03*
X135975000Y-46990000D03*
D19*
X133350000Y-46990000D03*
%TD*%
D21*
%TO.N,Net-(J10-Pad1)*%
X162636200Y-52895500D03*
%TD*%
D22*
%TO.N,Net-(C1-Pad1)*%
X142240000Y-74930000D02*
X149860000Y-82550000D01*
X142240000Y-72390000D02*
X142240000Y-74930000D01*
X140970000Y-99060000D02*
X152400000Y-110490000D01*
X140970000Y-96520000D02*
X140970000Y-99060000D01*
X151415610Y-84105610D02*
X149860000Y-82550000D01*
X151415610Y-85568669D02*
X151415610Y-84105610D01*
X150738669Y-86245610D02*
X151415610Y-85568669D01*
X148981331Y-86245610D02*
X150738669Y-86245610D01*
X140970000Y-94256941D02*
X148981331Y-86245610D01*
X140970000Y-96520000D02*
X140970000Y-94256941D01*
X152400000Y-85090000D02*
X151415610Y-84105610D01*
X157480000Y-85090000D02*
X152400000Y-85090000D01*
%TO.N,1out*%
X208280000Y-85090000D02*
X210820000Y-82550000D01*
X208280000Y-91440000D02*
X208280000Y-85090000D01*
X233680000Y-89408000D02*
X233680000Y-81280000D01*
%TO.N,3out*%
X210820000Y-62230000D02*
X210820000Y-67310000D01*
X221996000Y-78740000D02*
X210820000Y-67564000D01*
X233680000Y-78740000D02*
X221996000Y-78740000D01*
X194056000Y-67564000D02*
X191770000Y-69850000D01*
X210820000Y-67564000D02*
X194056000Y-67564000D01*
X234885601Y-79945601D02*
X233680000Y-78740000D01*
X234885601Y-95314399D02*
X234885601Y-79945601D01*
X233680000Y-96520000D02*
X234885601Y-95314399D01*
%TO.N,5out*%
X214630000Y-59690000D02*
X219710000Y-54610000D01*
X191770000Y-59690000D02*
X214630000Y-59690000D01*
X188099700Y-71551800D02*
X188937900Y-72390000D01*
X188099700Y-61226402D02*
X188099700Y-71551800D01*
X188937900Y-72390000D02*
X191770000Y-72390000D01*
X191770000Y-59690000D02*
X189636102Y-59690000D01*
X189636102Y-59690000D02*
X188099700Y-61226402D01*
%TO.N,Tsig*%
X147320000Y-46990000D02*
X170180000Y-46990000D01*
X170180000Y-50800000D02*
X173990000Y-54610000D01*
X170180000Y-46990000D02*
X170180000Y-50800000D01*
%TO.N,Net-(J5-Pad1)*%
X179070000Y-92710000D02*
X184150000Y-87630000D01*
X166370000Y-92710000D02*
X179070000Y-92710000D01*
X198884279Y-80010000D02*
X199390000Y-80010000D01*
X185674000Y-87630000D02*
X199644000Y-101600000D01*
X184150000Y-87630000D02*
X185674000Y-87630000D01*
X199288400Y-80111600D02*
X199390000Y-80010000D01*
X195643500Y-80111600D02*
X199288400Y-80111600D01*
X195643500Y-87553800D02*
X195643500Y-80111600D01*
X184150000Y-87630000D02*
X195567300Y-87630000D01*
X195567300Y-87630000D02*
X195643500Y-87553800D01*
%TO.N,Net-(J6-Pad1)*%
X165354000Y-57150000D02*
X174752000Y-66548000D01*
X162560000Y-57150000D02*
X165354000Y-57150000D01*
X181978390Y-73774390D02*
X195694390Y-73774390D01*
X195694390Y-73774390D02*
X199390000Y-77470000D01*
X174752000Y-66548000D02*
X181978390Y-73774390D01*
%TO.N,Net-(J7-Pad1)*%
X166370000Y-78740000D02*
X166370000Y-82550000D01*
X166370000Y-82550000D02*
X191770000Y-82550000D01*
%TO.N,Net-(J9-Pad1)*%
X163830000Y-66040000D02*
X166370000Y-68580000D01*
X161290000Y-66040000D02*
X163830000Y-66040000D01*
X168910000Y-68580000D02*
X175260000Y-74930000D01*
X166370000Y-68580000D02*
X168910000Y-68580000D01*
X189230000Y-74930000D02*
X191770000Y-77470000D01*
X175260000Y-74930000D02*
X189230000Y-74930000D01*
%TO.N,Net-(J10-Pad1)*%
X182880000Y-46990000D02*
X185420000Y-44450000D01*
X180340000Y-46990000D02*
X182880000Y-46990000D01*
X185420000Y-44450000D02*
X189230000Y-44450000D01*
X191770000Y-46990000D02*
X191770000Y-49530000D01*
X189230000Y-44450000D02*
X191770000Y-46990000D01*
X173549710Y-80010000D02*
X191770000Y-80010000D01*
X158402989Y-66594689D02*
X171818300Y-80010000D01*
X158369000Y-57780522D02*
X158369000Y-66509900D01*
X158369000Y-57780522D02*
X158369000Y-55956200D01*
X158369000Y-55956200D02*
X161429700Y-52895500D01*
X161429700Y-52895500D02*
X162636200Y-52895500D01*
X171818300Y-80010000D02*
X173549710Y-80010000D01*
%TO.N,Net-(J11-Pad2)*%
X154940000Y-49530000D02*
X151130000Y-49530000D01*
X130810000Y-69850000D02*
X130810000Y-78740000D01*
X151130000Y-49530000D02*
X130810000Y-69850000D01*
%TO.N,Net-(J12-Pad2)*%
X152400000Y-100330000D02*
X157480000Y-100330000D01*
%TO.N,Net-(J12-Pad1)*%
X159035610Y-80994390D02*
X159035610Y-75914390D01*
X157480000Y-82550000D02*
X159035610Y-80994390D01*
X161290000Y-73660000D02*
X161290000Y-72390000D01*
X159035610Y-75914390D02*
X161290000Y-73660000D01*
%TO.N,Net-(R20-Pad1)*%
X143510000Y-78740000D02*
X149860000Y-85090000D01*
X140970000Y-78740000D02*
X143510000Y-78740000D01*
%TD*%
D23*
%TO.N,GND*%
G36*
X238061900Y-111633866D02*
G01*
X132802606Y-112114502D01*
X127125787Y-112115783D01*
X127105615Y-109594155D01*
X130615450Y-109594155D01*
X131011634Y-110114550D01*
X131726612Y-110504748D01*
X132503976Y-110747964D01*
X133313853Y-110834851D01*
X134125118Y-110762069D01*
X134906597Y-110532415D01*
X135628256Y-110154715D01*
X135688366Y-110114550D01*
X136084550Y-109594155D01*
X133350000Y-106859605D01*
X130615450Y-109594155D01*
X127105615Y-109594155D01*
X127082012Y-106643853D01*
X129195149Y-106643853D01*
X129267931Y-107455118D01*
X129497585Y-108236597D01*
X129875285Y-108958256D01*
X129915450Y-109018366D01*
X130435845Y-109414550D01*
X133170395Y-106680000D01*
X133529605Y-106680000D01*
X136264155Y-109414550D01*
X136784550Y-109018366D01*
X137174748Y-108303388D01*
X137417964Y-107526024D01*
X137504851Y-106716147D01*
X137432069Y-105904882D01*
X137202415Y-105123403D01*
X136824715Y-104401744D01*
X136784550Y-104341634D01*
X136264155Y-103945450D01*
X133529605Y-106680000D01*
X133170395Y-106680000D01*
X130435845Y-103945450D01*
X129915450Y-104341634D01*
X129525252Y-105056612D01*
X129282036Y-105833976D01*
X129195149Y-106643853D01*
X127082012Y-106643853D01*
X127058989Y-103765845D01*
X130615450Y-103765845D01*
X133350000Y-106500395D01*
X136084550Y-103765845D01*
X135688366Y-103245450D01*
X134973388Y-102855252D01*
X134196024Y-102612036D01*
X133386147Y-102525149D01*
X132574882Y-102597931D01*
X131793403Y-102827585D01*
X131071744Y-103205285D01*
X131011634Y-103245450D01*
X130615450Y-103765845D01*
X127058989Y-103765845D01*
X126977912Y-93631269D01*
X130068336Y-93631269D01*
X130127797Y-93865037D01*
X130366242Y-93975934D01*
X130621740Y-94038183D01*
X130884473Y-94049390D01*
X131144344Y-94009125D01*
X131391366Y-93918935D01*
X131492203Y-93865037D01*
X131551664Y-93631269D01*
X130810000Y-92889605D01*
X130068336Y-93631269D01*
X126977912Y-93631269D01*
X126971137Y-92784473D01*
X129470610Y-92784473D01*
X129510875Y-93044344D01*
X129601065Y-93291366D01*
X129654963Y-93392203D01*
X129888731Y-93451664D01*
X130630395Y-92710000D01*
X130989605Y-92710000D01*
X131731269Y-93451664D01*
X131965037Y-93392203D01*
X132075934Y-93153758D01*
X132138183Y-92898260D01*
X132149390Y-92635527D01*
X132140557Y-92578514D01*
X134555000Y-92578514D01*
X134555000Y-92841486D01*
X134606304Y-93099405D01*
X134706939Y-93342359D01*
X134853038Y-93561013D01*
X135038987Y-93746962D01*
X135257641Y-93893061D01*
X135500595Y-93993696D01*
X135758514Y-94045000D01*
X136021486Y-94045000D01*
X136279405Y-93993696D01*
X136522359Y-93893061D01*
X136741013Y-93746962D01*
X136926962Y-93561013D01*
X137073061Y-93342359D01*
X137173696Y-93099405D01*
X137225000Y-92841486D01*
X137225000Y-92578514D01*
X137173696Y-92320595D01*
X137073061Y-92077641D01*
X136926962Y-91858987D01*
X136741013Y-91673038D01*
X136522359Y-91526939D01*
X136279405Y-91426304D01*
X136021486Y-91375000D01*
X135758514Y-91375000D01*
X135500595Y-91426304D01*
X135257641Y-91526939D01*
X135038987Y-91673038D01*
X134853038Y-91858987D01*
X134706939Y-92077641D01*
X134606304Y-92320595D01*
X134555000Y-92578514D01*
X132140557Y-92578514D01*
X132109125Y-92375656D01*
X132018935Y-92128634D01*
X131965037Y-92027797D01*
X131731269Y-91968336D01*
X130989605Y-92710000D01*
X130630395Y-92710000D01*
X129888731Y-91968336D01*
X129654963Y-92027797D01*
X129544066Y-92266242D01*
X129481817Y-92521740D01*
X129470610Y-92784473D01*
X126971137Y-92784473D01*
X126963172Y-91788731D01*
X130068336Y-91788731D01*
X130810000Y-92530395D01*
X131551664Y-91788731D01*
X131492203Y-91554963D01*
X131253758Y-91444066D01*
X130998260Y-91381817D01*
X130735527Y-91370610D01*
X130475656Y-91410875D01*
X130228634Y-91501065D01*
X130127797Y-91554963D01*
X130068336Y-91788731D01*
X126963172Y-91788731D01*
X126923102Y-86780000D01*
X134401928Y-86780000D01*
X134401928Y-88480000D01*
X134414188Y-88604482D01*
X134450498Y-88724180D01*
X134509463Y-88834494D01*
X134588815Y-88931185D01*
X134685506Y-89010537D01*
X134795820Y-89069502D01*
X134915518Y-89105812D01*
X135040000Y-89118072D01*
X136740000Y-89118072D01*
X136864482Y-89105812D01*
X136984180Y-89069502D01*
X137094494Y-89010537D01*
X137191185Y-88931185D01*
X137270537Y-88834494D01*
X137329502Y-88724180D01*
X137365812Y-88604482D01*
X137378072Y-88480000D01*
X137378072Y-86780000D01*
X137365812Y-86655518D01*
X137329502Y-86535820D01*
X137270537Y-86425506D01*
X137191185Y-86328815D01*
X137094494Y-86249463D01*
X136984180Y-86190498D01*
X136864482Y-86154188D01*
X136740000Y-86141928D01*
X135040000Y-86141928D01*
X134915518Y-86154188D01*
X134795820Y-86190498D01*
X134685506Y-86249463D01*
X134588815Y-86328815D01*
X134509463Y-86425506D01*
X134450498Y-86535820D01*
X134414188Y-86655518D01*
X134401928Y-86780000D01*
X126923102Y-86780000D01*
X126857650Y-78598665D01*
X129375000Y-78598665D01*
X129375000Y-78881335D01*
X129430147Y-79158574D01*
X129538320Y-79419727D01*
X129695363Y-79654759D01*
X129895241Y-79854637D01*
X130130273Y-80011680D01*
X130391426Y-80119853D01*
X130668665Y-80175000D01*
X130951335Y-80175000D01*
X131228574Y-80119853D01*
X131489727Y-80011680D01*
X131724759Y-79854637D01*
X131924637Y-79654759D01*
X132081680Y-79419727D01*
X132189853Y-79158574D01*
X132245000Y-78881335D01*
X132245000Y-78598665D01*
X139535000Y-78598665D01*
X139535000Y-78881335D01*
X139590147Y-79158574D01*
X139698320Y-79419727D01*
X139855363Y-79654759D01*
X140055241Y-79854637D01*
X140290273Y-80011680D01*
X140551426Y-80119853D01*
X140828665Y-80175000D01*
X141111335Y-80175000D01*
X141388574Y-80119853D01*
X141649727Y-80011680D01*
X141884759Y-79854637D01*
X142084637Y-79654759D01*
X142169735Y-79527400D01*
X143183850Y-79527400D01*
X148151094Y-84494646D01*
X148127818Y-84538192D01*
X148045764Y-84808691D01*
X148018057Y-85090000D01*
X148045764Y-85371309D01*
X148127818Y-85641808D01*
X148247560Y-85865830D01*
X140440573Y-93672818D01*
X140410532Y-93697472D01*
X140385879Y-93727512D01*
X140312135Y-93817369D01*
X140239018Y-93954159D01*
X140193995Y-94102584D01*
X140178792Y-94256941D01*
X140182601Y-94295614D01*
X140182600Y-95416479D01*
X140106238Y-95467503D01*
X139917503Y-95656238D01*
X139769215Y-95878167D01*
X139667072Y-96124761D01*
X139615000Y-96386544D01*
X139615000Y-96653456D01*
X139667072Y-96915239D01*
X139769215Y-97161833D01*
X139917503Y-97383762D01*
X140106238Y-97572497D01*
X140182600Y-97623521D01*
X140182601Y-99021327D01*
X140178792Y-99060000D01*
X140193995Y-99214357D01*
X140239018Y-99362782D01*
X140312135Y-99499572D01*
X140410532Y-99619469D01*
X140440573Y-99644123D01*
X150994883Y-110198434D01*
X150965000Y-110348665D01*
X150965000Y-110631335D01*
X151020147Y-110908574D01*
X151128320Y-111169727D01*
X151285363Y-111404759D01*
X151485241Y-111604637D01*
X151720273Y-111761680D01*
X151981426Y-111869853D01*
X152258665Y-111925000D01*
X152541335Y-111925000D01*
X152818574Y-111869853D01*
X153079727Y-111761680D01*
X153314759Y-111604637D01*
X153514637Y-111404759D01*
X153671680Y-111169727D01*
X153779853Y-110908574D01*
X153835000Y-110631335D01*
X153835000Y-110348665D01*
X153779853Y-110071426D01*
X153671680Y-109810273D01*
X153514637Y-109575241D01*
X153314759Y-109375363D01*
X153079727Y-109218320D01*
X152818574Y-109110147D01*
X152541335Y-109055000D01*
X152258665Y-109055000D01*
X152108434Y-109084883D01*
X151347706Y-108324155D01*
X228405450Y-108324155D01*
X228801634Y-108844550D01*
X229516612Y-109234748D01*
X230293976Y-109477964D01*
X231103853Y-109564851D01*
X231915118Y-109492069D01*
X232696597Y-109262415D01*
X233418256Y-108884715D01*
X233478366Y-108844550D01*
X233874550Y-108324155D01*
X231140000Y-105589605D01*
X228405450Y-108324155D01*
X151347706Y-108324155D01*
X148397404Y-105373853D01*
X226985149Y-105373853D01*
X227057931Y-106185118D01*
X227287585Y-106966597D01*
X227665285Y-107688256D01*
X227705450Y-107748366D01*
X228225845Y-108144550D01*
X230960395Y-105410000D01*
X231319605Y-105410000D01*
X234054155Y-108144550D01*
X234574550Y-107748366D01*
X234964748Y-107033388D01*
X235207964Y-106256024D01*
X235294851Y-105446147D01*
X235222069Y-104634882D01*
X234992415Y-103853403D01*
X234614715Y-103131744D01*
X234574550Y-103071634D01*
X234054155Y-102675450D01*
X231319605Y-105410000D01*
X230960395Y-105410000D01*
X228225845Y-102675450D01*
X227705450Y-103071634D01*
X227315252Y-103786612D01*
X227072036Y-104563976D01*
X226985149Y-105373853D01*
X148397404Y-105373853D01*
X143212216Y-100188665D01*
X150965000Y-100188665D01*
X150965000Y-100471335D01*
X151020147Y-100748574D01*
X151128320Y-101009727D01*
X151285363Y-101244759D01*
X151485241Y-101444637D01*
X151720273Y-101601680D01*
X151981426Y-101709853D01*
X152258665Y-101765000D01*
X152541335Y-101765000D01*
X152818574Y-101709853D01*
X153079727Y-101601680D01*
X153314759Y-101444637D01*
X153514637Y-101244759D01*
X153599735Y-101117400D01*
X156220130Y-101117400D01*
X156326525Y-101276632D01*
X156533368Y-101483475D01*
X156776589Y-101645990D01*
X157046842Y-101757932D01*
X157333740Y-101815000D01*
X157626260Y-101815000D01*
X157913158Y-101757932D01*
X158183411Y-101645990D01*
X158426632Y-101483475D01*
X158633475Y-101276632D01*
X158795990Y-101033411D01*
X158907932Y-100763158D01*
X158965000Y-100476260D01*
X158965000Y-100183740D01*
X158907932Y-99896842D01*
X158795990Y-99626589D01*
X158633475Y-99383368D01*
X158501620Y-99251513D01*
X158574180Y-99229502D01*
X158684494Y-99170537D01*
X158781185Y-99091185D01*
X158860537Y-98994494D01*
X158919502Y-98884180D01*
X158955812Y-98764482D01*
X158968072Y-98640000D01*
X158968072Y-96940000D01*
X158955812Y-96815518D01*
X158919502Y-96695820D01*
X158860537Y-96585506D01*
X158781185Y-96488815D01*
X158684494Y-96409463D01*
X158574180Y-96350498D01*
X158454482Y-96314188D01*
X158330000Y-96301928D01*
X156630000Y-96301928D01*
X156505518Y-96314188D01*
X156385820Y-96350498D01*
X156275506Y-96409463D01*
X156178815Y-96488815D01*
X156099463Y-96585506D01*
X156040498Y-96695820D01*
X156004188Y-96815518D01*
X155991928Y-96940000D01*
X155991928Y-98640000D01*
X156004188Y-98764482D01*
X156040498Y-98884180D01*
X156099463Y-98994494D01*
X156178815Y-99091185D01*
X156275506Y-99170537D01*
X156385820Y-99229502D01*
X156458380Y-99251513D01*
X156326525Y-99383368D01*
X156220130Y-99542600D01*
X153599735Y-99542600D01*
X153514637Y-99415241D01*
X153314759Y-99215363D01*
X153079727Y-99058320D01*
X152818574Y-98950147D01*
X152541335Y-98895000D01*
X152258665Y-98895000D01*
X151981426Y-98950147D01*
X151720273Y-99058320D01*
X151485241Y-99215363D01*
X151285363Y-99415241D01*
X151128320Y-99650273D01*
X151020147Y-99911426D01*
X150965000Y-100188665D01*
X143212216Y-100188665D01*
X141757400Y-98733850D01*
X141757400Y-97623520D01*
X141833762Y-97572497D01*
X142022497Y-97383762D01*
X142170785Y-97161833D01*
X142272928Y-96915239D01*
X142325000Y-96653456D01*
X142325000Y-96386544D01*
X144695000Y-96386544D01*
X144695000Y-96653456D01*
X144747072Y-96915239D01*
X144849215Y-97161833D01*
X144997503Y-97383762D01*
X145186238Y-97572497D01*
X145408167Y-97720785D01*
X145654761Y-97822928D01*
X145916544Y-97875000D01*
X146183456Y-97875000D01*
X146445239Y-97822928D01*
X146691833Y-97720785D01*
X146913762Y-97572497D01*
X147102497Y-97383762D01*
X147250785Y-97161833D01*
X147352928Y-96915239D01*
X147405000Y-96653456D01*
X147405000Y-96386544D01*
X147352928Y-96124761D01*
X147250785Y-95878167D01*
X147102497Y-95656238D01*
X146913762Y-95467503D01*
X146691833Y-95319215D01*
X146445239Y-95217072D01*
X146183456Y-95165000D01*
X145916544Y-95165000D01*
X145654761Y-95217072D01*
X145408167Y-95319215D01*
X145186238Y-95467503D01*
X144997503Y-95656238D01*
X144849215Y-95878167D01*
X144747072Y-96124761D01*
X144695000Y-96386544D01*
X142325000Y-96386544D01*
X142272928Y-96124761D01*
X142170785Y-95878167D01*
X142022497Y-95656238D01*
X141833762Y-95467503D01*
X141757400Y-95416480D01*
X141757400Y-94583091D01*
X142166951Y-94173540D01*
X142207072Y-94375239D01*
X142309215Y-94621833D01*
X142457503Y-94843762D01*
X142646238Y-95032497D01*
X142868167Y-95180785D01*
X143114761Y-95282928D01*
X143376544Y-95335000D01*
X143643456Y-95335000D01*
X143905239Y-95282928D01*
X144151833Y-95180785D01*
X144373762Y-95032497D01*
X144562497Y-94843762D01*
X144710785Y-94621833D01*
X144812928Y-94375239D01*
X144865000Y-94113456D01*
X144865000Y-93846544D01*
X144812928Y-93584761D01*
X144710785Y-93338167D01*
X144562497Y-93116238D01*
X144373762Y-92927503D01*
X144151833Y-92779215D01*
X143905239Y-92677072D01*
X143703540Y-92636951D01*
X148138569Y-88201922D01*
X148261068Y-88431101D01*
X148440392Y-88649608D01*
X148658899Y-88828932D01*
X148908192Y-88962182D01*
X149178691Y-89044236D01*
X149389508Y-89065000D01*
X150330492Y-89065000D01*
X150541309Y-89044236D01*
X150811808Y-88962182D01*
X151061101Y-88828932D01*
X151279608Y-88649608D01*
X151458932Y-88431101D01*
X151592182Y-88181808D01*
X151674236Y-87911309D01*
X151701943Y-87630000D01*
X151674236Y-87348691D01*
X151592182Y-87078192D01*
X151458932Y-86828899D01*
X151373288Y-86724541D01*
X151945044Y-86152787D01*
X151975079Y-86128138D01*
X152073476Y-86008241D01*
X152146592Y-85871452D01*
X152156451Y-85838950D01*
X152245643Y-85866006D01*
X152361327Y-85877400D01*
X152361335Y-85877400D01*
X152400000Y-85881208D01*
X152438665Y-85877400D01*
X155873745Y-85877400D01*
X155881068Y-85891101D01*
X156060392Y-86109608D01*
X156278899Y-86288932D01*
X156411858Y-86360000D01*
X156278899Y-86431068D01*
X156060392Y-86610392D01*
X155881068Y-86828899D01*
X155747818Y-87078192D01*
X155665764Y-87348691D01*
X155638057Y-87630000D01*
X155665764Y-87911309D01*
X155747818Y-88181808D01*
X155881068Y-88431101D01*
X156060392Y-88649608D01*
X156278899Y-88828932D01*
X156528192Y-88962182D01*
X156798691Y-89044236D01*
X157009508Y-89065000D01*
X157950492Y-89065000D01*
X158161309Y-89044236D01*
X158431808Y-88962182D01*
X158681101Y-88828932D01*
X158899608Y-88649608D01*
X159078932Y-88431101D01*
X159212182Y-88181808D01*
X159294236Y-87911309D01*
X159321943Y-87630000D01*
X159294236Y-87348691D01*
X159212182Y-87078192D01*
X159078932Y-86828899D01*
X158899608Y-86610392D01*
X158681101Y-86431068D01*
X158548142Y-86360000D01*
X158681101Y-86288932D01*
X158899608Y-86109608D01*
X159078932Y-85891101D01*
X159212182Y-85641808D01*
X159294236Y-85371309D01*
X159321943Y-85090000D01*
X159294236Y-84808691D01*
X159212182Y-84538192D01*
X159078932Y-84288899D01*
X158899608Y-84070392D01*
X158681101Y-83891068D01*
X158548142Y-83820000D01*
X158681101Y-83748932D01*
X158899608Y-83569608D01*
X159078932Y-83351101D01*
X159212182Y-83101808D01*
X159294236Y-82831309D01*
X159321943Y-82550000D01*
X159294236Y-82268691D01*
X159212182Y-81998192D01*
X159188906Y-81954645D01*
X159565039Y-81578512D01*
X159595079Y-81553859D01*
X159675538Y-81455820D01*
X159693476Y-81433963D01*
X159766592Y-81297173D01*
X159811616Y-81148747D01*
X159813094Y-81133740D01*
X159823010Y-81033063D01*
X159823010Y-81033055D01*
X159826818Y-80994390D01*
X159823010Y-80955725D01*
X159823010Y-76240540D01*
X161819429Y-74244122D01*
X161849469Y-74219469D01*
X161923798Y-74128899D01*
X161947866Y-74099573D01*
X162020982Y-73962783D01*
X162023186Y-73955518D01*
X162066006Y-73814357D01*
X162077400Y-73698673D01*
X162077400Y-73698663D01*
X162081208Y-73660000D01*
X162077400Y-73621337D01*
X162077400Y-73589735D01*
X162204759Y-73504637D01*
X162404637Y-73304759D01*
X162561680Y-73069727D01*
X162669853Y-72808574D01*
X162725000Y-72531335D01*
X162725000Y-72248665D01*
X162670766Y-71976016D01*
X171234177Y-80539428D01*
X171258831Y-80569469D01*
X171317765Y-80617835D01*
X171378727Y-80667866D01*
X171477256Y-80720531D01*
X171515517Y-80740982D01*
X171663943Y-80786006D01*
X171779627Y-80797400D01*
X171779635Y-80797400D01*
X171818300Y-80801208D01*
X171856965Y-80797400D01*
X190163745Y-80797400D01*
X190171068Y-80811101D01*
X190350392Y-81029608D01*
X190568899Y-81208932D01*
X190701858Y-81280000D01*
X190568899Y-81351068D01*
X190350392Y-81530392D01*
X190171068Y-81748899D01*
X190163745Y-81762600D01*
X178780072Y-81762600D01*
X178780072Y-81700000D01*
X178767812Y-81575518D01*
X178731502Y-81455820D01*
X178672537Y-81345506D01*
X178593185Y-81248815D01*
X178496494Y-81169463D01*
X178386180Y-81110498D01*
X178266482Y-81074188D01*
X178142000Y-81061928D01*
X176442000Y-81061928D01*
X176317518Y-81074188D01*
X176197820Y-81110498D01*
X176087506Y-81169463D01*
X175990815Y-81248815D01*
X175911463Y-81345506D01*
X175852498Y-81455820D01*
X175816188Y-81575518D01*
X175803928Y-81700000D01*
X175803928Y-81762600D01*
X167569735Y-81762600D01*
X167484637Y-81635241D01*
X167284759Y-81435363D01*
X167157400Y-81350265D01*
X167157400Y-79939735D01*
X167284759Y-79854637D01*
X167484637Y-79654759D01*
X167641680Y-79419727D01*
X167749853Y-79158574D01*
X167805000Y-78881335D01*
X167805000Y-78598665D01*
X167749853Y-78321426D01*
X167641680Y-78060273D01*
X167484637Y-77825241D01*
X167284759Y-77625363D01*
X167049727Y-77468320D01*
X166788574Y-77360147D01*
X166511335Y-77305000D01*
X166228665Y-77305000D01*
X165951426Y-77360147D01*
X165690273Y-77468320D01*
X165455241Y-77625363D01*
X165255363Y-77825241D01*
X165098320Y-78060273D01*
X164990147Y-78321426D01*
X164935000Y-78598665D01*
X164935000Y-78881335D01*
X164990147Y-79158574D01*
X165098320Y-79419727D01*
X165255363Y-79654759D01*
X165455241Y-79854637D01*
X165582600Y-79939736D01*
X165582601Y-81350264D01*
X165455241Y-81435363D01*
X165255363Y-81635241D01*
X165098320Y-81870273D01*
X164990147Y-82131426D01*
X164935000Y-82408665D01*
X164935000Y-82691335D01*
X164990147Y-82968574D01*
X165098320Y-83229727D01*
X165255363Y-83464759D01*
X165455241Y-83664637D01*
X165690273Y-83821680D01*
X165951426Y-83929853D01*
X166228665Y-83985000D01*
X166511335Y-83985000D01*
X166788574Y-83929853D01*
X167049727Y-83821680D01*
X167284759Y-83664637D01*
X167484637Y-83464759D01*
X167569735Y-83337400D01*
X175803928Y-83337400D01*
X175803928Y-83400000D01*
X175816188Y-83524482D01*
X175852498Y-83644180D01*
X175911463Y-83754494D01*
X175990815Y-83851185D01*
X176087506Y-83930537D01*
X176197820Y-83989502D01*
X176317518Y-84025812D01*
X176442000Y-84038072D01*
X178142000Y-84038072D01*
X178266482Y-84025812D01*
X178386180Y-83989502D01*
X178496494Y-83930537D01*
X178593185Y-83851185D01*
X178672537Y-83754494D01*
X178731502Y-83644180D01*
X178767812Y-83524482D01*
X178780072Y-83400000D01*
X178780072Y-83337400D01*
X190163745Y-83337400D01*
X190171068Y-83351101D01*
X190350392Y-83569608D01*
X190568899Y-83748932D01*
X190701858Y-83820000D01*
X190568899Y-83891068D01*
X190350392Y-84070392D01*
X190171068Y-84288899D01*
X190037818Y-84538192D01*
X189955764Y-84808691D01*
X189928057Y-85090000D01*
X189955764Y-85371309D01*
X190037818Y-85641808D01*
X190171068Y-85891101D01*
X190350392Y-86109608D01*
X190568899Y-86288932D01*
X190818192Y-86422182D01*
X191088691Y-86504236D01*
X191299508Y-86525000D01*
X192240492Y-86525000D01*
X192451309Y-86504236D01*
X192721808Y-86422182D01*
X192971101Y-86288932D01*
X193189608Y-86109608D01*
X193368932Y-85891101D01*
X193502182Y-85641808D01*
X193584236Y-85371309D01*
X193611943Y-85090000D01*
X193584236Y-84808691D01*
X193502182Y-84538192D01*
X193368932Y-84288899D01*
X193189608Y-84070392D01*
X192971101Y-83891068D01*
X192838142Y-83820000D01*
X192971101Y-83748932D01*
X193189608Y-83569608D01*
X193368932Y-83351101D01*
X193502182Y-83101808D01*
X193584236Y-82831309D01*
X193611943Y-82550000D01*
X193584236Y-82268691D01*
X193502182Y-81998192D01*
X193368932Y-81748899D01*
X193189608Y-81530392D01*
X192971101Y-81351068D01*
X192838142Y-81280000D01*
X192971101Y-81208932D01*
X193189608Y-81029608D01*
X193368932Y-80811101D01*
X193502182Y-80561808D01*
X193584236Y-80291309D01*
X193611943Y-80010000D01*
X193584236Y-79728691D01*
X193502182Y-79458192D01*
X193368932Y-79208899D01*
X193189608Y-78990392D01*
X192971101Y-78811068D01*
X192838142Y-78740000D01*
X192971101Y-78668932D01*
X193189608Y-78489608D01*
X193368932Y-78271101D01*
X193502182Y-78021808D01*
X193584236Y-77751309D01*
X193611943Y-77470000D01*
X193584236Y-77188691D01*
X193502182Y-76918192D01*
X193368932Y-76668899D01*
X193189608Y-76450392D01*
X192971101Y-76271068D01*
X192838142Y-76200000D01*
X192971101Y-76128932D01*
X193189608Y-75949608D01*
X193368932Y-75731101D01*
X193502182Y-75481808D01*
X193584236Y-75211309D01*
X193611943Y-74930000D01*
X193584236Y-74648691D01*
X193557875Y-74561790D01*
X195368240Y-74561790D01*
X197681094Y-76874645D01*
X197657818Y-76918192D01*
X197575764Y-77188691D01*
X197548057Y-77470000D01*
X197575764Y-77751309D01*
X197657818Y-78021808D01*
X197791068Y-78271101D01*
X197970392Y-78489608D01*
X198188899Y-78668932D01*
X198321858Y-78740000D01*
X198188899Y-78811068D01*
X197970392Y-78990392D01*
X197791068Y-79208899D01*
X197729438Y-79324200D01*
X195682173Y-79324200D01*
X195643500Y-79320391D01*
X195604827Y-79324200D01*
X195489143Y-79335594D01*
X195340717Y-79380618D01*
X195203928Y-79453734D01*
X195084031Y-79552131D01*
X194985634Y-79672028D01*
X194912518Y-79808817D01*
X194867494Y-79957243D01*
X194852291Y-80111600D01*
X194856101Y-80150283D01*
X194856100Y-86842600D01*
X185712663Y-86842600D01*
X185674000Y-86838792D01*
X185638072Y-86842331D01*
X185638072Y-86780000D01*
X185625812Y-86655518D01*
X185589502Y-86535820D01*
X185530537Y-86425506D01*
X185451185Y-86328815D01*
X185354494Y-86249463D01*
X185244180Y-86190498D01*
X185124482Y-86154188D01*
X185000000Y-86141928D01*
X183300000Y-86141928D01*
X183175518Y-86154188D01*
X183055820Y-86190498D01*
X182945506Y-86249463D01*
X182848815Y-86328815D01*
X182769463Y-86425506D01*
X182710498Y-86535820D01*
X182674188Y-86655518D01*
X182661928Y-86780000D01*
X182661928Y-88004521D01*
X178743850Y-91922600D01*
X167569735Y-91922600D01*
X167484637Y-91795241D01*
X167284759Y-91595363D01*
X167049727Y-91438320D01*
X166788574Y-91330147D01*
X166511335Y-91275000D01*
X166228665Y-91275000D01*
X165951426Y-91330147D01*
X165690273Y-91438320D01*
X165455241Y-91595363D01*
X165255363Y-91795241D01*
X165098320Y-92030273D01*
X164990147Y-92291426D01*
X164935000Y-92568665D01*
X164935000Y-92851335D01*
X164990147Y-93128574D01*
X165098320Y-93389727D01*
X165255363Y-93624759D01*
X165455241Y-93824637D01*
X165690273Y-93981680D01*
X165951426Y-94089853D01*
X166228665Y-94145000D01*
X166511335Y-94145000D01*
X166788574Y-94089853D01*
X167049727Y-93981680D01*
X167284759Y-93824637D01*
X167484637Y-93624759D01*
X167569735Y-93497400D01*
X179031337Y-93497400D01*
X179070000Y-93501208D01*
X179108663Y-93497400D01*
X179108673Y-93497400D01*
X179224357Y-93486006D01*
X179372783Y-93440982D01*
X179509572Y-93367866D01*
X179629469Y-93269469D01*
X179654128Y-93239422D01*
X183775479Y-89118072D01*
X185000000Y-89118072D01*
X185124482Y-89105812D01*
X185244180Y-89069502D01*
X185354494Y-89010537D01*
X185451185Y-88931185D01*
X185530537Y-88834494D01*
X185589502Y-88724180D01*
X185604660Y-88674210D01*
X198238883Y-101308435D01*
X198209000Y-101458665D01*
X198209000Y-101741335D01*
X198264147Y-102018574D01*
X198372320Y-102279727D01*
X198529363Y-102514759D01*
X198729241Y-102714637D01*
X198964273Y-102871680D01*
X199225426Y-102979853D01*
X199502665Y-103035000D01*
X199785335Y-103035000D01*
X200062574Y-102979853D01*
X200323727Y-102871680D01*
X200558759Y-102714637D01*
X200758637Y-102514759D01*
X200915680Y-102279727D01*
X201023853Y-102018574D01*
X201037684Y-101949039D01*
X208412096Y-101949039D01*
X208452754Y-102083087D01*
X208572963Y-102337420D01*
X208740481Y-102563414D01*
X208948869Y-102752385D01*
X209190119Y-102897070D01*
X209454960Y-102991909D01*
X209677000Y-102870624D01*
X209677000Y-101727000D01*
X209931000Y-101727000D01*
X209931000Y-102870624D01*
X210153040Y-102991909D01*
X210417881Y-102897070D01*
X210659131Y-102752385D01*
X210867519Y-102563414D01*
X210917604Y-102495845D01*
X228405450Y-102495845D01*
X231140000Y-105230395D01*
X233874550Y-102495845D01*
X233478366Y-101975450D01*
X232763388Y-101585252D01*
X231986024Y-101342036D01*
X231176147Y-101255149D01*
X230364882Y-101327931D01*
X229583403Y-101557585D01*
X228861744Y-101935285D01*
X228801634Y-101975450D01*
X228405450Y-102495845D01*
X210917604Y-102495845D01*
X211035037Y-102337420D01*
X211155246Y-102083087D01*
X211195904Y-101949039D01*
X211073915Y-101727000D01*
X209931000Y-101727000D01*
X209677000Y-101727000D01*
X208534085Y-101727000D01*
X208412096Y-101949039D01*
X201037684Y-101949039D01*
X201079000Y-101741335D01*
X201079000Y-101458665D01*
X201037685Y-101250961D01*
X208412096Y-101250961D01*
X208534085Y-101473000D01*
X209677000Y-101473000D01*
X209677000Y-100329376D01*
X209931000Y-100329376D01*
X209931000Y-101473000D01*
X211073915Y-101473000D01*
X211195904Y-101250961D01*
X211155246Y-101116913D01*
X211035037Y-100862580D01*
X210867519Y-100636586D01*
X210659131Y-100447615D01*
X210417881Y-100302930D01*
X210153040Y-100208091D01*
X209931000Y-100329376D01*
X209677000Y-100329376D01*
X209454960Y-100208091D01*
X209190119Y-100302930D01*
X208948869Y-100447615D01*
X208740481Y-100636586D01*
X208572963Y-100862580D01*
X208452754Y-101116913D01*
X208412096Y-101250961D01*
X201037685Y-101250961D01*
X201023853Y-101181426D01*
X200915680Y-100920273D01*
X200758637Y-100685241D01*
X200558759Y-100485363D01*
X200323727Y-100328320D01*
X200062574Y-100220147D01*
X199785335Y-100165000D01*
X199502665Y-100165000D01*
X199352435Y-100194883D01*
X196670254Y-97512702D01*
X222706903Y-97512702D01*
X222778486Y-97756671D01*
X223033996Y-97877571D01*
X223308184Y-97946300D01*
X223590512Y-97960217D01*
X223870130Y-97918787D01*
X224136292Y-97823603D01*
X224261514Y-97756671D01*
X224333097Y-97512702D01*
X223520000Y-96699605D01*
X222706903Y-97512702D01*
X196670254Y-97512702D01*
X195748064Y-96590512D01*
X222079783Y-96590512D01*
X222121213Y-96870130D01*
X222216397Y-97136292D01*
X222283329Y-97261514D01*
X222527298Y-97333097D01*
X223340395Y-96520000D01*
X223699605Y-96520000D01*
X224512702Y-97333097D01*
X224756671Y-97261514D01*
X224877571Y-97006004D01*
X224946300Y-96731816D01*
X224960217Y-96449488D01*
X224918787Y-96169870D01*
X224823603Y-95903708D01*
X224756671Y-95778486D01*
X224512702Y-95706903D01*
X223699605Y-96520000D01*
X223340395Y-96520000D01*
X222527298Y-95706903D01*
X222283329Y-95778486D01*
X222162429Y-96033996D01*
X222093700Y-96308184D01*
X222079783Y-96590512D01*
X195748064Y-96590512D01*
X194684850Y-95527298D01*
X222706903Y-95527298D01*
X223520000Y-96340395D01*
X224333097Y-95527298D01*
X224261514Y-95283329D01*
X224006004Y-95162429D01*
X223731816Y-95093700D01*
X223449488Y-95079783D01*
X223169870Y-95121213D01*
X222903708Y-95216397D01*
X222778486Y-95283329D01*
X222706903Y-95527298D01*
X194684850Y-95527298D01*
X190456216Y-91298665D01*
X196685000Y-91298665D01*
X196685000Y-91581335D01*
X196740147Y-91858574D01*
X196848320Y-92119727D01*
X197005363Y-92354759D01*
X197205241Y-92554637D01*
X197440273Y-92711680D01*
X197701426Y-92819853D01*
X197978665Y-92875000D01*
X198261335Y-92875000D01*
X198538574Y-92819853D01*
X198799727Y-92711680D01*
X199034759Y-92554637D01*
X199234637Y-92354759D01*
X199391680Y-92119727D01*
X199499853Y-91858574D01*
X199555000Y-91581335D01*
X199555000Y-91298665D01*
X206845000Y-91298665D01*
X206845000Y-91581335D01*
X206900147Y-91858574D01*
X207008320Y-92119727D01*
X207165363Y-92354759D01*
X207365241Y-92554637D01*
X207600273Y-92711680D01*
X207861426Y-92819853D01*
X208138665Y-92875000D01*
X208421335Y-92875000D01*
X208698574Y-92819853D01*
X208959727Y-92711680D01*
X209194759Y-92554637D01*
X209394637Y-92354759D01*
X209551680Y-92119727D01*
X209659853Y-91858574D01*
X209715000Y-91581335D01*
X209715000Y-91298665D01*
X209659853Y-91021426D01*
X209551680Y-90760273D01*
X209394637Y-90525241D01*
X209270098Y-90400702D01*
X222706903Y-90400702D01*
X222778486Y-90644671D01*
X223033996Y-90765571D01*
X223308184Y-90834300D01*
X223590512Y-90848217D01*
X223870130Y-90806787D01*
X224136292Y-90711603D01*
X224261514Y-90644671D01*
X224333097Y-90400702D01*
X223520000Y-89587605D01*
X222706903Y-90400702D01*
X209270098Y-90400702D01*
X209194759Y-90325363D01*
X209067400Y-90240265D01*
X209067400Y-89478512D01*
X222079783Y-89478512D01*
X222121213Y-89758130D01*
X222216397Y-90024292D01*
X222283329Y-90149514D01*
X222527298Y-90221097D01*
X223340395Y-89408000D01*
X223699605Y-89408000D01*
X224512702Y-90221097D01*
X224756671Y-90149514D01*
X224877571Y-89894004D01*
X224946300Y-89619816D01*
X224960217Y-89337488D01*
X224918787Y-89057870D01*
X224823603Y-88791708D01*
X224756671Y-88666486D01*
X224512702Y-88594903D01*
X223699605Y-89408000D01*
X223340395Y-89408000D01*
X222527298Y-88594903D01*
X222283329Y-88666486D01*
X222162429Y-88921996D01*
X222093700Y-89196184D01*
X222079783Y-89478512D01*
X209067400Y-89478512D01*
X209067400Y-88415298D01*
X222706903Y-88415298D01*
X223520000Y-89228395D01*
X224333097Y-88415298D01*
X224261514Y-88171329D01*
X224006004Y-88050429D01*
X223731816Y-87981700D01*
X223449488Y-87967783D01*
X223169870Y-88009213D01*
X222903708Y-88104397D01*
X222778486Y-88171329D01*
X222706903Y-88415298D01*
X209067400Y-88415298D01*
X209067400Y-85416150D01*
X210528434Y-83955117D01*
X210678665Y-83985000D01*
X210961335Y-83985000D01*
X211238574Y-83929853D01*
X211499727Y-83821680D01*
X211734759Y-83664637D01*
X211934637Y-83464759D01*
X212091680Y-83229727D01*
X212199853Y-82968574D01*
X212255000Y-82691335D01*
X212255000Y-82408665D01*
X212199853Y-82131426D01*
X212091680Y-81870273D01*
X211934637Y-81635241D01*
X211734759Y-81435363D01*
X211499727Y-81278320D01*
X211238574Y-81170147D01*
X210961335Y-81115000D01*
X210678665Y-81115000D01*
X210401426Y-81170147D01*
X210140273Y-81278320D01*
X209905241Y-81435363D01*
X209705363Y-81635241D01*
X209548320Y-81870273D01*
X209440147Y-82131426D01*
X209385000Y-82408665D01*
X209385000Y-82691335D01*
X209414883Y-82841566D01*
X207750573Y-84505877D01*
X207720532Y-84530531D01*
X207695880Y-84560570D01*
X207695879Y-84560571D01*
X207622135Y-84650428D01*
X207549018Y-84787218D01*
X207503995Y-84935643D01*
X207488792Y-85090000D01*
X207492601Y-85128673D01*
X207492600Y-90240265D01*
X207365241Y-90325363D01*
X207165363Y-90525241D01*
X207008320Y-90760273D01*
X206900147Y-91021426D01*
X206845000Y-91298665D01*
X199555000Y-91298665D01*
X199499853Y-91021426D01*
X199391680Y-90760273D01*
X199234637Y-90525241D01*
X199034759Y-90325363D01*
X198799727Y-90168320D01*
X198538574Y-90060147D01*
X198261335Y-90005000D01*
X197978665Y-90005000D01*
X197701426Y-90060147D01*
X197440273Y-90168320D01*
X197205241Y-90325363D01*
X197005363Y-90525241D01*
X196848320Y-90760273D01*
X196740147Y-91021426D01*
X196685000Y-91298665D01*
X190456216Y-91298665D01*
X187574950Y-88417400D01*
X195528637Y-88417400D01*
X195567300Y-88421208D01*
X195605963Y-88417400D01*
X195605973Y-88417400D01*
X195721657Y-88406006D01*
X195870083Y-88360982D01*
X196006872Y-88287866D01*
X196126769Y-88189469D01*
X196151428Y-88159422D01*
X196172923Y-88137927D01*
X196202969Y-88113269D01*
X196301366Y-87993372D01*
X196374482Y-87856583D01*
X196419506Y-87708157D01*
X196430900Y-87592473D01*
X196430900Y-87592464D01*
X196434708Y-87553801D01*
X196430900Y-87515138D01*
X196430900Y-80899000D01*
X197863205Y-80899000D01*
X197970392Y-81029608D01*
X198188899Y-81208932D01*
X198321858Y-81280000D01*
X198188899Y-81351068D01*
X197970392Y-81530392D01*
X197791068Y-81748899D01*
X197657818Y-81998192D01*
X197575764Y-82268691D01*
X197548057Y-82550000D01*
X197575764Y-82831309D01*
X197657818Y-83101808D01*
X197791068Y-83351101D01*
X197970392Y-83569608D01*
X198188899Y-83748932D01*
X198321858Y-83820000D01*
X198188899Y-83891068D01*
X197970392Y-84070392D01*
X197791068Y-84288899D01*
X197657818Y-84538192D01*
X197575764Y-84808691D01*
X197548057Y-85090000D01*
X197575764Y-85371309D01*
X197657818Y-85641808D01*
X197791068Y-85891101D01*
X197970392Y-86109608D01*
X198188899Y-86288932D01*
X198438192Y-86422182D01*
X198708691Y-86504236D01*
X198919508Y-86525000D01*
X199860492Y-86525000D01*
X200071309Y-86504236D01*
X200341808Y-86422182D01*
X200591101Y-86288932D01*
X200809608Y-86109608D01*
X200988932Y-85891101D01*
X201122182Y-85641808D01*
X201204236Y-85371309D01*
X201231943Y-85090000D01*
X201204236Y-84808691D01*
X201122182Y-84538192D01*
X200988932Y-84288899D01*
X200809608Y-84070392D01*
X200591101Y-83891068D01*
X200458142Y-83820000D01*
X200591101Y-83748932D01*
X200809608Y-83569608D01*
X200988932Y-83351101D01*
X201122182Y-83101808D01*
X201204236Y-82831309D01*
X201231943Y-82550000D01*
X201204236Y-82268691D01*
X201122182Y-81998192D01*
X200988932Y-81748899D01*
X200809608Y-81530392D01*
X200591101Y-81351068D01*
X200458142Y-81280000D01*
X200591101Y-81208932D01*
X200809608Y-81029608D01*
X200988932Y-80811101D01*
X201122182Y-80561808D01*
X201204236Y-80291309D01*
X201231943Y-80010000D01*
X201204236Y-79728691D01*
X201122182Y-79458192D01*
X200988932Y-79208899D01*
X200809608Y-78990392D01*
X200591101Y-78811068D01*
X200458142Y-78740000D01*
X200591101Y-78668932D01*
X200809608Y-78489608D01*
X200988932Y-78271101D01*
X201122182Y-78021808D01*
X201204236Y-77751309D01*
X201231943Y-77470000D01*
X201204236Y-77188691D01*
X201122182Y-76918192D01*
X200988932Y-76668899D01*
X200809608Y-76450392D01*
X200591101Y-76271068D01*
X200463259Y-76202735D01*
X200692839Y-76052601D01*
X200894500Y-75854895D01*
X201053715Y-75621646D01*
X201164367Y-75361818D01*
X201181904Y-75279039D01*
X201059915Y-75057000D01*
X199517000Y-75057000D01*
X199517000Y-75077000D01*
X199263000Y-75077000D01*
X199263000Y-75057000D01*
X199243000Y-75057000D01*
X199243000Y-74803000D01*
X199263000Y-74803000D01*
X199263000Y-74783000D01*
X199517000Y-74783000D01*
X199517000Y-74803000D01*
X201059915Y-74803000D01*
X201181904Y-74580961D01*
X201164367Y-74498182D01*
X201053715Y-74238354D01*
X200894500Y-74005105D01*
X200692839Y-73807399D01*
X200463259Y-73657265D01*
X200591101Y-73588932D01*
X200809608Y-73409608D01*
X200988932Y-73191101D01*
X201122182Y-72941808D01*
X201204236Y-72671309D01*
X201231943Y-72390000D01*
X201218023Y-72248665D01*
X209385000Y-72248665D01*
X209385000Y-72531335D01*
X209440147Y-72808574D01*
X209548320Y-73069727D01*
X209705363Y-73304759D01*
X209905241Y-73504637D01*
X210140273Y-73661680D01*
X210401426Y-73769853D01*
X210678665Y-73825000D01*
X210961335Y-73825000D01*
X211238574Y-73769853D01*
X211499727Y-73661680D01*
X211734759Y-73504637D01*
X211934637Y-73304759D01*
X212091680Y-73069727D01*
X212199853Y-72808574D01*
X212255000Y-72531335D01*
X212255000Y-72248665D01*
X212199853Y-71971426D01*
X212091680Y-71710273D01*
X211934637Y-71475241D01*
X211734759Y-71275363D01*
X211499727Y-71118320D01*
X211238574Y-71010147D01*
X210961335Y-70955000D01*
X210678665Y-70955000D01*
X210401426Y-71010147D01*
X210140273Y-71118320D01*
X209905241Y-71275363D01*
X209705363Y-71475241D01*
X209548320Y-71710273D01*
X209440147Y-71971426D01*
X209385000Y-72248665D01*
X201218023Y-72248665D01*
X201204236Y-72108691D01*
X201122182Y-71838192D01*
X200988932Y-71588899D01*
X200809608Y-71370392D01*
X200591101Y-71191068D01*
X200458142Y-71120000D01*
X200591101Y-71048932D01*
X200809608Y-70869608D01*
X200988932Y-70651101D01*
X201122182Y-70401808D01*
X201204236Y-70131309D01*
X201231943Y-69850000D01*
X201204236Y-69568691D01*
X201122182Y-69298192D01*
X200988932Y-69048899D01*
X200809608Y-68830392D01*
X200591101Y-68651068D01*
X200341808Y-68517818D01*
X200071309Y-68435764D01*
X199860492Y-68415000D01*
X198919508Y-68415000D01*
X198708691Y-68435764D01*
X198438192Y-68517818D01*
X198188899Y-68651068D01*
X197970392Y-68830392D01*
X197791068Y-69048899D01*
X197657818Y-69298192D01*
X197575764Y-69568691D01*
X197548057Y-69850000D01*
X197575764Y-70131309D01*
X197657818Y-70401808D01*
X197791068Y-70651101D01*
X197970392Y-70869608D01*
X198188899Y-71048932D01*
X198321858Y-71120000D01*
X198188899Y-71191068D01*
X197970392Y-71370392D01*
X197791068Y-71588899D01*
X197657818Y-71838192D01*
X197575764Y-72108691D01*
X197548057Y-72390000D01*
X197575764Y-72671309D01*
X197657818Y-72941808D01*
X197791068Y-73191101D01*
X197970392Y-73409608D01*
X198188899Y-73588932D01*
X198316741Y-73657265D01*
X198087161Y-73807399D01*
X197885500Y-74005105D01*
X197726285Y-74238354D01*
X197615633Y-74498182D01*
X197600966Y-74567415D01*
X196278518Y-73244968D01*
X196253859Y-73214921D01*
X196133962Y-73116524D01*
X195997173Y-73043408D01*
X195848747Y-72998384D01*
X195733063Y-72986990D01*
X195733053Y-72986990D01*
X195694390Y-72983182D01*
X195655727Y-72986990D01*
X193478032Y-72986990D01*
X193502182Y-72941808D01*
X193584236Y-72671309D01*
X193611943Y-72390000D01*
X193584236Y-72108691D01*
X193502182Y-71838192D01*
X193368932Y-71588899D01*
X193189608Y-71370392D01*
X193076518Y-71277581D01*
X193094482Y-71275812D01*
X193214180Y-71239502D01*
X193324494Y-71180537D01*
X193421185Y-71101185D01*
X193500537Y-71004494D01*
X193559502Y-70894180D01*
X193595812Y-70774482D01*
X193608072Y-70650000D01*
X193608072Y-69125479D01*
X194382152Y-68351400D01*
X209620265Y-68351400D01*
X209705363Y-68478759D01*
X209905241Y-68678637D01*
X210140273Y-68835680D01*
X210401426Y-68943853D01*
X210678665Y-68999000D01*
X210961335Y-68999000D01*
X211111567Y-68969117D01*
X221411877Y-79269428D01*
X221436531Y-79299469D01*
X221495465Y-79347835D01*
X221556427Y-79397866D01*
X221693217Y-79470982D01*
X221841642Y-79516006D01*
X221855503Y-79517371D01*
X221957327Y-79527400D01*
X221957334Y-79527400D01*
X221996000Y-79531208D01*
X222034665Y-79527400D01*
X232420130Y-79527400D01*
X232526525Y-79686632D01*
X232733368Y-79893475D01*
X232907760Y-80010000D01*
X232733368Y-80126525D01*
X232526525Y-80333368D01*
X232364010Y-80576589D01*
X232252068Y-80846842D01*
X232195000Y-81133740D01*
X232195000Y-81426260D01*
X232252068Y-81713158D01*
X232364010Y-81983411D01*
X232526525Y-82226632D01*
X232733368Y-82433475D01*
X232892601Y-82539871D01*
X232892600Y-88208265D01*
X232765241Y-88293363D01*
X232565363Y-88493241D01*
X232408320Y-88728273D01*
X232300147Y-88989426D01*
X232245000Y-89266665D01*
X232245000Y-89549335D01*
X232300147Y-89826574D01*
X232408320Y-90087727D01*
X232565363Y-90322759D01*
X232765241Y-90522637D01*
X233000273Y-90679680D01*
X233261426Y-90787853D01*
X233538665Y-90843000D01*
X233821335Y-90843000D01*
X234098201Y-90787927D01*
X234098201Y-94988247D01*
X233971566Y-95114883D01*
X233821335Y-95085000D01*
X233538665Y-95085000D01*
X233261426Y-95140147D01*
X233000273Y-95248320D01*
X232765241Y-95405363D01*
X232565363Y-95605241D01*
X232408320Y-95840273D01*
X232300147Y-96101426D01*
X232245000Y-96378665D01*
X232245000Y-96661335D01*
X232300147Y-96938574D01*
X232408320Y-97199727D01*
X232565363Y-97434759D01*
X232765241Y-97634637D01*
X233000273Y-97791680D01*
X233261426Y-97899853D01*
X233538665Y-97955000D01*
X233821335Y-97955000D01*
X234098574Y-97899853D01*
X234359727Y-97791680D01*
X234594759Y-97634637D01*
X234794637Y-97434759D01*
X234951680Y-97199727D01*
X235059853Y-96938574D01*
X235115000Y-96661335D01*
X235115000Y-96378665D01*
X235085117Y-96228434D01*
X235415035Y-95898517D01*
X235445070Y-95873868D01*
X235543467Y-95753971D01*
X235616583Y-95617182D01*
X235661607Y-95468756D01*
X235673001Y-95353072D01*
X235673001Y-95353063D01*
X235676809Y-95314400D01*
X235673001Y-95275737D01*
X235673001Y-79984263D01*
X235676809Y-79945600D01*
X235673001Y-79906937D01*
X235673001Y-79906928D01*
X235661607Y-79791244D01*
X235616583Y-79642818D01*
X235543467Y-79506029D01*
X235445070Y-79386132D01*
X235415034Y-79361482D01*
X235127639Y-79074087D01*
X235165000Y-78886260D01*
X235165000Y-78593740D01*
X235107932Y-78306842D01*
X234995990Y-78036589D01*
X234833475Y-77793368D01*
X234701620Y-77661513D01*
X234774180Y-77639502D01*
X234884494Y-77580537D01*
X234981185Y-77501185D01*
X235060537Y-77404494D01*
X235119502Y-77294180D01*
X235155812Y-77174482D01*
X235168072Y-77050000D01*
X235168072Y-75350000D01*
X235155812Y-75225518D01*
X235119502Y-75105820D01*
X235060537Y-74995506D01*
X234981185Y-74898815D01*
X234884494Y-74819463D01*
X234774180Y-74760498D01*
X234654482Y-74724188D01*
X234530000Y-74711928D01*
X232830000Y-74711928D01*
X232705518Y-74724188D01*
X232585820Y-74760498D01*
X232475506Y-74819463D01*
X232378815Y-74898815D01*
X232299463Y-74995506D01*
X232240498Y-75105820D01*
X232204188Y-75225518D01*
X232191928Y-75350000D01*
X232191928Y-77050000D01*
X232204188Y-77174482D01*
X232240498Y-77294180D01*
X232299463Y-77404494D01*
X232378815Y-77501185D01*
X232475506Y-77580537D01*
X232585820Y-77639502D01*
X232658380Y-77661513D01*
X232526525Y-77793368D01*
X232420130Y-77952600D01*
X222322151Y-77952600D01*
X212225117Y-67855567D01*
X212255000Y-67705335D01*
X212255000Y-67422665D01*
X219545000Y-67422665D01*
X219545000Y-67705335D01*
X219600147Y-67982574D01*
X219708320Y-68243727D01*
X219865363Y-68478759D01*
X220065241Y-68678637D01*
X220300273Y-68835680D01*
X220561426Y-68943853D01*
X220838665Y-68999000D01*
X221121335Y-68999000D01*
X221398574Y-68943853D01*
X221659727Y-68835680D01*
X221894759Y-68678637D01*
X222094637Y-68478759D01*
X222251680Y-68243727D01*
X222359853Y-67982574D01*
X222415000Y-67705335D01*
X222415000Y-67422665D01*
X222359853Y-67145426D01*
X222251680Y-66884273D01*
X222094637Y-66649241D01*
X221894759Y-66449363D01*
X221659727Y-66292320D01*
X221398574Y-66184147D01*
X221121335Y-66129000D01*
X220838665Y-66129000D01*
X220561426Y-66184147D01*
X220300273Y-66292320D01*
X220065241Y-66449363D01*
X219865363Y-66649241D01*
X219708320Y-66884273D01*
X219600147Y-67145426D01*
X219545000Y-67422665D01*
X212255000Y-67422665D01*
X212199853Y-67145426D01*
X212091680Y-66884273D01*
X211934637Y-66649241D01*
X211734759Y-66449363D01*
X211607400Y-66364265D01*
X211607400Y-63429735D01*
X211734759Y-63344637D01*
X211934637Y-63144759D01*
X212091680Y-62909727D01*
X212199853Y-62648574D01*
X212255000Y-62371335D01*
X212255000Y-62088665D01*
X215735000Y-62088665D01*
X215735000Y-62371335D01*
X215790147Y-62648574D01*
X215898320Y-62909727D01*
X216055363Y-63144759D01*
X216255241Y-63344637D01*
X216490273Y-63501680D01*
X216751426Y-63609853D01*
X217028665Y-63665000D01*
X217311335Y-63665000D01*
X217588574Y-63609853D01*
X217849727Y-63501680D01*
X218084759Y-63344637D01*
X218284637Y-63144759D01*
X218441680Y-62909727D01*
X218549853Y-62648574D01*
X218605000Y-62371335D01*
X218605000Y-62088665D01*
X225895000Y-62088665D01*
X225895000Y-62371335D01*
X225950147Y-62648574D01*
X226058320Y-62909727D01*
X226215363Y-63144759D01*
X226415241Y-63344637D01*
X226650273Y-63501680D01*
X226911426Y-63609853D01*
X227188665Y-63665000D01*
X227471335Y-63665000D01*
X227748574Y-63609853D01*
X228009727Y-63501680D01*
X228244759Y-63344637D01*
X228444637Y-63144759D01*
X228601680Y-62909727D01*
X228709853Y-62648574D01*
X228765000Y-62371335D01*
X228765000Y-62088665D01*
X228709853Y-61811426D01*
X228601680Y-61550273D01*
X228445739Y-61316890D01*
X232238524Y-61316890D01*
X232283175Y-61464099D01*
X232408359Y-61726920D01*
X232582412Y-61960269D01*
X232798645Y-62155178D01*
X233048748Y-62304157D01*
X233323109Y-62401481D01*
X233553000Y-62280814D01*
X233553000Y-61087000D01*
X233807000Y-61087000D01*
X233807000Y-62280814D01*
X234036891Y-62401481D01*
X234311252Y-62304157D01*
X234561355Y-62155178D01*
X234777588Y-61960269D01*
X234951641Y-61726920D01*
X235076825Y-61464099D01*
X235121476Y-61316890D01*
X235000155Y-61087000D01*
X233807000Y-61087000D01*
X233553000Y-61087000D01*
X232359845Y-61087000D01*
X232238524Y-61316890D01*
X228445739Y-61316890D01*
X228444637Y-61315241D01*
X228244759Y-61115363D01*
X228009727Y-60958320D01*
X227748574Y-60850147D01*
X227471335Y-60795000D01*
X227188665Y-60795000D01*
X226911426Y-60850147D01*
X226650273Y-60958320D01*
X226415241Y-61115363D01*
X226215363Y-61315241D01*
X226058320Y-61550273D01*
X225950147Y-61811426D01*
X225895000Y-62088665D01*
X218605000Y-62088665D01*
X218549853Y-61811426D01*
X218441680Y-61550273D01*
X218284637Y-61315241D01*
X218084759Y-61115363D01*
X217849727Y-60958320D01*
X217588574Y-60850147D01*
X217311335Y-60795000D01*
X217028665Y-60795000D01*
X216751426Y-60850147D01*
X216490273Y-60958320D01*
X216255241Y-61115363D01*
X216055363Y-61315241D01*
X215898320Y-61550273D01*
X215790147Y-61811426D01*
X215735000Y-62088665D01*
X212255000Y-62088665D01*
X212199853Y-61811426D01*
X212091680Y-61550273D01*
X211934637Y-61315241D01*
X211734759Y-61115363D01*
X211499727Y-60958320D01*
X211238574Y-60850147D01*
X210961335Y-60795000D01*
X210678665Y-60795000D01*
X210401426Y-60850147D01*
X210140273Y-60958320D01*
X209905241Y-61115363D01*
X209705363Y-61315241D01*
X209548320Y-61550273D01*
X209440147Y-61811426D01*
X209385000Y-62088665D01*
X209385000Y-62371335D01*
X209440147Y-62648574D01*
X209548320Y-62909727D01*
X209705363Y-63144759D01*
X209905241Y-63344637D01*
X210032600Y-63429736D01*
X210032601Y-66364264D01*
X209905241Y-66449363D01*
X209705363Y-66649241D01*
X209620265Y-66776600D01*
X194094662Y-66776600D01*
X194055999Y-66772792D01*
X194017336Y-66776600D01*
X194017327Y-66776600D01*
X193901643Y-66787994D01*
X193753217Y-66833018D01*
X193616428Y-66906134D01*
X193616426Y-66906135D01*
X193616427Y-66906135D01*
X193526569Y-66979879D01*
X193526567Y-66979881D01*
X193496531Y-67004531D01*
X193471881Y-67034567D01*
X192094521Y-68411928D01*
X190570000Y-68411928D01*
X190445518Y-68424188D01*
X190325820Y-68460498D01*
X190215506Y-68519463D01*
X190118815Y-68598815D01*
X190039463Y-68695506D01*
X189980498Y-68805820D01*
X189944188Y-68925518D01*
X189931928Y-69050000D01*
X189931928Y-70650000D01*
X189944188Y-70774482D01*
X189980498Y-70894180D01*
X190039463Y-71004494D01*
X190118815Y-71101185D01*
X190215506Y-71180537D01*
X190325820Y-71239502D01*
X190445518Y-71275812D01*
X190463482Y-71277581D01*
X190350392Y-71370392D01*
X190171068Y-71588899D01*
X190163745Y-71602600D01*
X189264051Y-71602600D01*
X188887100Y-71225650D01*
X188887100Y-62088665D01*
X199225000Y-62088665D01*
X199225000Y-62371335D01*
X199280147Y-62648574D01*
X199388320Y-62909727D01*
X199545363Y-63144759D01*
X199745241Y-63344637D01*
X199980273Y-63501680D01*
X200241426Y-63609853D01*
X200518665Y-63665000D01*
X200801335Y-63665000D01*
X201078574Y-63609853D01*
X201339727Y-63501680D01*
X201574759Y-63344637D01*
X201774637Y-63144759D01*
X201931680Y-62909727D01*
X202039853Y-62648574D01*
X202095000Y-62371335D01*
X202095000Y-62088665D01*
X202039853Y-61811426D01*
X201931680Y-61550273D01*
X201774637Y-61315241D01*
X201574759Y-61115363D01*
X201339727Y-60958320D01*
X201078574Y-60850147D01*
X200801335Y-60795000D01*
X200518665Y-60795000D01*
X200241426Y-60850147D01*
X199980273Y-60958320D01*
X199745241Y-61115363D01*
X199545363Y-61315241D01*
X199388320Y-61550273D01*
X199280147Y-61811426D01*
X199225000Y-62088665D01*
X188887100Y-62088665D01*
X188887100Y-61552552D01*
X189962254Y-60477400D01*
X190570265Y-60477400D01*
X190655363Y-60604759D01*
X190855241Y-60804637D01*
X191090273Y-60961680D01*
X191351426Y-61069853D01*
X191628665Y-61125000D01*
X191911335Y-61125000D01*
X192188574Y-61069853D01*
X192449727Y-60961680D01*
X192684759Y-60804637D01*
X192884637Y-60604759D01*
X192969735Y-60477400D01*
X214591337Y-60477400D01*
X214630000Y-60481208D01*
X214668663Y-60477400D01*
X214668673Y-60477400D01*
X214784357Y-60466006D01*
X214932783Y-60420982D01*
X215069572Y-60347866D01*
X215189469Y-60249469D01*
X215214128Y-60219422D01*
X216656660Y-58776890D01*
X232238524Y-58776890D01*
X232283175Y-58924099D01*
X232408359Y-59186920D01*
X232582412Y-59420269D01*
X232798645Y-59615178D01*
X232924255Y-59690000D01*
X232798645Y-59764822D01*
X232582412Y-59959731D01*
X232408359Y-60193080D01*
X232283175Y-60455901D01*
X232238524Y-60603110D01*
X232359845Y-60833000D01*
X233553000Y-60833000D01*
X233553000Y-58547000D01*
X233807000Y-58547000D01*
X233807000Y-60833000D01*
X235000155Y-60833000D01*
X235121476Y-60603110D01*
X235076825Y-60455901D01*
X234951641Y-60193080D01*
X234777588Y-59959731D01*
X234561355Y-59764822D01*
X234435745Y-59690000D01*
X234561355Y-59615178D01*
X234777588Y-59420269D01*
X234951641Y-59186920D01*
X235076825Y-58924099D01*
X235121476Y-58776890D01*
X235000155Y-58547000D01*
X233807000Y-58547000D01*
X233553000Y-58547000D01*
X232359845Y-58547000D01*
X232238524Y-58776890D01*
X216656660Y-58776890D01*
X218703550Y-56730000D01*
X232191928Y-56730000D01*
X232204188Y-56854482D01*
X232240498Y-56974180D01*
X232299463Y-57084494D01*
X232378815Y-57181185D01*
X232475506Y-57260537D01*
X232585820Y-57319502D01*
X232666466Y-57343966D01*
X232582412Y-57419731D01*
X232408359Y-57653080D01*
X232283175Y-57915901D01*
X232238524Y-58063110D01*
X232359845Y-58293000D01*
X233553000Y-58293000D01*
X233553000Y-56007000D01*
X233807000Y-56007000D01*
X233807000Y-58293000D01*
X235000155Y-58293000D01*
X235121476Y-58063110D01*
X235076825Y-57915901D01*
X234951641Y-57653080D01*
X234777588Y-57419731D01*
X234693534Y-57343966D01*
X234774180Y-57319502D01*
X234884494Y-57260537D01*
X234981185Y-57181185D01*
X235060537Y-57084494D01*
X235119502Y-56974180D01*
X235155812Y-56854482D01*
X235168072Y-56730000D01*
X235165000Y-56165750D01*
X235006250Y-56007000D01*
X233807000Y-56007000D01*
X233553000Y-56007000D01*
X232353750Y-56007000D01*
X232195000Y-56165750D01*
X232191928Y-56730000D01*
X218703550Y-56730000D01*
X219418434Y-56015117D01*
X219568665Y-56045000D01*
X219851335Y-56045000D01*
X220128574Y-55989853D01*
X220389727Y-55881680D01*
X220624759Y-55724637D01*
X220746694Y-55602702D01*
X229056903Y-55602702D01*
X229128486Y-55846671D01*
X229383996Y-55967571D01*
X229658184Y-56036300D01*
X229940512Y-56050217D01*
X230220130Y-56008787D01*
X230486292Y-55913603D01*
X230611514Y-55846671D01*
X230683097Y-55602702D01*
X229870000Y-54789605D01*
X229056903Y-55602702D01*
X220746694Y-55602702D01*
X220824637Y-55524759D01*
X220981680Y-55289727D01*
X221089853Y-55028574D01*
X221145000Y-54751335D01*
X221145000Y-54680512D01*
X228429783Y-54680512D01*
X228471213Y-54960130D01*
X228566397Y-55226292D01*
X228633329Y-55351514D01*
X228877298Y-55423097D01*
X229690395Y-54610000D01*
X230049605Y-54610000D01*
X230862702Y-55423097D01*
X231106671Y-55351514D01*
X231227571Y-55096004D01*
X231244115Y-55030000D01*
X232191928Y-55030000D01*
X232195000Y-55594250D01*
X232353750Y-55753000D01*
X233553000Y-55753000D01*
X233553000Y-54553750D01*
X233807000Y-54553750D01*
X233807000Y-55753000D01*
X235006250Y-55753000D01*
X235165000Y-55594250D01*
X235168072Y-55030000D01*
X235155812Y-54905518D01*
X235119502Y-54785820D01*
X235060537Y-54675506D01*
X234981185Y-54578815D01*
X234884494Y-54499463D01*
X234774180Y-54440498D01*
X234654482Y-54404188D01*
X234530000Y-54391928D01*
X233965750Y-54395000D01*
X233807000Y-54553750D01*
X233553000Y-54553750D01*
X233394250Y-54395000D01*
X232830000Y-54391928D01*
X232705518Y-54404188D01*
X232585820Y-54440498D01*
X232475506Y-54499463D01*
X232378815Y-54578815D01*
X232299463Y-54675506D01*
X232240498Y-54785820D01*
X232204188Y-54905518D01*
X232191928Y-55030000D01*
X231244115Y-55030000D01*
X231296300Y-54821816D01*
X231310217Y-54539488D01*
X231268787Y-54259870D01*
X231173603Y-53993708D01*
X231106671Y-53868486D01*
X230862702Y-53796903D01*
X230049605Y-54610000D01*
X229690395Y-54610000D01*
X228877298Y-53796903D01*
X228633329Y-53868486D01*
X228512429Y-54123996D01*
X228443700Y-54398184D01*
X228429783Y-54680512D01*
X221145000Y-54680512D01*
X221145000Y-54468665D01*
X221089853Y-54191426D01*
X220981680Y-53930273D01*
X220824637Y-53695241D01*
X220746694Y-53617298D01*
X229056903Y-53617298D01*
X229870000Y-54430395D01*
X230683097Y-53617298D01*
X230611514Y-53373329D01*
X230356004Y-53252429D01*
X230081816Y-53183700D01*
X229799488Y-53169783D01*
X229519870Y-53211213D01*
X229253708Y-53306397D01*
X229128486Y-53373329D01*
X229056903Y-53617298D01*
X220746694Y-53617298D01*
X220624759Y-53495363D01*
X220389727Y-53338320D01*
X220128574Y-53230147D01*
X219851335Y-53175000D01*
X219568665Y-53175000D01*
X219291426Y-53230147D01*
X219030273Y-53338320D01*
X218795241Y-53495363D01*
X218595363Y-53695241D01*
X218438320Y-53930273D01*
X218330147Y-54191426D01*
X218275000Y-54468665D01*
X218275000Y-54751335D01*
X218304883Y-54901566D01*
X214303850Y-58902600D01*
X192969735Y-58902600D01*
X192884637Y-58775241D01*
X192684759Y-58575363D01*
X192449727Y-58418320D01*
X192188574Y-58310147D01*
X191911335Y-58255000D01*
X191628665Y-58255000D01*
X191351426Y-58310147D01*
X191090273Y-58418320D01*
X190855241Y-58575363D01*
X190655363Y-58775241D01*
X190570265Y-58902600D01*
X189674767Y-58902600D01*
X189636102Y-58898792D01*
X189597437Y-58902600D01*
X189597429Y-58902600D01*
X189481745Y-58913994D01*
X189333319Y-58959018D01*
X189196530Y-59032134D01*
X189106672Y-59105878D01*
X189106669Y-59105881D01*
X189076633Y-59130531D01*
X189051983Y-59160567D01*
X187570277Y-60642275D01*
X187540231Y-60666933D01*
X187441834Y-60786831D01*
X187368718Y-60923620D01*
X187323694Y-61072046D01*
X187312300Y-61187730D01*
X187312300Y-61187739D01*
X187308492Y-61226402D01*
X187312300Y-61265065D01*
X187312301Y-71513127D01*
X187308492Y-71551800D01*
X187323695Y-71706157D01*
X187368718Y-71854582D01*
X187441835Y-71991372D01*
X187540232Y-72111269D01*
X187570273Y-72135923D01*
X188353777Y-72919427D01*
X188378431Y-72949469D01*
X188424150Y-72986990D01*
X182304542Y-72986990D01*
X176240072Y-66922522D01*
X176240072Y-66460000D01*
X182661928Y-66460000D01*
X182661928Y-68160000D01*
X182674188Y-68284482D01*
X182710498Y-68404180D01*
X182769463Y-68514494D01*
X182848815Y-68611185D01*
X182945506Y-68690537D01*
X183055820Y-68749502D01*
X183175518Y-68785812D01*
X183300000Y-68798072D01*
X185000000Y-68798072D01*
X185124482Y-68785812D01*
X185244180Y-68749502D01*
X185354494Y-68690537D01*
X185451185Y-68611185D01*
X185530537Y-68514494D01*
X185589502Y-68404180D01*
X185625812Y-68284482D01*
X185638072Y-68160000D01*
X185638072Y-66460000D01*
X185625812Y-66335518D01*
X185589502Y-66215820D01*
X185530537Y-66105506D01*
X185451185Y-66008815D01*
X185354494Y-65929463D01*
X185244180Y-65870498D01*
X185124482Y-65834188D01*
X185000000Y-65821928D01*
X183300000Y-65821928D01*
X183175518Y-65834188D01*
X183055820Y-65870498D01*
X182945506Y-65929463D01*
X182848815Y-66008815D01*
X182769463Y-66105506D01*
X182710498Y-66215820D01*
X182674188Y-66335518D01*
X182661928Y-66460000D01*
X176240072Y-66460000D01*
X176240072Y-65698000D01*
X176227812Y-65573518D01*
X176191502Y-65453820D01*
X176132537Y-65343506D01*
X176053185Y-65246815D01*
X175956494Y-65167463D01*
X175846180Y-65108498D01*
X175726482Y-65072188D01*
X175602000Y-65059928D01*
X174377479Y-65059928D01*
X165938128Y-56620578D01*
X165913469Y-56590531D01*
X165793572Y-56492134D01*
X165656783Y-56419018D01*
X165508357Y-56373994D01*
X165392673Y-56362600D01*
X165392663Y-56362600D01*
X165354000Y-56358792D01*
X165315337Y-56362600D01*
X163759735Y-56362600D01*
X163674637Y-56235241D01*
X163474759Y-56035363D01*
X163239727Y-55878320D01*
X162978574Y-55770147D01*
X162701335Y-55715000D01*
X162418665Y-55715000D01*
X162141426Y-55770147D01*
X161880273Y-55878320D01*
X161645241Y-56035363D01*
X161445363Y-56235241D01*
X161288320Y-56470273D01*
X161180147Y-56731426D01*
X161125000Y-57008665D01*
X161125000Y-57291335D01*
X161180147Y-57568574D01*
X161288320Y-57829727D01*
X161445363Y-58064759D01*
X161645241Y-58264637D01*
X161880273Y-58421680D01*
X162141426Y-58529853D01*
X162418665Y-58585000D01*
X162701335Y-58585000D01*
X162978574Y-58529853D01*
X163239727Y-58421680D01*
X163474759Y-58264637D01*
X163674637Y-58064759D01*
X163759735Y-57937400D01*
X165027850Y-57937400D01*
X173263928Y-66173479D01*
X173263928Y-67398000D01*
X173276188Y-67522482D01*
X173312498Y-67642180D01*
X173371463Y-67752494D01*
X173450815Y-67849185D01*
X173547506Y-67928537D01*
X173657820Y-67987502D01*
X173777518Y-68023812D01*
X173902000Y-68036072D01*
X175126522Y-68036072D01*
X181233048Y-74142600D01*
X176748072Y-74142600D01*
X176748072Y-74080000D01*
X176735812Y-73955518D01*
X176699502Y-73835820D01*
X176640537Y-73725506D01*
X176561185Y-73628815D01*
X176464494Y-73549463D01*
X176354180Y-73490498D01*
X176234482Y-73454188D01*
X176110000Y-73441928D01*
X174885480Y-73441928D01*
X169494128Y-68050578D01*
X169469469Y-68020531D01*
X169349572Y-67922134D01*
X169212783Y-67849018D01*
X169064357Y-67803994D01*
X168948673Y-67792600D01*
X168948663Y-67792600D01*
X168910000Y-67788792D01*
X168871337Y-67792600D01*
X167569735Y-67792600D01*
X167484637Y-67665241D01*
X167284759Y-67465363D01*
X167049727Y-67308320D01*
X166788574Y-67200147D01*
X166511335Y-67145000D01*
X166228665Y-67145000D01*
X166078434Y-67174883D01*
X164414128Y-65510578D01*
X164389469Y-65480531D01*
X164269572Y-65382134D01*
X164132783Y-65309018D01*
X163984357Y-65263994D01*
X163868673Y-65252600D01*
X163868663Y-65252600D01*
X163830000Y-65248792D01*
X163791337Y-65252600D01*
X162489735Y-65252600D01*
X162404637Y-65125241D01*
X162204759Y-64925363D01*
X161969727Y-64768320D01*
X161708574Y-64660147D01*
X161431335Y-64605000D01*
X161148665Y-64605000D01*
X160871426Y-64660147D01*
X160610273Y-64768320D01*
X160375241Y-64925363D01*
X160175363Y-65125241D01*
X160018320Y-65360273D01*
X159910147Y-65621426D01*
X159855000Y-65898665D01*
X159855000Y-66181335D01*
X159910147Y-66458574D01*
X160018320Y-66719727D01*
X160175363Y-66954759D01*
X160375241Y-67154637D01*
X160610273Y-67311680D01*
X160871426Y-67419853D01*
X161148665Y-67475000D01*
X161431335Y-67475000D01*
X161708574Y-67419853D01*
X161969727Y-67311680D01*
X162204759Y-67154637D01*
X162404637Y-66954759D01*
X162489735Y-66827400D01*
X163503850Y-66827400D01*
X164964883Y-68288434D01*
X164935000Y-68438665D01*
X164935000Y-68721335D01*
X164990147Y-68998574D01*
X165098320Y-69259727D01*
X165255363Y-69494759D01*
X165455241Y-69694637D01*
X165690273Y-69851680D01*
X165951426Y-69959853D01*
X166228665Y-70015000D01*
X166511335Y-70015000D01*
X166788574Y-69959853D01*
X167049727Y-69851680D01*
X167284759Y-69694637D01*
X167484637Y-69494759D01*
X167569735Y-69367400D01*
X168583850Y-69367400D01*
X173771928Y-74555480D01*
X173771928Y-75780000D01*
X173784188Y-75904482D01*
X173820498Y-76024180D01*
X173879463Y-76134494D01*
X173958815Y-76231185D01*
X174055506Y-76310537D01*
X174165820Y-76369502D01*
X174285518Y-76405812D01*
X174410000Y-76418072D01*
X176110000Y-76418072D01*
X176234482Y-76405812D01*
X176354180Y-76369502D01*
X176464494Y-76310537D01*
X176561185Y-76231185D01*
X176640537Y-76134494D01*
X176699502Y-76024180D01*
X176735812Y-75904482D01*
X176748072Y-75780000D01*
X176748072Y-75717400D01*
X188903850Y-75717400D01*
X190061094Y-76874645D01*
X190037818Y-76918192D01*
X189955764Y-77188691D01*
X189928057Y-77470000D01*
X189955764Y-77751309D01*
X190037818Y-78021808D01*
X190171068Y-78271101D01*
X190350392Y-78489608D01*
X190568899Y-78668932D01*
X190701858Y-78740000D01*
X190568899Y-78811068D01*
X190350392Y-78990392D01*
X190171068Y-79208899D01*
X190163745Y-79222600D01*
X172144451Y-79222600D01*
X159156400Y-66234550D01*
X159156400Y-56282350D01*
X161755852Y-53682900D01*
X161959889Y-53682900D01*
X161976426Y-53699437D01*
X162145944Y-53812705D01*
X162334302Y-53890726D01*
X162534261Y-53930500D01*
X162738139Y-53930500D01*
X162938098Y-53890726D01*
X163126456Y-53812705D01*
X163295974Y-53699437D01*
X163440137Y-53555274D01*
X163553405Y-53385756D01*
X163631426Y-53197398D01*
X163671200Y-52997439D01*
X163671200Y-52793561D01*
X163631426Y-52593602D01*
X163553405Y-52405244D01*
X163440137Y-52235726D01*
X163295974Y-52091563D01*
X163126456Y-51978295D01*
X162938098Y-51900274D01*
X162738139Y-51860500D01*
X162534261Y-51860500D01*
X162334302Y-51900274D01*
X162145944Y-51978295D01*
X161976426Y-52091563D01*
X161959889Y-52108100D01*
X161468362Y-52108100D01*
X161429699Y-52104292D01*
X161391036Y-52108100D01*
X161391027Y-52108100D01*
X161275343Y-52119494D01*
X161126917Y-52164518D01*
X160990128Y-52237634D01*
X160990126Y-52237635D01*
X160990127Y-52237635D01*
X160900269Y-52311379D01*
X160900267Y-52311381D01*
X160870231Y-52336031D01*
X160845581Y-52366067D01*
X157839573Y-55372077D01*
X157809532Y-55396731D01*
X157784879Y-55426771D01*
X157711135Y-55516628D01*
X157638018Y-55653418D01*
X157592995Y-55801843D01*
X157577792Y-55956200D01*
X157581601Y-55994873D01*
X157581600Y-57741849D01*
X157581600Y-57741850D01*
X157581601Y-66548573D01*
X157592995Y-66664257D01*
X157638019Y-66812683D01*
X157657137Y-66848450D01*
X157672007Y-66897471D01*
X157745124Y-67034261D01*
X157818868Y-67124118D01*
X161703984Y-71009234D01*
X161431335Y-70955000D01*
X161148665Y-70955000D01*
X160871426Y-71010147D01*
X160610273Y-71118320D01*
X160375241Y-71275363D01*
X160175363Y-71475241D01*
X160018320Y-71710273D01*
X159910147Y-71971426D01*
X159855000Y-72248665D01*
X159855000Y-72531335D01*
X159910147Y-72808574D01*
X160018320Y-73069727D01*
X160175363Y-73304759D01*
X160353527Y-73482923D01*
X158506183Y-75330267D01*
X158476142Y-75354921D01*
X158390374Y-75459429D01*
X158377745Y-75474818D01*
X158304628Y-75611608D01*
X158259605Y-75760033D01*
X158244402Y-75914390D01*
X158248211Y-75953063D01*
X158248210Y-78622125D01*
X158161309Y-78595764D01*
X157950492Y-78575000D01*
X157009508Y-78575000D01*
X156798691Y-78595764D01*
X156528192Y-78677818D01*
X156278899Y-78811068D01*
X156060392Y-78990392D01*
X155881068Y-79208899D01*
X155747818Y-79458192D01*
X155665764Y-79728691D01*
X155638057Y-80010000D01*
X155665764Y-80291309D01*
X155747818Y-80561808D01*
X155881068Y-80811101D01*
X156060392Y-81029608D01*
X156278899Y-81208932D01*
X156411858Y-81280000D01*
X156278899Y-81351068D01*
X156060392Y-81530392D01*
X155881068Y-81748899D01*
X155747818Y-81998192D01*
X155665764Y-82268691D01*
X155638057Y-82550000D01*
X155665764Y-82831309D01*
X155747818Y-83101808D01*
X155881068Y-83351101D01*
X156060392Y-83569608D01*
X156278899Y-83748932D01*
X156411858Y-83820000D01*
X156278899Y-83891068D01*
X156060392Y-84070392D01*
X155881068Y-84288899D01*
X155873745Y-84302600D01*
X152726152Y-84302600D01*
X151999735Y-83576185D01*
X151999731Y-83576180D01*
X151975079Y-83546141D01*
X151945038Y-83521487D01*
X151568906Y-83145355D01*
X151592182Y-83101808D01*
X151674236Y-82831309D01*
X151701943Y-82550000D01*
X151674236Y-82268691D01*
X151592182Y-81998192D01*
X151458932Y-81748899D01*
X151279608Y-81530392D01*
X151166518Y-81437581D01*
X151184482Y-81435812D01*
X151304180Y-81399502D01*
X151414494Y-81340537D01*
X151511185Y-81261185D01*
X151590537Y-81164494D01*
X151649502Y-81054180D01*
X151685812Y-80934482D01*
X151698072Y-80810000D01*
X151695000Y-80295750D01*
X151536250Y-80137000D01*
X149987000Y-80137000D01*
X149987000Y-80157000D01*
X149733000Y-80157000D01*
X149733000Y-80137000D01*
X149713000Y-80137000D01*
X149713000Y-79883000D01*
X149733000Y-79883000D01*
X149733000Y-78733750D01*
X149987000Y-78733750D01*
X149987000Y-79883000D01*
X151536250Y-79883000D01*
X151695000Y-79724250D01*
X151698072Y-79210000D01*
X151685812Y-79085518D01*
X151649502Y-78965820D01*
X151590537Y-78855506D01*
X151511185Y-78758815D01*
X151414494Y-78679463D01*
X151304180Y-78620498D01*
X151184482Y-78584188D01*
X151060000Y-78571928D01*
X150145750Y-78575000D01*
X149987000Y-78733750D01*
X149733000Y-78733750D01*
X149574250Y-78575000D01*
X148660000Y-78571928D01*
X148535518Y-78584188D01*
X148415820Y-78620498D01*
X148305506Y-78679463D01*
X148208815Y-78758815D01*
X148129463Y-78855506D01*
X148070498Y-78965820D01*
X148034188Y-79085518D01*
X148021928Y-79210000D01*
X148024262Y-79600711D01*
X144965551Y-76542000D01*
X145323928Y-76542000D01*
X145336188Y-76666482D01*
X145372498Y-76786180D01*
X145431463Y-76896494D01*
X145510815Y-76993185D01*
X145607506Y-77072537D01*
X145717820Y-77131502D01*
X145837518Y-77167812D01*
X145962000Y-77180072D01*
X146526250Y-77177000D01*
X146685000Y-77018250D01*
X146685000Y-75819000D01*
X146939000Y-75819000D01*
X146939000Y-77018250D01*
X147097750Y-77177000D01*
X147662000Y-77180072D01*
X147786482Y-77167812D01*
X147906180Y-77131502D01*
X148016494Y-77072537D01*
X148113185Y-76993185D01*
X148192537Y-76896494D01*
X148251502Y-76786180D01*
X148287812Y-76666482D01*
X148300072Y-76542000D01*
X148297000Y-75977750D01*
X148138250Y-75819000D01*
X146939000Y-75819000D01*
X146685000Y-75819000D01*
X145485750Y-75819000D01*
X145327000Y-75977750D01*
X145323928Y-76542000D01*
X144965551Y-76542000D01*
X143265551Y-74842000D01*
X145323928Y-74842000D01*
X145327000Y-75406250D01*
X145485750Y-75565000D01*
X146685000Y-75565000D01*
X146685000Y-74365750D01*
X146939000Y-74365750D01*
X146939000Y-75565000D01*
X148138250Y-75565000D01*
X148297000Y-75406250D01*
X148300072Y-74842000D01*
X148287812Y-74717518D01*
X148251502Y-74597820D01*
X148192537Y-74487506D01*
X148113185Y-74390815D01*
X148016494Y-74311463D01*
X147906180Y-74252498D01*
X147786482Y-74216188D01*
X147662000Y-74203928D01*
X147097750Y-74207000D01*
X146939000Y-74365750D01*
X146685000Y-74365750D01*
X146526250Y-74207000D01*
X145962000Y-74203928D01*
X145837518Y-74216188D01*
X145717820Y-74252498D01*
X145607506Y-74311463D01*
X145510815Y-74390815D01*
X145431463Y-74487506D01*
X145372498Y-74597820D01*
X145336188Y-74717518D01*
X145323928Y-74842000D01*
X143265551Y-74842000D01*
X143027400Y-74603850D01*
X143027400Y-73469467D01*
X143091013Y-73426962D01*
X143276962Y-73241013D01*
X143423061Y-73022359D01*
X143523696Y-72779405D01*
X143575000Y-72521486D01*
X143575000Y-72258514D01*
X143573041Y-72248665D01*
X149695000Y-72248665D01*
X149695000Y-72531335D01*
X149750147Y-72808574D01*
X149858320Y-73069727D01*
X150015363Y-73304759D01*
X150215241Y-73504637D01*
X150450273Y-73661680D01*
X150711426Y-73769853D01*
X150988665Y-73825000D01*
X151271335Y-73825000D01*
X151548574Y-73769853D01*
X151809727Y-73661680D01*
X152044759Y-73504637D01*
X152244637Y-73304759D01*
X152401680Y-73069727D01*
X152509853Y-72808574D01*
X152565000Y-72531335D01*
X152565000Y-72248665D01*
X152509853Y-71971426D01*
X152401680Y-71710273D01*
X152244637Y-71475241D01*
X152044759Y-71275363D01*
X151809727Y-71118320D01*
X151548574Y-71010147D01*
X151271335Y-70955000D01*
X150988665Y-70955000D01*
X150711426Y-71010147D01*
X150450273Y-71118320D01*
X150215241Y-71275363D01*
X150015363Y-71475241D01*
X149858320Y-71710273D01*
X149750147Y-71971426D01*
X149695000Y-72248665D01*
X143573041Y-72248665D01*
X143523696Y-72000595D01*
X143423061Y-71757641D01*
X143276962Y-71538987D01*
X143091013Y-71353038D01*
X142872359Y-71206939D01*
X142629405Y-71106304D01*
X142371486Y-71055000D01*
X142108514Y-71055000D01*
X141850595Y-71106304D01*
X141607641Y-71206939D01*
X141388987Y-71353038D01*
X141203038Y-71538987D01*
X141056939Y-71757641D01*
X140956304Y-72000595D01*
X140905000Y-72258514D01*
X140905000Y-72521486D01*
X140956304Y-72779405D01*
X141056939Y-73022359D01*
X141203038Y-73241013D01*
X141388987Y-73426962D01*
X141452600Y-73469467D01*
X141452601Y-74891327D01*
X141448792Y-74930000D01*
X141463995Y-75084357D01*
X141509018Y-75232782D01*
X141571673Y-75350000D01*
X141582135Y-75369572D01*
X141680532Y-75489469D01*
X141710571Y-75514121D01*
X148151094Y-81954646D01*
X148127818Y-81998192D01*
X148070546Y-82186995D01*
X144094128Y-78210578D01*
X144069469Y-78180531D01*
X143949572Y-78082134D01*
X143812783Y-78009018D01*
X143664357Y-77963994D01*
X143548673Y-77952600D01*
X143548663Y-77952600D01*
X143510000Y-77948792D01*
X143471337Y-77952600D01*
X142169735Y-77952600D01*
X142084637Y-77825241D01*
X141884759Y-77625363D01*
X141649727Y-77468320D01*
X141388574Y-77360147D01*
X141111335Y-77305000D01*
X140828665Y-77305000D01*
X140551426Y-77360147D01*
X140290273Y-77468320D01*
X140055241Y-77625363D01*
X139855363Y-77825241D01*
X139698320Y-78060273D01*
X139590147Y-78321426D01*
X139535000Y-78598665D01*
X132245000Y-78598665D01*
X132189853Y-78321426D01*
X132081680Y-78060273D01*
X131924637Y-77825241D01*
X131724759Y-77625363D01*
X131597400Y-77540265D01*
X131597400Y-70176150D01*
X134130220Y-67643330D01*
X140947278Y-67643330D01*
X141037147Y-67889123D01*
X141173241Y-68112660D01*
X141350330Y-68305351D01*
X141561608Y-68459792D01*
X141798956Y-68570047D01*
X141906671Y-68602716D01*
X142113000Y-68479374D01*
X142113000Y-67437000D01*
X142367000Y-67437000D01*
X142367000Y-68479374D01*
X142573329Y-68602716D01*
X142681044Y-68570047D01*
X142918392Y-68459792D01*
X143129670Y-68305351D01*
X143306759Y-68112660D01*
X143442853Y-67889123D01*
X143532722Y-67643330D01*
X143410201Y-67437000D01*
X142367000Y-67437000D01*
X142113000Y-67437000D01*
X141069799Y-67437000D01*
X140947278Y-67643330D01*
X134130220Y-67643330D01*
X134796880Y-66976670D01*
X140947278Y-66976670D01*
X141069799Y-67183000D01*
X142113000Y-67183000D01*
X142113000Y-66140626D01*
X142367000Y-66140626D01*
X142367000Y-67183000D01*
X143410201Y-67183000D01*
X143532722Y-66976670D01*
X143442853Y-66730877D01*
X143306759Y-66507340D01*
X143129670Y-66314649D01*
X142918392Y-66160208D01*
X142681044Y-66049953D01*
X142573329Y-66017284D01*
X142367000Y-66140626D01*
X142113000Y-66140626D01*
X141906671Y-66017284D01*
X141798956Y-66049953D01*
X141561608Y-66160208D01*
X141350330Y-66314649D01*
X141173241Y-66507340D01*
X141037147Y-66730877D01*
X140947278Y-66976670D01*
X134796880Y-66976670D01*
X135874885Y-65898665D01*
X149695000Y-65898665D01*
X149695000Y-66181335D01*
X149750147Y-66458574D01*
X149858320Y-66719727D01*
X150015363Y-66954759D01*
X150215241Y-67154637D01*
X150450273Y-67311680D01*
X150711426Y-67419853D01*
X150988665Y-67475000D01*
X151271335Y-67475000D01*
X151548574Y-67419853D01*
X151809727Y-67311680D01*
X152044759Y-67154637D01*
X152244637Y-66954759D01*
X152401680Y-66719727D01*
X152509853Y-66458574D01*
X152565000Y-66181335D01*
X152565000Y-65898665D01*
X152509853Y-65621426D01*
X152401680Y-65360273D01*
X152244637Y-65125241D01*
X152044759Y-64925363D01*
X151809727Y-64768320D01*
X151548574Y-64660147D01*
X151271335Y-64605000D01*
X150988665Y-64605000D01*
X150711426Y-64660147D01*
X150450273Y-64768320D01*
X150215241Y-64925363D01*
X150015363Y-65125241D01*
X149858320Y-65360273D01*
X149750147Y-65621426D01*
X149695000Y-65898665D01*
X135874885Y-65898665D01*
X137924510Y-63849040D01*
X145928091Y-63849040D01*
X146022930Y-64113881D01*
X146167615Y-64355131D01*
X146356586Y-64563519D01*
X146582580Y-64731037D01*
X146836913Y-64851246D01*
X146970961Y-64891904D01*
X147193000Y-64769915D01*
X147193000Y-63627000D01*
X147447000Y-63627000D01*
X147447000Y-64769915D01*
X147669039Y-64891904D01*
X147803087Y-64851246D01*
X148057420Y-64731037D01*
X148283414Y-64563519D01*
X148472385Y-64355131D01*
X148617070Y-64113881D01*
X148711909Y-63849040D01*
X148590624Y-63627000D01*
X147447000Y-63627000D01*
X147193000Y-63627000D01*
X146049376Y-63627000D01*
X145928091Y-63849040D01*
X137924510Y-63849040D01*
X138622590Y-63150960D01*
X145928091Y-63150960D01*
X146049376Y-63373000D01*
X147193000Y-63373000D01*
X147193000Y-62230085D01*
X147447000Y-62230085D01*
X147447000Y-63373000D01*
X148590624Y-63373000D01*
X148711909Y-63150960D01*
X148617070Y-62886119D01*
X148472385Y-62644869D01*
X148283414Y-62436481D01*
X148057420Y-62268963D01*
X147803087Y-62148754D01*
X147669039Y-62108096D01*
X147447000Y-62230085D01*
X147193000Y-62230085D01*
X146970961Y-62108096D01*
X146836913Y-62148754D01*
X146582580Y-62268963D01*
X146356586Y-62436481D01*
X146167615Y-62644869D01*
X146022930Y-62886119D01*
X145928091Y-63150960D01*
X138622590Y-63150960D01*
X147028435Y-54745117D01*
X147178665Y-54775000D01*
X147461335Y-54775000D01*
X147738574Y-54719853D01*
X147999727Y-54611680D01*
X148234759Y-54454637D01*
X148434637Y-54254759D01*
X148591680Y-54019727D01*
X148699853Y-53758574D01*
X148755000Y-53481335D01*
X148755000Y-53198665D01*
X148725117Y-53048435D01*
X151456152Y-50317400D01*
X153680130Y-50317400D01*
X153786525Y-50476632D01*
X153993368Y-50683475D01*
X154236589Y-50845990D01*
X154506842Y-50957932D01*
X154793740Y-51015000D01*
X155086260Y-51015000D01*
X155373158Y-50957932D01*
X155643411Y-50845990D01*
X155886632Y-50683475D01*
X156093475Y-50476632D01*
X156255990Y-50233411D01*
X156367932Y-49963158D01*
X156425000Y-49676260D01*
X156425000Y-49383740D01*
X156367932Y-49096842D01*
X156255990Y-48826589D01*
X156093475Y-48583368D01*
X155961620Y-48451513D01*
X156034180Y-48429502D01*
X156144494Y-48370537D01*
X156241185Y-48291185D01*
X156320537Y-48194494D01*
X156379502Y-48084180D01*
X156415812Y-47964482D01*
X156428072Y-47840000D01*
X156428072Y-47777400D01*
X161360265Y-47777400D01*
X161445363Y-47904759D01*
X161645241Y-48104637D01*
X161880273Y-48261680D01*
X162141426Y-48369853D01*
X162418665Y-48425000D01*
X162701335Y-48425000D01*
X162978574Y-48369853D01*
X163239727Y-48261680D01*
X163474759Y-48104637D01*
X163674637Y-47904759D01*
X163759735Y-47777400D01*
X168980265Y-47777400D01*
X169065363Y-47904759D01*
X169265241Y-48104637D01*
X169392600Y-48189736D01*
X169392601Y-50761327D01*
X169388792Y-50800000D01*
X169403995Y-50954357D01*
X169449018Y-51102782D01*
X169449019Y-51102783D01*
X169522135Y-51239572D01*
X169620532Y-51359469D01*
X169650573Y-51384123D01*
X172584883Y-54318435D01*
X172555000Y-54468665D01*
X172555000Y-54751335D01*
X172610147Y-55028574D01*
X172718320Y-55289727D01*
X172875363Y-55524759D01*
X173075241Y-55724637D01*
X173310273Y-55881680D01*
X173571426Y-55989853D01*
X173848665Y-56045000D01*
X174131335Y-56045000D01*
X174408574Y-55989853D01*
X174669727Y-55881680D01*
X174904759Y-55724637D01*
X175104637Y-55524759D01*
X175261680Y-55289727D01*
X175369853Y-55028574D01*
X175425000Y-54751335D01*
X175425000Y-54468665D01*
X182715000Y-54468665D01*
X182715000Y-54751335D01*
X182770147Y-55028574D01*
X182878320Y-55289727D01*
X183035363Y-55524759D01*
X183235241Y-55724637D01*
X183470273Y-55881680D01*
X183731426Y-55989853D01*
X184008665Y-56045000D01*
X184291335Y-56045000D01*
X184568574Y-55989853D01*
X184829727Y-55881680D01*
X185064759Y-55724637D01*
X185264637Y-55524759D01*
X185421680Y-55289727D01*
X185529853Y-55028574D01*
X185585000Y-54751335D01*
X185585000Y-54468665D01*
X185529853Y-54191426D01*
X185421680Y-53930273D01*
X185264637Y-53695241D01*
X185064759Y-53495363D01*
X184829727Y-53338320D01*
X184568574Y-53230147D01*
X184291335Y-53175000D01*
X184008665Y-53175000D01*
X183731426Y-53230147D01*
X183470273Y-53338320D01*
X183235241Y-53495363D01*
X183035363Y-53695241D01*
X182878320Y-53930273D01*
X182770147Y-54191426D01*
X182715000Y-54468665D01*
X175425000Y-54468665D01*
X175369853Y-54191426D01*
X175261680Y-53930273D01*
X175104637Y-53695241D01*
X174904759Y-53495363D01*
X174669727Y-53338320D01*
X174408574Y-53230147D01*
X174131335Y-53175000D01*
X173848665Y-53175000D01*
X173698435Y-53204883D01*
X170967400Y-50473850D01*
X170967400Y-48189735D01*
X171094759Y-48104637D01*
X171294637Y-47904759D01*
X171451680Y-47669727D01*
X171559853Y-47408574D01*
X171615000Y-47131335D01*
X171615000Y-46848665D01*
X178905000Y-46848665D01*
X178905000Y-47131335D01*
X178960147Y-47408574D01*
X179068320Y-47669727D01*
X179225363Y-47904759D01*
X179425241Y-48104637D01*
X179660273Y-48261680D01*
X179921426Y-48369853D01*
X180198665Y-48425000D01*
X180481335Y-48425000D01*
X180758574Y-48369853D01*
X181019727Y-48261680D01*
X181254759Y-48104637D01*
X181454637Y-47904759D01*
X181539735Y-47777400D01*
X182841337Y-47777400D01*
X182880000Y-47781208D01*
X182918663Y-47777400D01*
X182918673Y-47777400D01*
X183034357Y-47766006D01*
X183182783Y-47720982D01*
X183319572Y-47647866D01*
X183439469Y-47549469D01*
X183464128Y-47519422D01*
X185045479Y-45938072D01*
X186270000Y-45938072D01*
X186394482Y-45925812D01*
X186514180Y-45889502D01*
X186624494Y-45830537D01*
X186721185Y-45751185D01*
X186800537Y-45654494D01*
X186859502Y-45544180D01*
X186895812Y-45424482D01*
X186908072Y-45300000D01*
X186908072Y-45237400D01*
X188903850Y-45237400D01*
X190982600Y-47316152D01*
X190982601Y-48330264D01*
X190855241Y-48415363D01*
X190655363Y-48615241D01*
X190498320Y-48850273D01*
X190390147Y-49111426D01*
X190335000Y-49388665D01*
X190335000Y-49671335D01*
X190390147Y-49948574D01*
X190498320Y-50209727D01*
X190655363Y-50444759D01*
X190855241Y-50644637D01*
X191090273Y-50801680D01*
X191351426Y-50909853D01*
X191628665Y-50965000D01*
X191911335Y-50965000D01*
X192188574Y-50909853D01*
X192449727Y-50801680D01*
X192684759Y-50644637D01*
X192884637Y-50444759D01*
X193041680Y-50209727D01*
X193149853Y-49948574D01*
X193158688Y-49904155D01*
X227135450Y-49904155D01*
X227531634Y-50424550D01*
X228246612Y-50814748D01*
X229023976Y-51057964D01*
X229833853Y-51144851D01*
X230645118Y-51072069D01*
X231426597Y-50842415D01*
X232148256Y-50464715D01*
X232208366Y-50424550D01*
X232604550Y-49904155D01*
X229870000Y-47169605D01*
X227135450Y-49904155D01*
X193158688Y-49904155D01*
X193205000Y-49671335D01*
X193205000Y-49388665D01*
X193149853Y-49111426D01*
X193041680Y-48850273D01*
X192884637Y-48615241D01*
X192684759Y-48415363D01*
X192557400Y-48330265D01*
X192557400Y-47028662D01*
X192561208Y-46989999D01*
X192557648Y-46953853D01*
X225715149Y-46953853D01*
X225787931Y-47765118D01*
X226017585Y-48546597D01*
X226395285Y-49268256D01*
X226435450Y-49328366D01*
X226955845Y-49724550D01*
X229690395Y-46990000D01*
X230049605Y-46990000D01*
X232784155Y-49724550D01*
X233304550Y-49328366D01*
X233694748Y-48613388D01*
X233937964Y-47836024D01*
X234024851Y-47026147D01*
X233952069Y-46214882D01*
X233722415Y-45433403D01*
X233344715Y-44711744D01*
X233304550Y-44651634D01*
X232784155Y-44255450D01*
X230049605Y-46990000D01*
X229690395Y-46990000D01*
X226955845Y-44255450D01*
X226435450Y-44651634D01*
X226045252Y-45366612D01*
X225802036Y-46143976D01*
X225715149Y-46953853D01*
X192557648Y-46953853D01*
X192557400Y-46951336D01*
X192557400Y-46951327D01*
X192546006Y-46835643D01*
X192500982Y-46687217D01*
X192427866Y-46550428D01*
X192375007Y-46486019D01*
X192354121Y-46460569D01*
X192354119Y-46460567D01*
X192329469Y-46430531D01*
X192299434Y-46405882D01*
X189969396Y-44075845D01*
X227135450Y-44075845D01*
X229870000Y-46810395D01*
X232604550Y-44075845D01*
X232208366Y-43555450D01*
X231493388Y-43165252D01*
X230716024Y-42922036D01*
X229906147Y-42835149D01*
X229094882Y-42907931D01*
X228313403Y-43137585D01*
X227591744Y-43515285D01*
X227531634Y-43555450D01*
X227135450Y-44075845D01*
X189969396Y-44075845D01*
X189814128Y-43920578D01*
X189789469Y-43890531D01*
X189669572Y-43792134D01*
X189532783Y-43719018D01*
X189384357Y-43673994D01*
X189268673Y-43662600D01*
X189268663Y-43662600D01*
X189230000Y-43658792D01*
X189191337Y-43662600D01*
X186908072Y-43662600D01*
X186908072Y-43600000D01*
X186895812Y-43475518D01*
X186859502Y-43355820D01*
X186800537Y-43245506D01*
X186721185Y-43148815D01*
X186624494Y-43069463D01*
X186514180Y-43010498D01*
X186394482Y-42974188D01*
X186270000Y-42961928D01*
X184570000Y-42961928D01*
X184445518Y-42974188D01*
X184325820Y-43010498D01*
X184215506Y-43069463D01*
X184118815Y-43148815D01*
X184039463Y-43245506D01*
X183980498Y-43355820D01*
X183944188Y-43475518D01*
X183931928Y-43600000D01*
X183931928Y-44824521D01*
X182553850Y-46202600D01*
X181539735Y-46202600D01*
X181454637Y-46075241D01*
X181254759Y-45875363D01*
X181019727Y-45718320D01*
X180758574Y-45610147D01*
X180481335Y-45555000D01*
X180198665Y-45555000D01*
X179921426Y-45610147D01*
X179660273Y-45718320D01*
X179425241Y-45875363D01*
X179225363Y-46075241D01*
X179068320Y-46310273D01*
X178960147Y-46571426D01*
X178905000Y-46848665D01*
X171615000Y-46848665D01*
X171559853Y-46571426D01*
X171451680Y-46310273D01*
X171294637Y-46075241D01*
X171094759Y-45875363D01*
X170859727Y-45718320D01*
X170598574Y-45610147D01*
X170321335Y-45555000D01*
X170038665Y-45555000D01*
X169761426Y-45610147D01*
X169500273Y-45718320D01*
X169265241Y-45875363D01*
X169065363Y-46075241D01*
X168980265Y-46202600D01*
X163759735Y-46202600D01*
X163674637Y-46075241D01*
X163474759Y-45875363D01*
X163239727Y-45718320D01*
X162978574Y-45610147D01*
X162701335Y-45555000D01*
X162418665Y-45555000D01*
X162141426Y-45610147D01*
X161880273Y-45718320D01*
X161645241Y-45875363D01*
X161445363Y-46075241D01*
X161360265Y-46202600D01*
X156428072Y-46202600D01*
X156428072Y-46140000D01*
X156415812Y-46015518D01*
X156379502Y-45895820D01*
X156320537Y-45785506D01*
X156241185Y-45688815D01*
X156144494Y-45609463D01*
X156034180Y-45550498D01*
X155914482Y-45514188D01*
X155790000Y-45501928D01*
X154090000Y-45501928D01*
X153965518Y-45514188D01*
X153845820Y-45550498D01*
X153735506Y-45609463D01*
X153638815Y-45688815D01*
X153559463Y-45785506D01*
X153500498Y-45895820D01*
X153464188Y-46015518D01*
X153451928Y-46140000D01*
X153451928Y-46202600D01*
X148808072Y-46202600D01*
X148808072Y-46140000D01*
X148795812Y-46015518D01*
X148759502Y-45895820D01*
X148700537Y-45785506D01*
X148621185Y-45688815D01*
X148524494Y-45609463D01*
X148414180Y-45550498D01*
X148294482Y-45514188D01*
X148170000Y-45501928D01*
X146470000Y-45501928D01*
X146345518Y-45514188D01*
X146225820Y-45550498D01*
X146115506Y-45609463D01*
X146018815Y-45688815D01*
X145939463Y-45785506D01*
X145880498Y-45895820D01*
X145844188Y-46015518D01*
X145831928Y-46140000D01*
X145831928Y-47840000D01*
X145844188Y-47964482D01*
X145880498Y-48084180D01*
X145939463Y-48194494D01*
X146018815Y-48291185D01*
X146115506Y-48370537D01*
X146225820Y-48429502D01*
X146345518Y-48465812D01*
X146470000Y-48478072D01*
X148170000Y-48478072D01*
X148294482Y-48465812D01*
X148414180Y-48429502D01*
X148524494Y-48370537D01*
X148621185Y-48291185D01*
X148700537Y-48194494D01*
X148759502Y-48084180D01*
X148795812Y-47964482D01*
X148808072Y-47840000D01*
X148808072Y-47777400D01*
X153451928Y-47777400D01*
X153451928Y-47840000D01*
X153464188Y-47964482D01*
X153500498Y-48084180D01*
X153559463Y-48194494D01*
X153638815Y-48291185D01*
X153735506Y-48370537D01*
X153845820Y-48429502D01*
X153918380Y-48451513D01*
X153786525Y-48583368D01*
X153680130Y-48742600D01*
X151168665Y-48742600D01*
X151130000Y-48738792D01*
X151091335Y-48742600D01*
X151091327Y-48742600D01*
X150975643Y-48753994D01*
X150827217Y-48799018D01*
X150690428Y-48872134D01*
X150600570Y-48945878D01*
X150600567Y-48945881D01*
X150570531Y-48970531D01*
X150545881Y-49000567D01*
X147611565Y-51934883D01*
X147461335Y-51905000D01*
X147178665Y-51905000D01*
X146901426Y-51960147D01*
X146640273Y-52068320D01*
X146405241Y-52225363D01*
X146205363Y-52425241D01*
X146048320Y-52660273D01*
X145940147Y-52921426D01*
X145885000Y-53198665D01*
X145885000Y-53481335D01*
X145914883Y-53631565D01*
X130280578Y-69265872D01*
X130250531Y-69290531D01*
X130152134Y-69410429D01*
X130079018Y-69547218D01*
X130033994Y-69695644D01*
X130022600Y-69811328D01*
X130022600Y-69811337D01*
X130018792Y-69850000D01*
X130022600Y-69888663D01*
X130022601Y-77540264D01*
X129895241Y-77625363D01*
X129695363Y-77825241D01*
X129538320Y-78060273D01*
X129430147Y-78321426D01*
X129375000Y-78598665D01*
X126857650Y-78598665D01*
X126821800Y-74117460D01*
X126821800Y-49904155D01*
X130615450Y-49904155D01*
X131011634Y-50424550D01*
X131726612Y-50814748D01*
X132503976Y-51057964D01*
X133313853Y-51144851D01*
X134125118Y-51072069D01*
X134906597Y-50842415D01*
X135628256Y-50464715D01*
X135688366Y-50424550D01*
X136084550Y-49904155D01*
X133350000Y-47169605D01*
X130615450Y-49904155D01*
X126821800Y-49904155D01*
X126821800Y-46953853D01*
X129195149Y-46953853D01*
X129267931Y-47765118D01*
X129497585Y-48546597D01*
X129875285Y-49268256D01*
X129915450Y-49328366D01*
X130435845Y-49724550D01*
X133170395Y-46990000D01*
X133529605Y-46990000D01*
X136264155Y-49724550D01*
X136784550Y-49328366D01*
X137174748Y-48613388D01*
X137417964Y-47836024D01*
X137504851Y-47026147D01*
X137432069Y-46214882D01*
X137202415Y-45433403D01*
X136824715Y-44711744D01*
X136784550Y-44651634D01*
X136264155Y-44255450D01*
X133529605Y-46990000D01*
X133170395Y-46990000D01*
X130435845Y-44255450D01*
X129915450Y-44651634D01*
X129525252Y-45366612D01*
X129282036Y-46143976D01*
X129195149Y-46953853D01*
X126821800Y-46953853D01*
X126821800Y-44075845D01*
X130615450Y-44075845D01*
X133350000Y-46810395D01*
X136084550Y-44075845D01*
X135688366Y-43555450D01*
X134973388Y-43165252D01*
X134196024Y-42922036D01*
X133386147Y-42835149D01*
X132574882Y-42907931D01*
X131793403Y-43137585D01*
X131071744Y-43515285D01*
X131011634Y-43555450D01*
X130615450Y-44075845D01*
X126821800Y-44075845D01*
X126821800Y-41299851D01*
X236945202Y-41275000D01*
X238061901Y-41275000D01*
X238061900Y-111633866D01*
G37*
X238061900Y-111633866D02*
X132802606Y-112114502D01*
X127125787Y-112115783D01*
X127105615Y-109594155D01*
X130615450Y-109594155D01*
X131011634Y-110114550D01*
X131726612Y-110504748D01*
X132503976Y-110747964D01*
X133313853Y-110834851D01*
X134125118Y-110762069D01*
X134906597Y-110532415D01*
X135628256Y-110154715D01*
X135688366Y-110114550D01*
X136084550Y-109594155D01*
X133350000Y-106859605D01*
X130615450Y-109594155D01*
X127105615Y-109594155D01*
X127082012Y-106643853D01*
X129195149Y-106643853D01*
X129267931Y-107455118D01*
X129497585Y-108236597D01*
X129875285Y-108958256D01*
X129915450Y-109018366D01*
X130435845Y-109414550D01*
X133170395Y-106680000D01*
X133529605Y-106680000D01*
X136264155Y-109414550D01*
X136784550Y-109018366D01*
X137174748Y-108303388D01*
X137417964Y-107526024D01*
X137504851Y-106716147D01*
X137432069Y-105904882D01*
X137202415Y-105123403D01*
X136824715Y-104401744D01*
X136784550Y-104341634D01*
X136264155Y-103945450D01*
X133529605Y-106680000D01*
X133170395Y-106680000D01*
X130435845Y-103945450D01*
X129915450Y-104341634D01*
X129525252Y-105056612D01*
X129282036Y-105833976D01*
X129195149Y-106643853D01*
X127082012Y-106643853D01*
X127058989Y-103765845D01*
X130615450Y-103765845D01*
X133350000Y-106500395D01*
X136084550Y-103765845D01*
X135688366Y-103245450D01*
X134973388Y-102855252D01*
X134196024Y-102612036D01*
X133386147Y-102525149D01*
X132574882Y-102597931D01*
X131793403Y-102827585D01*
X131071744Y-103205285D01*
X131011634Y-103245450D01*
X130615450Y-103765845D01*
X127058989Y-103765845D01*
X126977912Y-93631269D01*
X130068336Y-93631269D01*
X130127797Y-93865037D01*
X130366242Y-93975934D01*
X130621740Y-94038183D01*
X130884473Y-94049390D01*
X131144344Y-94009125D01*
X131391366Y-93918935D01*
X131492203Y-93865037D01*
X131551664Y-93631269D01*
X130810000Y-92889605D01*
X130068336Y-93631269D01*
X126977912Y-93631269D01*
X126971137Y-92784473D01*
X129470610Y-92784473D01*
X129510875Y-93044344D01*
X129601065Y-93291366D01*
X129654963Y-93392203D01*
X129888731Y-93451664D01*
X130630395Y-92710000D01*
X130989605Y-92710000D01*
X131731269Y-93451664D01*
X131965037Y-93392203D01*
X132075934Y-93153758D01*
X132138183Y-92898260D01*
X132149390Y-92635527D01*
X132140557Y-92578514D01*
X134555000Y-92578514D01*
X134555000Y-92841486D01*
X134606304Y-93099405D01*
X134706939Y-93342359D01*
X134853038Y-93561013D01*
X135038987Y-93746962D01*
X135257641Y-93893061D01*
X135500595Y-93993696D01*
X135758514Y-94045000D01*
X136021486Y-94045000D01*
X136279405Y-93993696D01*
X136522359Y-93893061D01*
X136741013Y-93746962D01*
X136926962Y-93561013D01*
X137073061Y-93342359D01*
X137173696Y-93099405D01*
X137225000Y-92841486D01*
X137225000Y-92578514D01*
X137173696Y-92320595D01*
X137073061Y-92077641D01*
X136926962Y-91858987D01*
X136741013Y-91673038D01*
X136522359Y-91526939D01*
X136279405Y-91426304D01*
X136021486Y-91375000D01*
X135758514Y-91375000D01*
X135500595Y-91426304D01*
X135257641Y-91526939D01*
X135038987Y-91673038D01*
X134853038Y-91858987D01*
X134706939Y-92077641D01*
X134606304Y-92320595D01*
X134555000Y-92578514D01*
X132140557Y-92578514D01*
X132109125Y-92375656D01*
X132018935Y-92128634D01*
X131965037Y-92027797D01*
X131731269Y-91968336D01*
X130989605Y-92710000D01*
X130630395Y-92710000D01*
X129888731Y-91968336D01*
X129654963Y-92027797D01*
X129544066Y-92266242D01*
X129481817Y-92521740D01*
X129470610Y-92784473D01*
X126971137Y-92784473D01*
X126963172Y-91788731D01*
X130068336Y-91788731D01*
X130810000Y-92530395D01*
X131551664Y-91788731D01*
X131492203Y-91554963D01*
X131253758Y-91444066D01*
X130998260Y-91381817D01*
X130735527Y-91370610D01*
X130475656Y-91410875D01*
X130228634Y-91501065D01*
X130127797Y-91554963D01*
X130068336Y-91788731D01*
X126963172Y-91788731D01*
X126923102Y-86780000D01*
X134401928Y-86780000D01*
X134401928Y-88480000D01*
X134414188Y-88604482D01*
X134450498Y-88724180D01*
X134509463Y-88834494D01*
X134588815Y-88931185D01*
X134685506Y-89010537D01*
X134795820Y-89069502D01*
X134915518Y-89105812D01*
X135040000Y-89118072D01*
X136740000Y-89118072D01*
X136864482Y-89105812D01*
X136984180Y-89069502D01*
X137094494Y-89010537D01*
X137191185Y-88931185D01*
X137270537Y-88834494D01*
X137329502Y-88724180D01*
X137365812Y-88604482D01*
X137378072Y-88480000D01*
X137378072Y-86780000D01*
X137365812Y-86655518D01*
X137329502Y-86535820D01*
X137270537Y-86425506D01*
X137191185Y-86328815D01*
X137094494Y-86249463D01*
X136984180Y-86190498D01*
X136864482Y-86154188D01*
X136740000Y-86141928D01*
X135040000Y-86141928D01*
X134915518Y-86154188D01*
X134795820Y-86190498D01*
X134685506Y-86249463D01*
X134588815Y-86328815D01*
X134509463Y-86425506D01*
X134450498Y-86535820D01*
X134414188Y-86655518D01*
X134401928Y-86780000D01*
X126923102Y-86780000D01*
X126857650Y-78598665D01*
X129375000Y-78598665D01*
X129375000Y-78881335D01*
X129430147Y-79158574D01*
X129538320Y-79419727D01*
X129695363Y-79654759D01*
X129895241Y-79854637D01*
X130130273Y-80011680D01*
X130391426Y-80119853D01*
X130668665Y-80175000D01*
X130951335Y-80175000D01*
X131228574Y-80119853D01*
X131489727Y-80011680D01*
X131724759Y-79854637D01*
X131924637Y-79654759D01*
X132081680Y-79419727D01*
X132189853Y-79158574D01*
X132245000Y-78881335D01*
X132245000Y-78598665D01*
X139535000Y-78598665D01*
X139535000Y-78881335D01*
X139590147Y-79158574D01*
X139698320Y-79419727D01*
X139855363Y-79654759D01*
X140055241Y-79854637D01*
X140290273Y-80011680D01*
X140551426Y-80119853D01*
X140828665Y-80175000D01*
X141111335Y-80175000D01*
X141388574Y-80119853D01*
X141649727Y-80011680D01*
X141884759Y-79854637D01*
X142084637Y-79654759D01*
X142169735Y-79527400D01*
X143183850Y-79527400D01*
X148151094Y-84494646D01*
X148127818Y-84538192D01*
X148045764Y-84808691D01*
X148018057Y-85090000D01*
X148045764Y-85371309D01*
X148127818Y-85641808D01*
X148247560Y-85865830D01*
X140440573Y-93672818D01*
X140410532Y-93697472D01*
X140385879Y-93727512D01*
X140312135Y-93817369D01*
X140239018Y-93954159D01*
X140193995Y-94102584D01*
X140178792Y-94256941D01*
X140182601Y-94295614D01*
X140182600Y-95416479D01*
X140106238Y-95467503D01*
X139917503Y-95656238D01*
X139769215Y-95878167D01*
X139667072Y-96124761D01*
X139615000Y-96386544D01*
X139615000Y-96653456D01*
X139667072Y-96915239D01*
X139769215Y-97161833D01*
X139917503Y-97383762D01*
X140106238Y-97572497D01*
X140182600Y-97623521D01*
X140182601Y-99021327D01*
X140178792Y-99060000D01*
X140193995Y-99214357D01*
X140239018Y-99362782D01*
X140312135Y-99499572D01*
X140410532Y-99619469D01*
X140440573Y-99644123D01*
X150994883Y-110198434D01*
X150965000Y-110348665D01*
X150965000Y-110631335D01*
X151020147Y-110908574D01*
X151128320Y-111169727D01*
X151285363Y-111404759D01*
X151485241Y-111604637D01*
X151720273Y-111761680D01*
X151981426Y-111869853D01*
X152258665Y-111925000D01*
X152541335Y-111925000D01*
X152818574Y-111869853D01*
X153079727Y-111761680D01*
X153314759Y-111604637D01*
X153514637Y-111404759D01*
X153671680Y-111169727D01*
X153779853Y-110908574D01*
X153835000Y-110631335D01*
X153835000Y-110348665D01*
X153779853Y-110071426D01*
X153671680Y-109810273D01*
X153514637Y-109575241D01*
X153314759Y-109375363D01*
X153079727Y-109218320D01*
X152818574Y-109110147D01*
X152541335Y-109055000D01*
X152258665Y-109055000D01*
X152108434Y-109084883D01*
X151347706Y-108324155D01*
X228405450Y-108324155D01*
X228801634Y-108844550D01*
X229516612Y-109234748D01*
X230293976Y-109477964D01*
X231103853Y-109564851D01*
X231915118Y-109492069D01*
X232696597Y-109262415D01*
X233418256Y-108884715D01*
X233478366Y-108844550D01*
X233874550Y-108324155D01*
X231140000Y-105589605D01*
X228405450Y-108324155D01*
X151347706Y-108324155D01*
X148397404Y-105373853D01*
X226985149Y-105373853D01*
X227057931Y-106185118D01*
X227287585Y-106966597D01*
X227665285Y-107688256D01*
X227705450Y-107748366D01*
X228225845Y-108144550D01*
X230960395Y-105410000D01*
X231319605Y-105410000D01*
X234054155Y-108144550D01*
X234574550Y-107748366D01*
X234964748Y-107033388D01*
X235207964Y-106256024D01*
X235294851Y-105446147D01*
X235222069Y-104634882D01*
X234992415Y-103853403D01*
X234614715Y-103131744D01*
X234574550Y-103071634D01*
X234054155Y-102675450D01*
X231319605Y-105410000D01*
X230960395Y-105410000D01*
X228225845Y-102675450D01*
X227705450Y-103071634D01*
X227315252Y-103786612D01*
X227072036Y-104563976D01*
X226985149Y-105373853D01*
X148397404Y-105373853D01*
X143212216Y-100188665D01*
X150965000Y-100188665D01*
X150965000Y-100471335D01*
X151020147Y-100748574D01*
X151128320Y-101009727D01*
X151285363Y-101244759D01*
X151485241Y-101444637D01*
X151720273Y-101601680D01*
X151981426Y-101709853D01*
X152258665Y-101765000D01*
X152541335Y-101765000D01*
X152818574Y-101709853D01*
X153079727Y-101601680D01*
X153314759Y-101444637D01*
X153514637Y-101244759D01*
X153599735Y-101117400D01*
X156220130Y-101117400D01*
X156326525Y-101276632D01*
X156533368Y-101483475D01*
X156776589Y-101645990D01*
X157046842Y-101757932D01*
X157333740Y-101815000D01*
X157626260Y-101815000D01*
X157913158Y-101757932D01*
X158183411Y-101645990D01*
X158426632Y-101483475D01*
X158633475Y-101276632D01*
X158795990Y-101033411D01*
X158907932Y-100763158D01*
X158965000Y-100476260D01*
X158965000Y-100183740D01*
X158907932Y-99896842D01*
X158795990Y-99626589D01*
X158633475Y-99383368D01*
X158501620Y-99251513D01*
X158574180Y-99229502D01*
X158684494Y-99170537D01*
X158781185Y-99091185D01*
X158860537Y-98994494D01*
X158919502Y-98884180D01*
X158955812Y-98764482D01*
X158968072Y-98640000D01*
X158968072Y-96940000D01*
X158955812Y-96815518D01*
X158919502Y-96695820D01*
X158860537Y-96585506D01*
X158781185Y-96488815D01*
X158684494Y-96409463D01*
X158574180Y-96350498D01*
X158454482Y-96314188D01*
X158330000Y-96301928D01*
X156630000Y-96301928D01*
X156505518Y-96314188D01*
X156385820Y-96350498D01*
X156275506Y-96409463D01*
X156178815Y-96488815D01*
X156099463Y-96585506D01*
X156040498Y-96695820D01*
X156004188Y-96815518D01*
X155991928Y-96940000D01*
X155991928Y-98640000D01*
X156004188Y-98764482D01*
X156040498Y-98884180D01*
X156099463Y-98994494D01*
X156178815Y-99091185D01*
X156275506Y-99170537D01*
X156385820Y-99229502D01*
X156458380Y-99251513D01*
X156326525Y-99383368D01*
X156220130Y-99542600D01*
X153599735Y-99542600D01*
X153514637Y-99415241D01*
X153314759Y-99215363D01*
X153079727Y-99058320D01*
X152818574Y-98950147D01*
X152541335Y-98895000D01*
X152258665Y-98895000D01*
X151981426Y-98950147D01*
X151720273Y-99058320D01*
X151485241Y-99215363D01*
X151285363Y-99415241D01*
X151128320Y-99650273D01*
X151020147Y-99911426D01*
X150965000Y-100188665D01*
X143212216Y-100188665D01*
X141757400Y-98733850D01*
X141757400Y-97623520D01*
X141833762Y-97572497D01*
X142022497Y-97383762D01*
X142170785Y-97161833D01*
X142272928Y-96915239D01*
X142325000Y-96653456D01*
X142325000Y-96386544D01*
X144695000Y-96386544D01*
X144695000Y-96653456D01*
X144747072Y-96915239D01*
X144849215Y-97161833D01*
X144997503Y-97383762D01*
X145186238Y-97572497D01*
X145408167Y-97720785D01*
X145654761Y-97822928D01*
X145916544Y-97875000D01*
X146183456Y-97875000D01*
X146445239Y-97822928D01*
X146691833Y-97720785D01*
X146913762Y-97572497D01*
X147102497Y-97383762D01*
X147250785Y-97161833D01*
X147352928Y-96915239D01*
X147405000Y-96653456D01*
X147405000Y-96386544D01*
X147352928Y-96124761D01*
X147250785Y-95878167D01*
X147102497Y-95656238D01*
X146913762Y-95467503D01*
X146691833Y-95319215D01*
X146445239Y-95217072D01*
X146183456Y-95165000D01*
X145916544Y-95165000D01*
X145654761Y-95217072D01*
X145408167Y-95319215D01*
X145186238Y-95467503D01*
X144997503Y-95656238D01*
X144849215Y-95878167D01*
X144747072Y-96124761D01*
X144695000Y-96386544D01*
X142325000Y-96386544D01*
X142272928Y-96124761D01*
X142170785Y-95878167D01*
X142022497Y-95656238D01*
X141833762Y-95467503D01*
X141757400Y-95416480D01*
X141757400Y-94583091D01*
X142166951Y-94173540D01*
X142207072Y-94375239D01*
X142309215Y-94621833D01*
X142457503Y-94843762D01*
X142646238Y-95032497D01*
X142868167Y-95180785D01*
X143114761Y-95282928D01*
X143376544Y-95335000D01*
X143643456Y-95335000D01*
X143905239Y-95282928D01*
X144151833Y-95180785D01*
X144373762Y-95032497D01*
X144562497Y-94843762D01*
X144710785Y-94621833D01*
X144812928Y-94375239D01*
X144865000Y-94113456D01*
X144865000Y-93846544D01*
X144812928Y-93584761D01*
X144710785Y-93338167D01*
X144562497Y-93116238D01*
X144373762Y-92927503D01*
X144151833Y-92779215D01*
X143905239Y-92677072D01*
X143703540Y-92636951D01*
X148138569Y-88201922D01*
X148261068Y-88431101D01*
X148440392Y-88649608D01*
X148658899Y-88828932D01*
X148908192Y-88962182D01*
X149178691Y-89044236D01*
X149389508Y-89065000D01*
X150330492Y-89065000D01*
X150541309Y-89044236D01*
X150811808Y-88962182D01*
X151061101Y-88828932D01*
X151279608Y-88649608D01*
X151458932Y-88431101D01*
X151592182Y-88181808D01*
X151674236Y-87911309D01*
X151701943Y-87630000D01*
X151674236Y-87348691D01*
X151592182Y-87078192D01*
X151458932Y-86828899D01*
X151373288Y-86724541D01*
X151945044Y-86152787D01*
X151975079Y-86128138D01*
X152073476Y-86008241D01*
X152146592Y-85871452D01*
X152156451Y-85838950D01*
X152245643Y-85866006D01*
X152361327Y-85877400D01*
X152361335Y-85877400D01*
X152400000Y-85881208D01*
X152438665Y-85877400D01*
X155873745Y-85877400D01*
X155881068Y-85891101D01*
X156060392Y-86109608D01*
X156278899Y-86288932D01*
X156411858Y-86360000D01*
X156278899Y-86431068D01*
X156060392Y-86610392D01*
X155881068Y-86828899D01*
X155747818Y-87078192D01*
X155665764Y-87348691D01*
X155638057Y-87630000D01*
X155665764Y-87911309D01*
X155747818Y-88181808D01*
X155881068Y-88431101D01*
X156060392Y-88649608D01*
X156278899Y-88828932D01*
X156528192Y-88962182D01*
X156798691Y-89044236D01*
X157009508Y-89065000D01*
X157950492Y-89065000D01*
X158161309Y-89044236D01*
X158431808Y-88962182D01*
X158681101Y-88828932D01*
X158899608Y-88649608D01*
X159078932Y-88431101D01*
X159212182Y-88181808D01*
X159294236Y-87911309D01*
X159321943Y-87630000D01*
X159294236Y-87348691D01*
X159212182Y-87078192D01*
X159078932Y-86828899D01*
X158899608Y-86610392D01*
X158681101Y-86431068D01*
X158548142Y-86360000D01*
X158681101Y-86288932D01*
X158899608Y-86109608D01*
X159078932Y-85891101D01*
X159212182Y-85641808D01*
X159294236Y-85371309D01*
X159321943Y-85090000D01*
X159294236Y-84808691D01*
X159212182Y-84538192D01*
X159078932Y-84288899D01*
X158899608Y-84070392D01*
X158681101Y-83891068D01*
X158548142Y-83820000D01*
X158681101Y-83748932D01*
X158899608Y-83569608D01*
X159078932Y-83351101D01*
X159212182Y-83101808D01*
X159294236Y-82831309D01*
X159321943Y-82550000D01*
X159294236Y-82268691D01*
X159212182Y-81998192D01*
X159188906Y-81954645D01*
X159565039Y-81578512D01*
X159595079Y-81553859D01*
X159675538Y-81455820D01*
X159693476Y-81433963D01*
X159766592Y-81297173D01*
X159811616Y-81148747D01*
X159813094Y-81133740D01*
X159823010Y-81033063D01*
X159823010Y-81033055D01*
X159826818Y-80994390D01*
X159823010Y-80955725D01*
X159823010Y-76240540D01*
X161819429Y-74244122D01*
X161849469Y-74219469D01*
X161923798Y-74128899D01*
X161947866Y-74099573D01*
X162020982Y-73962783D01*
X162023186Y-73955518D01*
X162066006Y-73814357D01*
X162077400Y-73698673D01*
X162077400Y-73698663D01*
X162081208Y-73660000D01*
X162077400Y-73621337D01*
X162077400Y-73589735D01*
X162204759Y-73504637D01*
X162404637Y-73304759D01*
X162561680Y-73069727D01*
X162669853Y-72808574D01*
X162725000Y-72531335D01*
X162725000Y-72248665D01*
X162670766Y-71976016D01*
X171234177Y-80539428D01*
X171258831Y-80569469D01*
X171317765Y-80617835D01*
X171378727Y-80667866D01*
X171477256Y-80720531D01*
X171515517Y-80740982D01*
X171663943Y-80786006D01*
X171779627Y-80797400D01*
X171779635Y-80797400D01*
X171818300Y-80801208D01*
X171856965Y-80797400D01*
X190163745Y-80797400D01*
X190171068Y-80811101D01*
X190350392Y-81029608D01*
X190568899Y-81208932D01*
X190701858Y-81280000D01*
X190568899Y-81351068D01*
X190350392Y-81530392D01*
X190171068Y-81748899D01*
X190163745Y-81762600D01*
X178780072Y-81762600D01*
X178780072Y-81700000D01*
X178767812Y-81575518D01*
X178731502Y-81455820D01*
X178672537Y-81345506D01*
X178593185Y-81248815D01*
X178496494Y-81169463D01*
X178386180Y-81110498D01*
X178266482Y-81074188D01*
X178142000Y-81061928D01*
X176442000Y-81061928D01*
X176317518Y-81074188D01*
X176197820Y-81110498D01*
X176087506Y-81169463D01*
X175990815Y-81248815D01*
X175911463Y-81345506D01*
X175852498Y-81455820D01*
X175816188Y-81575518D01*
X175803928Y-81700000D01*
X175803928Y-81762600D01*
X167569735Y-81762600D01*
X167484637Y-81635241D01*
X167284759Y-81435363D01*
X167157400Y-81350265D01*
X167157400Y-79939735D01*
X167284759Y-79854637D01*
X167484637Y-79654759D01*
X167641680Y-79419727D01*
X167749853Y-79158574D01*
X167805000Y-78881335D01*
X167805000Y-78598665D01*
X167749853Y-78321426D01*
X167641680Y-78060273D01*
X167484637Y-77825241D01*
X167284759Y-77625363D01*
X167049727Y-77468320D01*
X166788574Y-77360147D01*
X166511335Y-77305000D01*
X166228665Y-77305000D01*
X165951426Y-77360147D01*
X165690273Y-77468320D01*
X165455241Y-77625363D01*
X165255363Y-77825241D01*
X165098320Y-78060273D01*
X164990147Y-78321426D01*
X164935000Y-78598665D01*
X164935000Y-78881335D01*
X164990147Y-79158574D01*
X165098320Y-79419727D01*
X165255363Y-79654759D01*
X165455241Y-79854637D01*
X165582600Y-79939736D01*
X165582601Y-81350264D01*
X165455241Y-81435363D01*
X165255363Y-81635241D01*
X165098320Y-81870273D01*
X164990147Y-82131426D01*
X164935000Y-82408665D01*
X164935000Y-82691335D01*
X164990147Y-82968574D01*
X165098320Y-83229727D01*
X165255363Y-83464759D01*
X165455241Y-83664637D01*
X165690273Y-83821680D01*
X165951426Y-83929853D01*
X166228665Y-83985000D01*
X166511335Y-83985000D01*
X166788574Y-83929853D01*
X167049727Y-83821680D01*
X167284759Y-83664637D01*
X167484637Y-83464759D01*
X167569735Y-83337400D01*
X175803928Y-83337400D01*
X175803928Y-83400000D01*
X175816188Y-83524482D01*
X175852498Y-83644180D01*
X175911463Y-83754494D01*
X175990815Y-83851185D01*
X176087506Y-83930537D01*
X176197820Y-83989502D01*
X176317518Y-84025812D01*
X176442000Y-84038072D01*
X178142000Y-84038072D01*
X178266482Y-84025812D01*
X178386180Y-83989502D01*
X178496494Y-83930537D01*
X178593185Y-83851185D01*
X178672537Y-83754494D01*
X178731502Y-83644180D01*
X178767812Y-83524482D01*
X178780072Y-83400000D01*
X178780072Y-83337400D01*
X190163745Y-83337400D01*
X190171068Y-83351101D01*
X190350392Y-83569608D01*
X190568899Y-83748932D01*
X190701858Y-83820000D01*
X190568899Y-83891068D01*
X190350392Y-84070392D01*
X190171068Y-84288899D01*
X190037818Y-84538192D01*
X189955764Y-84808691D01*
X189928057Y-85090000D01*
X189955764Y-85371309D01*
X190037818Y-85641808D01*
X190171068Y-85891101D01*
X190350392Y-86109608D01*
X190568899Y-86288932D01*
X190818192Y-86422182D01*
X191088691Y-86504236D01*
X191299508Y-86525000D01*
X192240492Y-86525000D01*
X192451309Y-86504236D01*
X192721808Y-86422182D01*
X192971101Y-86288932D01*
X193189608Y-86109608D01*
X193368932Y-85891101D01*
X193502182Y-85641808D01*
X193584236Y-85371309D01*
X193611943Y-85090000D01*
X193584236Y-84808691D01*
X193502182Y-84538192D01*
X193368932Y-84288899D01*
X193189608Y-84070392D01*
X192971101Y-83891068D01*
X192838142Y-83820000D01*
X192971101Y-83748932D01*
X193189608Y-83569608D01*
X193368932Y-83351101D01*
X193502182Y-83101808D01*
X193584236Y-82831309D01*
X193611943Y-82550000D01*
X193584236Y-82268691D01*
X193502182Y-81998192D01*
X193368932Y-81748899D01*
X193189608Y-81530392D01*
X192971101Y-81351068D01*
X192838142Y-81280000D01*
X192971101Y-81208932D01*
X193189608Y-81029608D01*
X193368932Y-80811101D01*
X193502182Y-80561808D01*
X193584236Y-80291309D01*
X193611943Y-80010000D01*
X193584236Y-79728691D01*
X193502182Y-79458192D01*
X193368932Y-79208899D01*
X193189608Y-78990392D01*
X192971101Y-78811068D01*
X192838142Y-78740000D01*
X192971101Y-78668932D01*
X193189608Y-78489608D01*
X193368932Y-78271101D01*
X193502182Y-78021808D01*
X193584236Y-77751309D01*
X193611943Y-77470000D01*
X193584236Y-77188691D01*
X193502182Y-76918192D01*
X193368932Y-76668899D01*
X193189608Y-76450392D01*
X192971101Y-76271068D01*
X192838142Y-76200000D01*
X192971101Y-76128932D01*
X193189608Y-75949608D01*
X193368932Y-75731101D01*
X193502182Y-75481808D01*
X193584236Y-75211309D01*
X193611943Y-74930000D01*
X193584236Y-74648691D01*
X193557875Y-74561790D01*
X195368240Y-74561790D01*
X197681094Y-76874645D01*
X197657818Y-76918192D01*
X197575764Y-77188691D01*
X197548057Y-77470000D01*
X197575764Y-77751309D01*
X197657818Y-78021808D01*
X197791068Y-78271101D01*
X197970392Y-78489608D01*
X198188899Y-78668932D01*
X198321858Y-78740000D01*
X198188899Y-78811068D01*
X197970392Y-78990392D01*
X197791068Y-79208899D01*
X197729438Y-79324200D01*
X195682173Y-79324200D01*
X195643500Y-79320391D01*
X195604827Y-79324200D01*
X195489143Y-79335594D01*
X195340717Y-79380618D01*
X195203928Y-79453734D01*
X195084031Y-79552131D01*
X194985634Y-79672028D01*
X194912518Y-79808817D01*
X194867494Y-79957243D01*
X194852291Y-80111600D01*
X194856101Y-80150283D01*
X194856100Y-86842600D01*
X185712663Y-86842600D01*
X185674000Y-86838792D01*
X185638072Y-86842331D01*
X185638072Y-86780000D01*
X185625812Y-86655518D01*
X185589502Y-86535820D01*
X185530537Y-86425506D01*
X185451185Y-86328815D01*
X185354494Y-86249463D01*
X185244180Y-86190498D01*
X185124482Y-86154188D01*
X185000000Y-86141928D01*
X183300000Y-86141928D01*
X183175518Y-86154188D01*
X183055820Y-86190498D01*
X182945506Y-86249463D01*
X182848815Y-86328815D01*
X182769463Y-86425506D01*
X182710498Y-86535820D01*
X182674188Y-86655518D01*
X182661928Y-86780000D01*
X182661928Y-88004521D01*
X178743850Y-91922600D01*
X167569735Y-91922600D01*
X167484637Y-91795241D01*
X167284759Y-91595363D01*
X167049727Y-91438320D01*
X166788574Y-91330147D01*
X166511335Y-91275000D01*
X166228665Y-91275000D01*
X165951426Y-91330147D01*
X165690273Y-91438320D01*
X165455241Y-91595363D01*
X165255363Y-91795241D01*
X165098320Y-92030273D01*
X164990147Y-92291426D01*
X164935000Y-92568665D01*
X164935000Y-92851335D01*
X164990147Y-93128574D01*
X165098320Y-93389727D01*
X165255363Y-93624759D01*
X165455241Y-93824637D01*
X165690273Y-93981680D01*
X165951426Y-94089853D01*
X166228665Y-94145000D01*
X166511335Y-94145000D01*
X166788574Y-94089853D01*
X167049727Y-93981680D01*
X167284759Y-93824637D01*
X167484637Y-93624759D01*
X167569735Y-93497400D01*
X179031337Y-93497400D01*
X179070000Y-93501208D01*
X179108663Y-93497400D01*
X179108673Y-93497400D01*
X179224357Y-93486006D01*
X179372783Y-93440982D01*
X179509572Y-93367866D01*
X179629469Y-93269469D01*
X179654128Y-93239422D01*
X183775479Y-89118072D01*
X185000000Y-89118072D01*
X185124482Y-89105812D01*
X185244180Y-89069502D01*
X185354494Y-89010537D01*
X185451185Y-88931185D01*
X185530537Y-88834494D01*
X185589502Y-88724180D01*
X185604660Y-88674210D01*
X198238883Y-101308435D01*
X198209000Y-101458665D01*
X198209000Y-101741335D01*
X198264147Y-102018574D01*
X198372320Y-102279727D01*
X198529363Y-102514759D01*
X198729241Y-102714637D01*
X198964273Y-102871680D01*
X199225426Y-102979853D01*
X199502665Y-103035000D01*
X199785335Y-103035000D01*
X200062574Y-102979853D01*
X200323727Y-102871680D01*
X200558759Y-102714637D01*
X200758637Y-102514759D01*
X200915680Y-102279727D01*
X201023853Y-102018574D01*
X201037684Y-101949039D01*
X208412096Y-101949039D01*
X208452754Y-102083087D01*
X208572963Y-102337420D01*
X208740481Y-102563414D01*
X208948869Y-102752385D01*
X209190119Y-102897070D01*
X209454960Y-102991909D01*
X209677000Y-102870624D01*
X209677000Y-101727000D01*
X209931000Y-101727000D01*
X209931000Y-102870624D01*
X210153040Y-102991909D01*
X210417881Y-102897070D01*
X210659131Y-102752385D01*
X210867519Y-102563414D01*
X210917604Y-102495845D01*
X228405450Y-102495845D01*
X231140000Y-105230395D01*
X233874550Y-102495845D01*
X233478366Y-101975450D01*
X232763388Y-101585252D01*
X231986024Y-101342036D01*
X231176147Y-101255149D01*
X230364882Y-101327931D01*
X229583403Y-101557585D01*
X228861744Y-101935285D01*
X228801634Y-101975450D01*
X228405450Y-102495845D01*
X210917604Y-102495845D01*
X211035037Y-102337420D01*
X211155246Y-102083087D01*
X211195904Y-101949039D01*
X211073915Y-101727000D01*
X209931000Y-101727000D01*
X209677000Y-101727000D01*
X208534085Y-101727000D01*
X208412096Y-101949039D01*
X201037684Y-101949039D01*
X201079000Y-101741335D01*
X201079000Y-101458665D01*
X201037685Y-101250961D01*
X208412096Y-101250961D01*
X208534085Y-101473000D01*
X209677000Y-101473000D01*
X209677000Y-100329376D01*
X209931000Y-100329376D01*
X209931000Y-101473000D01*
X211073915Y-101473000D01*
X211195904Y-101250961D01*
X211155246Y-101116913D01*
X211035037Y-100862580D01*
X210867519Y-100636586D01*
X210659131Y-100447615D01*
X210417881Y-100302930D01*
X210153040Y-100208091D01*
X209931000Y-100329376D01*
X209677000Y-100329376D01*
X209454960Y-100208091D01*
X209190119Y-100302930D01*
X208948869Y-100447615D01*
X208740481Y-100636586D01*
X208572963Y-100862580D01*
X208452754Y-101116913D01*
X208412096Y-101250961D01*
X201037685Y-101250961D01*
X201023853Y-101181426D01*
X200915680Y-100920273D01*
X200758637Y-100685241D01*
X200558759Y-100485363D01*
X200323727Y-100328320D01*
X200062574Y-100220147D01*
X199785335Y-100165000D01*
X199502665Y-100165000D01*
X199352435Y-100194883D01*
X196670254Y-97512702D01*
X222706903Y-97512702D01*
X222778486Y-97756671D01*
X223033996Y-97877571D01*
X223308184Y-97946300D01*
X223590512Y-97960217D01*
X223870130Y-97918787D01*
X224136292Y-97823603D01*
X224261514Y-97756671D01*
X224333097Y-97512702D01*
X223520000Y-96699605D01*
X222706903Y-97512702D01*
X196670254Y-97512702D01*
X195748064Y-96590512D01*
X222079783Y-96590512D01*
X222121213Y-96870130D01*
X222216397Y-97136292D01*
X222283329Y-97261514D01*
X222527298Y-97333097D01*
X223340395Y-96520000D01*
X223699605Y-96520000D01*
X224512702Y-97333097D01*
X224756671Y-97261514D01*
X224877571Y-97006004D01*
X224946300Y-96731816D01*
X224960217Y-96449488D01*
X224918787Y-96169870D01*
X224823603Y-95903708D01*
X224756671Y-95778486D01*
X224512702Y-95706903D01*
X223699605Y-96520000D01*
X223340395Y-96520000D01*
X222527298Y-95706903D01*
X222283329Y-95778486D01*
X222162429Y-96033996D01*
X222093700Y-96308184D01*
X222079783Y-96590512D01*
X195748064Y-96590512D01*
X194684850Y-95527298D01*
X222706903Y-95527298D01*
X223520000Y-96340395D01*
X224333097Y-95527298D01*
X224261514Y-95283329D01*
X224006004Y-95162429D01*
X223731816Y-95093700D01*
X223449488Y-95079783D01*
X223169870Y-95121213D01*
X222903708Y-95216397D01*
X222778486Y-95283329D01*
X222706903Y-95527298D01*
X194684850Y-95527298D01*
X190456216Y-91298665D01*
X196685000Y-91298665D01*
X196685000Y-91581335D01*
X196740147Y-91858574D01*
X196848320Y-92119727D01*
X197005363Y-92354759D01*
X197205241Y-92554637D01*
X197440273Y-92711680D01*
X197701426Y-92819853D01*
X197978665Y-92875000D01*
X198261335Y-92875000D01*
X198538574Y-92819853D01*
X198799727Y-92711680D01*
X199034759Y-92554637D01*
X199234637Y-92354759D01*
X199391680Y-92119727D01*
X199499853Y-91858574D01*
X199555000Y-91581335D01*
X199555000Y-91298665D01*
X206845000Y-91298665D01*
X206845000Y-91581335D01*
X206900147Y-91858574D01*
X207008320Y-92119727D01*
X207165363Y-92354759D01*
X207365241Y-92554637D01*
X207600273Y-92711680D01*
X207861426Y-92819853D01*
X208138665Y-92875000D01*
X208421335Y-92875000D01*
X208698574Y-92819853D01*
X208959727Y-92711680D01*
X209194759Y-92554637D01*
X209394637Y-92354759D01*
X209551680Y-92119727D01*
X209659853Y-91858574D01*
X209715000Y-91581335D01*
X209715000Y-91298665D01*
X209659853Y-91021426D01*
X209551680Y-90760273D01*
X209394637Y-90525241D01*
X209270098Y-90400702D01*
X222706903Y-90400702D01*
X222778486Y-90644671D01*
X223033996Y-90765571D01*
X223308184Y-90834300D01*
X223590512Y-90848217D01*
X223870130Y-90806787D01*
X224136292Y-90711603D01*
X224261514Y-90644671D01*
X224333097Y-90400702D01*
X223520000Y-89587605D01*
X222706903Y-90400702D01*
X209270098Y-90400702D01*
X209194759Y-90325363D01*
X209067400Y-90240265D01*
X209067400Y-89478512D01*
X222079783Y-89478512D01*
X222121213Y-89758130D01*
X222216397Y-90024292D01*
X222283329Y-90149514D01*
X222527298Y-90221097D01*
X223340395Y-89408000D01*
X223699605Y-89408000D01*
X224512702Y-90221097D01*
X224756671Y-90149514D01*
X224877571Y-89894004D01*
X224946300Y-89619816D01*
X224960217Y-89337488D01*
X224918787Y-89057870D01*
X224823603Y-88791708D01*
X224756671Y-88666486D01*
X224512702Y-88594903D01*
X223699605Y-89408000D01*
X223340395Y-89408000D01*
X222527298Y-88594903D01*
X222283329Y-88666486D01*
X222162429Y-88921996D01*
X222093700Y-89196184D01*
X222079783Y-89478512D01*
X209067400Y-89478512D01*
X209067400Y-88415298D01*
X222706903Y-88415298D01*
X223520000Y-89228395D01*
X224333097Y-88415298D01*
X224261514Y-88171329D01*
X224006004Y-88050429D01*
X223731816Y-87981700D01*
X223449488Y-87967783D01*
X223169870Y-88009213D01*
X222903708Y-88104397D01*
X222778486Y-88171329D01*
X222706903Y-88415298D01*
X209067400Y-88415298D01*
X209067400Y-85416150D01*
X210528434Y-83955117D01*
X210678665Y-83985000D01*
X210961335Y-83985000D01*
X211238574Y-83929853D01*
X211499727Y-83821680D01*
X211734759Y-83664637D01*
X211934637Y-83464759D01*
X212091680Y-83229727D01*
X212199853Y-82968574D01*
X212255000Y-82691335D01*
X212255000Y-82408665D01*
X212199853Y-82131426D01*
X212091680Y-81870273D01*
X211934637Y-81635241D01*
X211734759Y-81435363D01*
X211499727Y-81278320D01*
X211238574Y-81170147D01*
X210961335Y-81115000D01*
X210678665Y-81115000D01*
X210401426Y-81170147D01*
X210140273Y-81278320D01*
X209905241Y-81435363D01*
X209705363Y-81635241D01*
X209548320Y-81870273D01*
X209440147Y-82131426D01*
X209385000Y-82408665D01*
X209385000Y-82691335D01*
X209414883Y-82841566D01*
X207750573Y-84505877D01*
X207720532Y-84530531D01*
X207695880Y-84560570D01*
X207695879Y-84560571D01*
X207622135Y-84650428D01*
X207549018Y-84787218D01*
X207503995Y-84935643D01*
X207488792Y-85090000D01*
X207492601Y-85128673D01*
X207492600Y-90240265D01*
X207365241Y-90325363D01*
X207165363Y-90525241D01*
X207008320Y-90760273D01*
X206900147Y-91021426D01*
X206845000Y-91298665D01*
X199555000Y-91298665D01*
X199499853Y-91021426D01*
X199391680Y-90760273D01*
X199234637Y-90525241D01*
X199034759Y-90325363D01*
X198799727Y-90168320D01*
X198538574Y-90060147D01*
X198261335Y-90005000D01*
X197978665Y-90005000D01*
X197701426Y-90060147D01*
X197440273Y-90168320D01*
X197205241Y-90325363D01*
X197005363Y-90525241D01*
X196848320Y-90760273D01*
X196740147Y-91021426D01*
X196685000Y-91298665D01*
X190456216Y-91298665D01*
X187574950Y-88417400D01*
X195528637Y-88417400D01*
X195567300Y-88421208D01*
X195605963Y-88417400D01*
X195605973Y-88417400D01*
X195721657Y-88406006D01*
X195870083Y-88360982D01*
X196006872Y-88287866D01*
X196126769Y-88189469D01*
X196151428Y-88159422D01*
X196172923Y-88137927D01*
X196202969Y-88113269D01*
X196301366Y-87993372D01*
X196374482Y-87856583D01*
X196419506Y-87708157D01*
X196430900Y-87592473D01*
X196430900Y-87592464D01*
X196434708Y-87553801D01*
X196430900Y-87515138D01*
X196430900Y-80899000D01*
X197863205Y-80899000D01*
X197970392Y-81029608D01*
X198188899Y-81208932D01*
X198321858Y-81280000D01*
X198188899Y-81351068D01*
X197970392Y-81530392D01*
X197791068Y-81748899D01*
X197657818Y-81998192D01*
X197575764Y-82268691D01*
X197548057Y-82550000D01*
X197575764Y-82831309D01*
X197657818Y-83101808D01*
X197791068Y-83351101D01*
X197970392Y-83569608D01*
X198188899Y-83748932D01*
X198321858Y-83820000D01*
X198188899Y-83891068D01*
X197970392Y-84070392D01*
X197791068Y-84288899D01*
X197657818Y-84538192D01*
X197575764Y-84808691D01*
X197548057Y-85090000D01*
X197575764Y-85371309D01*
X197657818Y-85641808D01*
X197791068Y-85891101D01*
X197970392Y-86109608D01*
X198188899Y-86288932D01*
X198438192Y-86422182D01*
X198708691Y-86504236D01*
X198919508Y-86525000D01*
X199860492Y-86525000D01*
X200071309Y-86504236D01*
X200341808Y-86422182D01*
X200591101Y-86288932D01*
X200809608Y-86109608D01*
X200988932Y-85891101D01*
X201122182Y-85641808D01*
X201204236Y-85371309D01*
X201231943Y-85090000D01*
X201204236Y-84808691D01*
X201122182Y-84538192D01*
X200988932Y-84288899D01*
X200809608Y-84070392D01*
X200591101Y-83891068D01*
X200458142Y-83820000D01*
X200591101Y-83748932D01*
X200809608Y-83569608D01*
X200988932Y-83351101D01*
X201122182Y-83101808D01*
X201204236Y-82831309D01*
X201231943Y-82550000D01*
X201204236Y-82268691D01*
X201122182Y-81998192D01*
X200988932Y-81748899D01*
X200809608Y-81530392D01*
X200591101Y-81351068D01*
X200458142Y-81280000D01*
X200591101Y-81208932D01*
X200809608Y-81029608D01*
X200988932Y-80811101D01*
X201122182Y-80561808D01*
X201204236Y-80291309D01*
X201231943Y-80010000D01*
X201204236Y-79728691D01*
X201122182Y-79458192D01*
X200988932Y-79208899D01*
X200809608Y-78990392D01*
X200591101Y-78811068D01*
X200458142Y-78740000D01*
X200591101Y-78668932D01*
X200809608Y-78489608D01*
X200988932Y-78271101D01*
X201122182Y-78021808D01*
X201204236Y-77751309D01*
X201231943Y-77470000D01*
X201204236Y-77188691D01*
X201122182Y-76918192D01*
X200988932Y-76668899D01*
X200809608Y-76450392D01*
X200591101Y-76271068D01*
X200463259Y-76202735D01*
X200692839Y-76052601D01*
X200894500Y-75854895D01*
X201053715Y-75621646D01*
X201164367Y-75361818D01*
X201181904Y-75279039D01*
X201059915Y-75057000D01*
X199517000Y-75057000D01*
X199517000Y-75077000D01*
X199263000Y-75077000D01*
X199263000Y-75057000D01*
X199243000Y-75057000D01*
X199243000Y-74803000D01*
X199263000Y-74803000D01*
X199263000Y-74783000D01*
X199517000Y-74783000D01*
X199517000Y-74803000D01*
X201059915Y-74803000D01*
X201181904Y-74580961D01*
X201164367Y-74498182D01*
X201053715Y-74238354D01*
X200894500Y-74005105D01*
X200692839Y-73807399D01*
X200463259Y-73657265D01*
X200591101Y-73588932D01*
X200809608Y-73409608D01*
X200988932Y-73191101D01*
X201122182Y-72941808D01*
X201204236Y-72671309D01*
X201231943Y-72390000D01*
X201218023Y-72248665D01*
X209385000Y-72248665D01*
X209385000Y-72531335D01*
X209440147Y-72808574D01*
X209548320Y-73069727D01*
X209705363Y-73304759D01*
X209905241Y-73504637D01*
X210140273Y-73661680D01*
X210401426Y-73769853D01*
X210678665Y-73825000D01*
X210961335Y-73825000D01*
X211238574Y-73769853D01*
X211499727Y-73661680D01*
X211734759Y-73504637D01*
X211934637Y-73304759D01*
X212091680Y-73069727D01*
X212199853Y-72808574D01*
X212255000Y-72531335D01*
X212255000Y-72248665D01*
X212199853Y-71971426D01*
X212091680Y-71710273D01*
X211934637Y-71475241D01*
X211734759Y-71275363D01*
X211499727Y-71118320D01*
X211238574Y-71010147D01*
X210961335Y-70955000D01*
X210678665Y-70955000D01*
X210401426Y-71010147D01*
X210140273Y-71118320D01*
X209905241Y-71275363D01*
X209705363Y-71475241D01*
X209548320Y-71710273D01*
X209440147Y-71971426D01*
X209385000Y-72248665D01*
X201218023Y-72248665D01*
X201204236Y-72108691D01*
X201122182Y-71838192D01*
X200988932Y-71588899D01*
X200809608Y-71370392D01*
X200591101Y-71191068D01*
X200458142Y-71120000D01*
X200591101Y-71048932D01*
X200809608Y-70869608D01*
X200988932Y-70651101D01*
X201122182Y-70401808D01*
X201204236Y-70131309D01*
X201231943Y-69850000D01*
X201204236Y-69568691D01*
X201122182Y-69298192D01*
X200988932Y-69048899D01*
X200809608Y-68830392D01*
X200591101Y-68651068D01*
X200341808Y-68517818D01*
X200071309Y-68435764D01*
X199860492Y-68415000D01*
X198919508Y-68415000D01*
X198708691Y-68435764D01*
X198438192Y-68517818D01*
X198188899Y-68651068D01*
X197970392Y-68830392D01*
X197791068Y-69048899D01*
X197657818Y-69298192D01*
X197575764Y-69568691D01*
X197548057Y-69850000D01*
X197575764Y-70131309D01*
X197657818Y-70401808D01*
X197791068Y-70651101D01*
X197970392Y-70869608D01*
X198188899Y-71048932D01*
X198321858Y-71120000D01*
X198188899Y-71191068D01*
X197970392Y-71370392D01*
X197791068Y-71588899D01*
X197657818Y-71838192D01*
X197575764Y-72108691D01*
X197548057Y-72390000D01*
X197575764Y-72671309D01*
X197657818Y-72941808D01*
X197791068Y-73191101D01*
X197970392Y-73409608D01*
X198188899Y-73588932D01*
X198316741Y-73657265D01*
X198087161Y-73807399D01*
X197885500Y-74005105D01*
X197726285Y-74238354D01*
X197615633Y-74498182D01*
X197600966Y-74567415D01*
X196278518Y-73244968D01*
X196253859Y-73214921D01*
X196133962Y-73116524D01*
X195997173Y-73043408D01*
X195848747Y-72998384D01*
X195733063Y-72986990D01*
X195733053Y-72986990D01*
X195694390Y-72983182D01*
X195655727Y-72986990D01*
X193478032Y-72986990D01*
X193502182Y-72941808D01*
X193584236Y-72671309D01*
X193611943Y-72390000D01*
X193584236Y-72108691D01*
X193502182Y-71838192D01*
X193368932Y-71588899D01*
X193189608Y-71370392D01*
X193076518Y-71277581D01*
X193094482Y-71275812D01*
X193214180Y-71239502D01*
X193324494Y-71180537D01*
X193421185Y-71101185D01*
X193500537Y-71004494D01*
X193559502Y-70894180D01*
X193595812Y-70774482D01*
X193608072Y-70650000D01*
X193608072Y-69125479D01*
X194382152Y-68351400D01*
X209620265Y-68351400D01*
X209705363Y-68478759D01*
X209905241Y-68678637D01*
X210140273Y-68835680D01*
X210401426Y-68943853D01*
X210678665Y-68999000D01*
X210961335Y-68999000D01*
X211111567Y-68969117D01*
X221411877Y-79269428D01*
X221436531Y-79299469D01*
X221495465Y-79347835D01*
X221556427Y-79397866D01*
X221693217Y-79470982D01*
X221841642Y-79516006D01*
X221855503Y-79517371D01*
X221957327Y-79527400D01*
X221957334Y-79527400D01*
X221996000Y-79531208D01*
X222034665Y-79527400D01*
X232420130Y-79527400D01*
X232526525Y-79686632D01*
X232733368Y-79893475D01*
X232907760Y-80010000D01*
X232733368Y-80126525D01*
X232526525Y-80333368D01*
X232364010Y-80576589D01*
X232252068Y-80846842D01*
X232195000Y-81133740D01*
X232195000Y-81426260D01*
X232252068Y-81713158D01*
X232364010Y-81983411D01*
X232526525Y-82226632D01*
X232733368Y-82433475D01*
X232892601Y-82539871D01*
X232892600Y-88208265D01*
X232765241Y-88293363D01*
X232565363Y-88493241D01*
X232408320Y-88728273D01*
X232300147Y-88989426D01*
X232245000Y-89266665D01*
X232245000Y-89549335D01*
X232300147Y-89826574D01*
X232408320Y-90087727D01*
X232565363Y-90322759D01*
X232765241Y-90522637D01*
X233000273Y-90679680D01*
X233261426Y-90787853D01*
X233538665Y-90843000D01*
X233821335Y-90843000D01*
X234098201Y-90787927D01*
X234098201Y-94988247D01*
X233971566Y-95114883D01*
X233821335Y-95085000D01*
X233538665Y-95085000D01*
X233261426Y-95140147D01*
X233000273Y-95248320D01*
X232765241Y-95405363D01*
X232565363Y-95605241D01*
X232408320Y-95840273D01*
X232300147Y-96101426D01*
X232245000Y-96378665D01*
X232245000Y-96661335D01*
X232300147Y-96938574D01*
X232408320Y-97199727D01*
X232565363Y-97434759D01*
X232765241Y-97634637D01*
X233000273Y-97791680D01*
X233261426Y-97899853D01*
X233538665Y-97955000D01*
X233821335Y-97955000D01*
X234098574Y-97899853D01*
X234359727Y-97791680D01*
X234594759Y-97634637D01*
X234794637Y-97434759D01*
X234951680Y-97199727D01*
X235059853Y-96938574D01*
X235115000Y-96661335D01*
X235115000Y-96378665D01*
X235085117Y-96228434D01*
X235415035Y-95898517D01*
X235445070Y-95873868D01*
X235543467Y-95753971D01*
X235616583Y-95617182D01*
X235661607Y-95468756D01*
X235673001Y-95353072D01*
X235673001Y-95353063D01*
X235676809Y-95314400D01*
X235673001Y-95275737D01*
X235673001Y-79984263D01*
X235676809Y-79945600D01*
X235673001Y-79906937D01*
X235673001Y-79906928D01*
X235661607Y-79791244D01*
X235616583Y-79642818D01*
X235543467Y-79506029D01*
X235445070Y-79386132D01*
X235415034Y-79361482D01*
X235127639Y-79074087D01*
X235165000Y-78886260D01*
X235165000Y-78593740D01*
X235107932Y-78306842D01*
X234995990Y-78036589D01*
X234833475Y-77793368D01*
X234701620Y-77661513D01*
X234774180Y-77639502D01*
X234884494Y-77580537D01*
X234981185Y-77501185D01*
X235060537Y-77404494D01*
X235119502Y-77294180D01*
X235155812Y-77174482D01*
X235168072Y-77050000D01*
X235168072Y-75350000D01*
X235155812Y-75225518D01*
X235119502Y-75105820D01*
X235060537Y-74995506D01*
X234981185Y-74898815D01*
X234884494Y-74819463D01*
X234774180Y-74760498D01*
X234654482Y-74724188D01*
X234530000Y-74711928D01*
X232830000Y-74711928D01*
X232705518Y-74724188D01*
X232585820Y-74760498D01*
X232475506Y-74819463D01*
X232378815Y-74898815D01*
X232299463Y-74995506D01*
X232240498Y-75105820D01*
X232204188Y-75225518D01*
X232191928Y-75350000D01*
X232191928Y-77050000D01*
X232204188Y-77174482D01*
X232240498Y-77294180D01*
X232299463Y-77404494D01*
X232378815Y-77501185D01*
X232475506Y-77580537D01*
X232585820Y-77639502D01*
X232658380Y-77661513D01*
X232526525Y-77793368D01*
X232420130Y-77952600D01*
X222322151Y-77952600D01*
X212225117Y-67855567D01*
X212255000Y-67705335D01*
X212255000Y-67422665D01*
X219545000Y-67422665D01*
X219545000Y-67705335D01*
X219600147Y-67982574D01*
X219708320Y-68243727D01*
X219865363Y-68478759D01*
X220065241Y-68678637D01*
X220300273Y-68835680D01*
X220561426Y-68943853D01*
X220838665Y-68999000D01*
X221121335Y-68999000D01*
X221398574Y-68943853D01*
X221659727Y-68835680D01*
X221894759Y-68678637D01*
X222094637Y-68478759D01*
X222251680Y-68243727D01*
X222359853Y-67982574D01*
X222415000Y-67705335D01*
X222415000Y-67422665D01*
X222359853Y-67145426D01*
X222251680Y-66884273D01*
X222094637Y-66649241D01*
X221894759Y-66449363D01*
X221659727Y-66292320D01*
X221398574Y-66184147D01*
X221121335Y-66129000D01*
X220838665Y-66129000D01*
X220561426Y-66184147D01*
X220300273Y-66292320D01*
X220065241Y-66449363D01*
X219865363Y-66649241D01*
X219708320Y-66884273D01*
X219600147Y-67145426D01*
X219545000Y-67422665D01*
X212255000Y-67422665D01*
X212199853Y-67145426D01*
X212091680Y-66884273D01*
X211934637Y-66649241D01*
X211734759Y-66449363D01*
X211607400Y-66364265D01*
X211607400Y-63429735D01*
X211734759Y-63344637D01*
X211934637Y-63144759D01*
X212091680Y-62909727D01*
X212199853Y-62648574D01*
X212255000Y-62371335D01*
X212255000Y-62088665D01*
X215735000Y-62088665D01*
X215735000Y-62371335D01*
X215790147Y-62648574D01*
X215898320Y-62909727D01*
X216055363Y-63144759D01*
X216255241Y-63344637D01*
X216490273Y-63501680D01*
X216751426Y-63609853D01*
X217028665Y-63665000D01*
X217311335Y-63665000D01*
X217588574Y-63609853D01*
X217849727Y-63501680D01*
X218084759Y-63344637D01*
X218284637Y-63144759D01*
X218441680Y-62909727D01*
X218549853Y-62648574D01*
X218605000Y-62371335D01*
X218605000Y-62088665D01*
X225895000Y-62088665D01*
X225895000Y-62371335D01*
X225950147Y-62648574D01*
X226058320Y-62909727D01*
X226215363Y-63144759D01*
X226415241Y-63344637D01*
X226650273Y-63501680D01*
X226911426Y-63609853D01*
X227188665Y-63665000D01*
X227471335Y-63665000D01*
X227748574Y-63609853D01*
X228009727Y-63501680D01*
X228244759Y-63344637D01*
X228444637Y-63144759D01*
X228601680Y-62909727D01*
X228709853Y-62648574D01*
X228765000Y-62371335D01*
X228765000Y-62088665D01*
X228709853Y-61811426D01*
X228601680Y-61550273D01*
X228445739Y-61316890D01*
X232238524Y-61316890D01*
X232283175Y-61464099D01*
X232408359Y-61726920D01*
X232582412Y-61960269D01*
X232798645Y-62155178D01*
X233048748Y-62304157D01*
X233323109Y-62401481D01*
X233553000Y-62280814D01*
X233553000Y-61087000D01*
X233807000Y-61087000D01*
X233807000Y-62280814D01*
X234036891Y-62401481D01*
X234311252Y-62304157D01*
X234561355Y-62155178D01*
X234777588Y-61960269D01*
X234951641Y-61726920D01*
X235076825Y-61464099D01*
X235121476Y-61316890D01*
X235000155Y-61087000D01*
X233807000Y-61087000D01*
X233553000Y-61087000D01*
X232359845Y-61087000D01*
X232238524Y-61316890D01*
X228445739Y-61316890D01*
X228444637Y-61315241D01*
X228244759Y-61115363D01*
X228009727Y-60958320D01*
X227748574Y-60850147D01*
X227471335Y-60795000D01*
X227188665Y-60795000D01*
X226911426Y-60850147D01*
X226650273Y-60958320D01*
X226415241Y-61115363D01*
X226215363Y-61315241D01*
X226058320Y-61550273D01*
X225950147Y-61811426D01*
X225895000Y-62088665D01*
X218605000Y-62088665D01*
X218549853Y-61811426D01*
X218441680Y-61550273D01*
X218284637Y-61315241D01*
X218084759Y-61115363D01*
X217849727Y-60958320D01*
X217588574Y-60850147D01*
X217311335Y-60795000D01*
X217028665Y-60795000D01*
X216751426Y-60850147D01*
X216490273Y-60958320D01*
X216255241Y-61115363D01*
X216055363Y-61315241D01*
X215898320Y-61550273D01*
X215790147Y-61811426D01*
X215735000Y-62088665D01*
X212255000Y-62088665D01*
X212199853Y-61811426D01*
X212091680Y-61550273D01*
X211934637Y-61315241D01*
X211734759Y-61115363D01*
X211499727Y-60958320D01*
X211238574Y-60850147D01*
X210961335Y-60795000D01*
X210678665Y-60795000D01*
X210401426Y-60850147D01*
X210140273Y-60958320D01*
X209905241Y-61115363D01*
X209705363Y-61315241D01*
X209548320Y-61550273D01*
X209440147Y-61811426D01*
X209385000Y-62088665D01*
X209385000Y-62371335D01*
X209440147Y-62648574D01*
X209548320Y-62909727D01*
X209705363Y-63144759D01*
X209905241Y-63344637D01*
X210032600Y-63429736D01*
X210032601Y-66364264D01*
X209905241Y-66449363D01*
X209705363Y-66649241D01*
X209620265Y-66776600D01*
X194094662Y-66776600D01*
X194055999Y-66772792D01*
X194017336Y-66776600D01*
X194017327Y-66776600D01*
X193901643Y-66787994D01*
X193753217Y-66833018D01*
X193616428Y-66906134D01*
X193616426Y-66906135D01*
X193616427Y-66906135D01*
X193526569Y-66979879D01*
X193526567Y-66979881D01*
X193496531Y-67004531D01*
X193471881Y-67034567D01*
X192094521Y-68411928D01*
X190570000Y-68411928D01*
X190445518Y-68424188D01*
X190325820Y-68460498D01*
X190215506Y-68519463D01*
X190118815Y-68598815D01*
X190039463Y-68695506D01*
X189980498Y-68805820D01*
X189944188Y-68925518D01*
X189931928Y-69050000D01*
X189931928Y-70650000D01*
X189944188Y-70774482D01*
X189980498Y-70894180D01*
X190039463Y-71004494D01*
X190118815Y-71101185D01*
X190215506Y-71180537D01*
X190325820Y-71239502D01*
X190445518Y-71275812D01*
X190463482Y-71277581D01*
X190350392Y-71370392D01*
X190171068Y-71588899D01*
X190163745Y-71602600D01*
X189264051Y-71602600D01*
X188887100Y-71225650D01*
X188887100Y-62088665D01*
X199225000Y-62088665D01*
X199225000Y-62371335D01*
X199280147Y-62648574D01*
X199388320Y-62909727D01*
X199545363Y-63144759D01*
X199745241Y-63344637D01*
X199980273Y-63501680D01*
X200241426Y-63609853D01*
X200518665Y-63665000D01*
X200801335Y-63665000D01*
X201078574Y-63609853D01*
X201339727Y-63501680D01*
X201574759Y-63344637D01*
X201774637Y-63144759D01*
X201931680Y-62909727D01*
X202039853Y-62648574D01*
X202095000Y-62371335D01*
X202095000Y-62088665D01*
X202039853Y-61811426D01*
X201931680Y-61550273D01*
X201774637Y-61315241D01*
X201574759Y-61115363D01*
X201339727Y-60958320D01*
X201078574Y-60850147D01*
X200801335Y-60795000D01*
X200518665Y-60795000D01*
X200241426Y-60850147D01*
X199980273Y-60958320D01*
X199745241Y-61115363D01*
X199545363Y-61315241D01*
X199388320Y-61550273D01*
X199280147Y-61811426D01*
X199225000Y-62088665D01*
X188887100Y-62088665D01*
X188887100Y-61552552D01*
X189962254Y-60477400D01*
X190570265Y-60477400D01*
X190655363Y-60604759D01*
X190855241Y-60804637D01*
X191090273Y-60961680D01*
X191351426Y-61069853D01*
X191628665Y-61125000D01*
X191911335Y-61125000D01*
X192188574Y-61069853D01*
X192449727Y-60961680D01*
X192684759Y-60804637D01*
X192884637Y-60604759D01*
X192969735Y-60477400D01*
X214591337Y-60477400D01*
X214630000Y-60481208D01*
X214668663Y-60477400D01*
X214668673Y-60477400D01*
X214784357Y-60466006D01*
X214932783Y-60420982D01*
X215069572Y-60347866D01*
X215189469Y-60249469D01*
X215214128Y-60219422D01*
X216656660Y-58776890D01*
X232238524Y-58776890D01*
X232283175Y-58924099D01*
X232408359Y-59186920D01*
X232582412Y-59420269D01*
X232798645Y-59615178D01*
X232924255Y-59690000D01*
X232798645Y-59764822D01*
X232582412Y-59959731D01*
X232408359Y-60193080D01*
X232283175Y-60455901D01*
X232238524Y-60603110D01*
X232359845Y-60833000D01*
X233553000Y-60833000D01*
X233553000Y-58547000D01*
X233807000Y-58547000D01*
X233807000Y-60833000D01*
X235000155Y-60833000D01*
X235121476Y-60603110D01*
X235076825Y-60455901D01*
X234951641Y-60193080D01*
X234777588Y-59959731D01*
X234561355Y-59764822D01*
X234435745Y-59690000D01*
X234561355Y-59615178D01*
X234777588Y-59420269D01*
X234951641Y-59186920D01*
X235076825Y-58924099D01*
X235121476Y-58776890D01*
X235000155Y-58547000D01*
X233807000Y-58547000D01*
X233553000Y-58547000D01*
X232359845Y-58547000D01*
X232238524Y-58776890D01*
X216656660Y-58776890D01*
X218703550Y-56730000D01*
X232191928Y-56730000D01*
X232204188Y-56854482D01*
X232240498Y-56974180D01*
X232299463Y-57084494D01*
X232378815Y-57181185D01*
X232475506Y-57260537D01*
X232585820Y-57319502D01*
X232666466Y-57343966D01*
X232582412Y-57419731D01*
X232408359Y-57653080D01*
X232283175Y-57915901D01*
X232238524Y-58063110D01*
X232359845Y-58293000D01*
X233553000Y-58293000D01*
X233553000Y-56007000D01*
X233807000Y-56007000D01*
X233807000Y-58293000D01*
X235000155Y-58293000D01*
X235121476Y-58063110D01*
X235076825Y-57915901D01*
X234951641Y-57653080D01*
X234777588Y-57419731D01*
X234693534Y-57343966D01*
X234774180Y-57319502D01*
X234884494Y-57260537D01*
X234981185Y-57181185D01*
X235060537Y-57084494D01*
X235119502Y-56974180D01*
X235155812Y-56854482D01*
X235168072Y-56730000D01*
X235165000Y-56165750D01*
X235006250Y-56007000D01*
X233807000Y-56007000D01*
X233553000Y-56007000D01*
X232353750Y-56007000D01*
X232195000Y-56165750D01*
X232191928Y-56730000D01*
X218703550Y-56730000D01*
X219418434Y-56015117D01*
X219568665Y-56045000D01*
X219851335Y-56045000D01*
X220128574Y-55989853D01*
X220389727Y-55881680D01*
X220624759Y-55724637D01*
X220746694Y-55602702D01*
X229056903Y-55602702D01*
X229128486Y-55846671D01*
X229383996Y-55967571D01*
X229658184Y-56036300D01*
X229940512Y-56050217D01*
X230220130Y-56008787D01*
X230486292Y-55913603D01*
X230611514Y-55846671D01*
X230683097Y-55602702D01*
X229870000Y-54789605D01*
X229056903Y-55602702D01*
X220746694Y-55602702D01*
X220824637Y-55524759D01*
X220981680Y-55289727D01*
X221089853Y-55028574D01*
X221145000Y-54751335D01*
X221145000Y-54680512D01*
X228429783Y-54680512D01*
X228471213Y-54960130D01*
X228566397Y-55226292D01*
X228633329Y-55351514D01*
X228877298Y-55423097D01*
X229690395Y-54610000D01*
X230049605Y-54610000D01*
X230862702Y-55423097D01*
X231106671Y-55351514D01*
X231227571Y-55096004D01*
X231244115Y-55030000D01*
X232191928Y-55030000D01*
X232195000Y-55594250D01*
X232353750Y-55753000D01*
X233553000Y-55753000D01*
X233553000Y-54553750D01*
X233807000Y-54553750D01*
X233807000Y-55753000D01*
X235006250Y-55753000D01*
X235165000Y-55594250D01*
X235168072Y-55030000D01*
X235155812Y-54905518D01*
X235119502Y-54785820D01*
X235060537Y-54675506D01*
X234981185Y-54578815D01*
X234884494Y-54499463D01*
X234774180Y-54440498D01*
X234654482Y-54404188D01*
X234530000Y-54391928D01*
X233965750Y-54395000D01*
X233807000Y-54553750D01*
X233553000Y-54553750D01*
X233394250Y-54395000D01*
X232830000Y-54391928D01*
X232705518Y-54404188D01*
X232585820Y-54440498D01*
X232475506Y-54499463D01*
X232378815Y-54578815D01*
X232299463Y-54675506D01*
X232240498Y-54785820D01*
X232204188Y-54905518D01*
X232191928Y-55030000D01*
X231244115Y-55030000D01*
X231296300Y-54821816D01*
X231310217Y-54539488D01*
X231268787Y-54259870D01*
X231173603Y-53993708D01*
X231106671Y-53868486D01*
X230862702Y-53796903D01*
X230049605Y-54610000D01*
X229690395Y-54610000D01*
X228877298Y-53796903D01*
X228633329Y-53868486D01*
X228512429Y-54123996D01*
X228443700Y-54398184D01*
X228429783Y-54680512D01*
X221145000Y-54680512D01*
X221145000Y-54468665D01*
X221089853Y-54191426D01*
X220981680Y-53930273D01*
X220824637Y-53695241D01*
X220746694Y-53617298D01*
X229056903Y-53617298D01*
X229870000Y-54430395D01*
X230683097Y-53617298D01*
X230611514Y-53373329D01*
X230356004Y-53252429D01*
X230081816Y-53183700D01*
X229799488Y-53169783D01*
X229519870Y-53211213D01*
X229253708Y-53306397D01*
X229128486Y-53373329D01*
X229056903Y-53617298D01*
X220746694Y-53617298D01*
X220624759Y-53495363D01*
X220389727Y-53338320D01*
X220128574Y-53230147D01*
X219851335Y-53175000D01*
X219568665Y-53175000D01*
X219291426Y-53230147D01*
X219030273Y-53338320D01*
X218795241Y-53495363D01*
X218595363Y-53695241D01*
X218438320Y-53930273D01*
X218330147Y-54191426D01*
X218275000Y-54468665D01*
X218275000Y-54751335D01*
X218304883Y-54901566D01*
X214303850Y-58902600D01*
X192969735Y-58902600D01*
X192884637Y-58775241D01*
X192684759Y-58575363D01*
X192449727Y-58418320D01*
X192188574Y-58310147D01*
X191911335Y-58255000D01*
X191628665Y-58255000D01*
X191351426Y-58310147D01*
X191090273Y-58418320D01*
X190855241Y-58575363D01*
X190655363Y-58775241D01*
X190570265Y-58902600D01*
X189674767Y-58902600D01*
X189636102Y-58898792D01*
X189597437Y-58902600D01*
X189597429Y-58902600D01*
X189481745Y-58913994D01*
X189333319Y-58959018D01*
X189196530Y-59032134D01*
X189106672Y-59105878D01*
X189106669Y-59105881D01*
X189076633Y-59130531D01*
X189051983Y-59160567D01*
X187570277Y-60642275D01*
X187540231Y-60666933D01*
X187441834Y-60786831D01*
X187368718Y-60923620D01*
X187323694Y-61072046D01*
X187312300Y-61187730D01*
X187312300Y-61187739D01*
X187308492Y-61226402D01*
X187312300Y-61265065D01*
X187312301Y-71513127D01*
X187308492Y-71551800D01*
X187323695Y-71706157D01*
X187368718Y-71854582D01*
X187441835Y-71991372D01*
X187540232Y-72111269D01*
X187570273Y-72135923D01*
X188353777Y-72919427D01*
X188378431Y-72949469D01*
X188424150Y-72986990D01*
X182304542Y-72986990D01*
X176240072Y-66922522D01*
X176240072Y-66460000D01*
X182661928Y-66460000D01*
X182661928Y-68160000D01*
X182674188Y-68284482D01*
X182710498Y-68404180D01*
X182769463Y-68514494D01*
X182848815Y-68611185D01*
X182945506Y-68690537D01*
X183055820Y-68749502D01*
X183175518Y-68785812D01*
X183300000Y-68798072D01*
X185000000Y-68798072D01*
X185124482Y-68785812D01*
X185244180Y-68749502D01*
X185354494Y-68690537D01*
X185451185Y-68611185D01*
X185530537Y-68514494D01*
X185589502Y-68404180D01*
X185625812Y-68284482D01*
X185638072Y-68160000D01*
X185638072Y-66460000D01*
X185625812Y-66335518D01*
X185589502Y-66215820D01*
X185530537Y-66105506D01*
X185451185Y-66008815D01*
X185354494Y-65929463D01*
X185244180Y-65870498D01*
X185124482Y-65834188D01*
X185000000Y-65821928D01*
X183300000Y-65821928D01*
X183175518Y-65834188D01*
X183055820Y-65870498D01*
X182945506Y-65929463D01*
X182848815Y-66008815D01*
X182769463Y-66105506D01*
X182710498Y-66215820D01*
X182674188Y-66335518D01*
X182661928Y-66460000D01*
X176240072Y-66460000D01*
X176240072Y-65698000D01*
X176227812Y-65573518D01*
X176191502Y-65453820D01*
X176132537Y-65343506D01*
X176053185Y-65246815D01*
X175956494Y-65167463D01*
X175846180Y-65108498D01*
X175726482Y-65072188D01*
X175602000Y-65059928D01*
X174377479Y-65059928D01*
X165938128Y-56620578D01*
X165913469Y-56590531D01*
X165793572Y-56492134D01*
X165656783Y-56419018D01*
X165508357Y-56373994D01*
X165392673Y-56362600D01*
X165392663Y-56362600D01*
X165354000Y-56358792D01*
X165315337Y-56362600D01*
X163759735Y-56362600D01*
X163674637Y-56235241D01*
X163474759Y-56035363D01*
X163239727Y-55878320D01*
X162978574Y-55770147D01*
X162701335Y-55715000D01*
X162418665Y-55715000D01*
X162141426Y-55770147D01*
X161880273Y-55878320D01*
X161645241Y-56035363D01*
X161445363Y-56235241D01*
X161288320Y-56470273D01*
X161180147Y-56731426D01*
X161125000Y-57008665D01*
X161125000Y-57291335D01*
X161180147Y-57568574D01*
X161288320Y-57829727D01*
X161445363Y-58064759D01*
X161645241Y-58264637D01*
X161880273Y-58421680D01*
X162141426Y-58529853D01*
X162418665Y-58585000D01*
X162701335Y-58585000D01*
X162978574Y-58529853D01*
X163239727Y-58421680D01*
X163474759Y-58264637D01*
X163674637Y-58064759D01*
X163759735Y-57937400D01*
X165027850Y-57937400D01*
X173263928Y-66173479D01*
X173263928Y-67398000D01*
X173276188Y-67522482D01*
X173312498Y-67642180D01*
X173371463Y-67752494D01*
X173450815Y-67849185D01*
X173547506Y-67928537D01*
X173657820Y-67987502D01*
X173777518Y-68023812D01*
X173902000Y-68036072D01*
X175126522Y-68036072D01*
X181233048Y-74142600D01*
X176748072Y-74142600D01*
X176748072Y-74080000D01*
X176735812Y-73955518D01*
X176699502Y-73835820D01*
X176640537Y-73725506D01*
X176561185Y-73628815D01*
X176464494Y-73549463D01*
X176354180Y-73490498D01*
X176234482Y-73454188D01*
X176110000Y-73441928D01*
X174885480Y-73441928D01*
X169494128Y-68050578D01*
X169469469Y-68020531D01*
X169349572Y-67922134D01*
X169212783Y-67849018D01*
X169064357Y-67803994D01*
X168948673Y-67792600D01*
X168948663Y-67792600D01*
X168910000Y-67788792D01*
X168871337Y-67792600D01*
X167569735Y-67792600D01*
X167484637Y-67665241D01*
X167284759Y-67465363D01*
X167049727Y-67308320D01*
X166788574Y-67200147D01*
X166511335Y-67145000D01*
X166228665Y-67145000D01*
X166078434Y-67174883D01*
X164414128Y-65510578D01*
X164389469Y-65480531D01*
X164269572Y-65382134D01*
X164132783Y-65309018D01*
X163984357Y-65263994D01*
X163868673Y-65252600D01*
X163868663Y-65252600D01*
X163830000Y-65248792D01*
X163791337Y-65252600D01*
X162489735Y-65252600D01*
X162404637Y-65125241D01*
X162204759Y-64925363D01*
X161969727Y-64768320D01*
X161708574Y-64660147D01*
X161431335Y-64605000D01*
X161148665Y-64605000D01*
X160871426Y-64660147D01*
X160610273Y-64768320D01*
X160375241Y-64925363D01*
X160175363Y-65125241D01*
X160018320Y-65360273D01*
X159910147Y-65621426D01*
X159855000Y-65898665D01*
X159855000Y-66181335D01*
X159910147Y-66458574D01*
X160018320Y-66719727D01*
X160175363Y-66954759D01*
X160375241Y-67154637D01*
X160610273Y-67311680D01*
X160871426Y-67419853D01*
X161148665Y-67475000D01*
X161431335Y-67475000D01*
X161708574Y-67419853D01*
X161969727Y-67311680D01*
X162204759Y-67154637D01*
X162404637Y-66954759D01*
X162489735Y-66827400D01*
X163503850Y-66827400D01*
X164964883Y-68288434D01*
X164935000Y-68438665D01*
X164935000Y-68721335D01*
X164990147Y-68998574D01*
X165098320Y-69259727D01*
X165255363Y-69494759D01*
X165455241Y-69694637D01*
X165690273Y-69851680D01*
X165951426Y-69959853D01*
X166228665Y-70015000D01*
X166511335Y-70015000D01*
X166788574Y-69959853D01*
X167049727Y-69851680D01*
X167284759Y-69694637D01*
X167484637Y-69494759D01*
X167569735Y-69367400D01*
X168583850Y-69367400D01*
X173771928Y-74555480D01*
X173771928Y-75780000D01*
X173784188Y-75904482D01*
X173820498Y-76024180D01*
X173879463Y-76134494D01*
X173958815Y-76231185D01*
X174055506Y-76310537D01*
X174165820Y-76369502D01*
X174285518Y-76405812D01*
X174410000Y-76418072D01*
X176110000Y-76418072D01*
X176234482Y-76405812D01*
X176354180Y-76369502D01*
X176464494Y-76310537D01*
X176561185Y-76231185D01*
X176640537Y-76134494D01*
X176699502Y-76024180D01*
X176735812Y-75904482D01*
X176748072Y-75780000D01*
X176748072Y-75717400D01*
X188903850Y-75717400D01*
X190061094Y-76874645D01*
X190037818Y-76918192D01*
X189955764Y-77188691D01*
X189928057Y-77470000D01*
X189955764Y-77751309D01*
X190037818Y-78021808D01*
X190171068Y-78271101D01*
X190350392Y-78489608D01*
X190568899Y-78668932D01*
X190701858Y-78740000D01*
X190568899Y-78811068D01*
X190350392Y-78990392D01*
X190171068Y-79208899D01*
X190163745Y-79222600D01*
X172144451Y-79222600D01*
X159156400Y-66234550D01*
X159156400Y-56282350D01*
X161755852Y-53682900D01*
X161959889Y-53682900D01*
X161976426Y-53699437D01*
X162145944Y-53812705D01*
X162334302Y-53890726D01*
X162534261Y-53930500D01*
X162738139Y-53930500D01*
X162938098Y-53890726D01*
X163126456Y-53812705D01*
X163295974Y-53699437D01*
X163440137Y-53555274D01*
X163553405Y-53385756D01*
X163631426Y-53197398D01*
X163671200Y-52997439D01*
X163671200Y-52793561D01*
X163631426Y-52593602D01*
X163553405Y-52405244D01*
X163440137Y-52235726D01*
X163295974Y-52091563D01*
X163126456Y-51978295D01*
X162938098Y-51900274D01*
X162738139Y-51860500D01*
X162534261Y-51860500D01*
X162334302Y-51900274D01*
X162145944Y-51978295D01*
X161976426Y-52091563D01*
X161959889Y-52108100D01*
X161468362Y-52108100D01*
X161429699Y-52104292D01*
X161391036Y-52108100D01*
X161391027Y-52108100D01*
X161275343Y-52119494D01*
X161126917Y-52164518D01*
X160990128Y-52237634D01*
X160990126Y-52237635D01*
X160990127Y-52237635D01*
X160900269Y-52311379D01*
X160900267Y-52311381D01*
X160870231Y-52336031D01*
X160845581Y-52366067D01*
X157839573Y-55372077D01*
X157809532Y-55396731D01*
X157784879Y-55426771D01*
X157711135Y-55516628D01*
X157638018Y-55653418D01*
X157592995Y-55801843D01*
X157577792Y-55956200D01*
X157581601Y-55994873D01*
X157581600Y-57741849D01*
X157581600Y-57741850D01*
X157581601Y-66548573D01*
X157592995Y-66664257D01*
X157638019Y-66812683D01*
X157657137Y-66848450D01*
X157672007Y-66897471D01*
X157745124Y-67034261D01*
X157818868Y-67124118D01*
X161703984Y-71009234D01*
X161431335Y-70955000D01*
X161148665Y-70955000D01*
X160871426Y-71010147D01*
X160610273Y-71118320D01*
X160375241Y-71275363D01*
X160175363Y-71475241D01*
X160018320Y-71710273D01*
X159910147Y-71971426D01*
X159855000Y-72248665D01*
X159855000Y-72531335D01*
X159910147Y-72808574D01*
X160018320Y-73069727D01*
X160175363Y-73304759D01*
X160353527Y-73482923D01*
X158506183Y-75330267D01*
X158476142Y-75354921D01*
X158390374Y-75459429D01*
X158377745Y-75474818D01*
X158304628Y-75611608D01*
X158259605Y-75760033D01*
X158244402Y-75914390D01*
X158248211Y-75953063D01*
X158248210Y-78622125D01*
X158161309Y-78595764D01*
X157950492Y-78575000D01*
X157009508Y-78575000D01*
X156798691Y-78595764D01*
X156528192Y-78677818D01*
X156278899Y-78811068D01*
X156060392Y-78990392D01*
X155881068Y-79208899D01*
X155747818Y-79458192D01*
X155665764Y-79728691D01*
X155638057Y-80010000D01*
X155665764Y-80291309D01*
X155747818Y-80561808D01*
X155881068Y-80811101D01*
X156060392Y-81029608D01*
X156278899Y-81208932D01*
X156411858Y-81280000D01*
X156278899Y-81351068D01*
X156060392Y-81530392D01*
X155881068Y-81748899D01*
X155747818Y-81998192D01*
X155665764Y-82268691D01*
X155638057Y-82550000D01*
X155665764Y-82831309D01*
X155747818Y-83101808D01*
X155881068Y-83351101D01*
X156060392Y-83569608D01*
X156278899Y-83748932D01*
X156411858Y-83820000D01*
X156278899Y-83891068D01*
X156060392Y-84070392D01*
X155881068Y-84288899D01*
X155873745Y-84302600D01*
X152726152Y-84302600D01*
X151999735Y-83576185D01*
X151999731Y-83576180D01*
X151975079Y-83546141D01*
X151945038Y-83521487D01*
X151568906Y-83145355D01*
X151592182Y-83101808D01*
X151674236Y-82831309D01*
X151701943Y-82550000D01*
X151674236Y-82268691D01*
X151592182Y-81998192D01*
X151458932Y-81748899D01*
X151279608Y-81530392D01*
X151166518Y-81437581D01*
X151184482Y-81435812D01*
X151304180Y-81399502D01*
X151414494Y-81340537D01*
X151511185Y-81261185D01*
X151590537Y-81164494D01*
X151649502Y-81054180D01*
X151685812Y-80934482D01*
X151698072Y-80810000D01*
X151695000Y-80295750D01*
X151536250Y-80137000D01*
X149987000Y-80137000D01*
X149987000Y-80157000D01*
X149733000Y-80157000D01*
X149733000Y-80137000D01*
X149713000Y-80137000D01*
X149713000Y-79883000D01*
X149733000Y-79883000D01*
X149733000Y-78733750D01*
X149987000Y-78733750D01*
X149987000Y-79883000D01*
X151536250Y-79883000D01*
X151695000Y-79724250D01*
X151698072Y-79210000D01*
X151685812Y-79085518D01*
X151649502Y-78965820D01*
X151590537Y-78855506D01*
X151511185Y-78758815D01*
X151414494Y-78679463D01*
X151304180Y-78620498D01*
X151184482Y-78584188D01*
X151060000Y-78571928D01*
X150145750Y-78575000D01*
X149987000Y-78733750D01*
X149733000Y-78733750D01*
X149574250Y-78575000D01*
X148660000Y-78571928D01*
X148535518Y-78584188D01*
X148415820Y-78620498D01*
X148305506Y-78679463D01*
X148208815Y-78758815D01*
X148129463Y-78855506D01*
X148070498Y-78965820D01*
X148034188Y-79085518D01*
X148021928Y-79210000D01*
X148024262Y-79600711D01*
X144965551Y-76542000D01*
X145323928Y-76542000D01*
X145336188Y-76666482D01*
X145372498Y-76786180D01*
X145431463Y-76896494D01*
X145510815Y-76993185D01*
X145607506Y-77072537D01*
X145717820Y-77131502D01*
X145837518Y-77167812D01*
X145962000Y-77180072D01*
X146526250Y-77177000D01*
X146685000Y-77018250D01*
X146685000Y-75819000D01*
X146939000Y-75819000D01*
X146939000Y-77018250D01*
X147097750Y-77177000D01*
X147662000Y-77180072D01*
X147786482Y-77167812D01*
X147906180Y-77131502D01*
X148016494Y-77072537D01*
X148113185Y-76993185D01*
X148192537Y-76896494D01*
X148251502Y-76786180D01*
X148287812Y-76666482D01*
X148300072Y-76542000D01*
X148297000Y-75977750D01*
X148138250Y-75819000D01*
X146939000Y-75819000D01*
X146685000Y-75819000D01*
X145485750Y-75819000D01*
X145327000Y-75977750D01*
X145323928Y-76542000D01*
X144965551Y-76542000D01*
X143265551Y-74842000D01*
X145323928Y-74842000D01*
X145327000Y-75406250D01*
X145485750Y-75565000D01*
X146685000Y-75565000D01*
X146685000Y-74365750D01*
X146939000Y-74365750D01*
X146939000Y-75565000D01*
X148138250Y-75565000D01*
X148297000Y-75406250D01*
X148300072Y-74842000D01*
X148287812Y-74717518D01*
X148251502Y-74597820D01*
X148192537Y-74487506D01*
X148113185Y-74390815D01*
X148016494Y-74311463D01*
X147906180Y-74252498D01*
X147786482Y-74216188D01*
X147662000Y-74203928D01*
X147097750Y-74207000D01*
X146939000Y-74365750D01*
X146685000Y-74365750D01*
X146526250Y-74207000D01*
X145962000Y-74203928D01*
X145837518Y-74216188D01*
X145717820Y-74252498D01*
X145607506Y-74311463D01*
X145510815Y-74390815D01*
X145431463Y-74487506D01*
X145372498Y-74597820D01*
X145336188Y-74717518D01*
X145323928Y-74842000D01*
X143265551Y-74842000D01*
X143027400Y-74603850D01*
X143027400Y-73469467D01*
X143091013Y-73426962D01*
X143276962Y-73241013D01*
X143423061Y-73022359D01*
X143523696Y-72779405D01*
X143575000Y-72521486D01*
X143575000Y-72258514D01*
X143573041Y-72248665D01*
X149695000Y-72248665D01*
X149695000Y-72531335D01*
X149750147Y-72808574D01*
X149858320Y-73069727D01*
X150015363Y-73304759D01*
X150215241Y-73504637D01*
X150450273Y-73661680D01*
X150711426Y-73769853D01*
X150988665Y-73825000D01*
X151271335Y-73825000D01*
X151548574Y-73769853D01*
X151809727Y-73661680D01*
X152044759Y-73504637D01*
X152244637Y-73304759D01*
X152401680Y-73069727D01*
X152509853Y-72808574D01*
X152565000Y-72531335D01*
X152565000Y-72248665D01*
X152509853Y-71971426D01*
X152401680Y-71710273D01*
X152244637Y-71475241D01*
X152044759Y-71275363D01*
X151809727Y-71118320D01*
X151548574Y-71010147D01*
X151271335Y-70955000D01*
X150988665Y-70955000D01*
X150711426Y-71010147D01*
X150450273Y-71118320D01*
X150215241Y-71275363D01*
X150015363Y-71475241D01*
X149858320Y-71710273D01*
X149750147Y-71971426D01*
X149695000Y-72248665D01*
X143573041Y-72248665D01*
X143523696Y-72000595D01*
X143423061Y-71757641D01*
X143276962Y-71538987D01*
X143091013Y-71353038D01*
X142872359Y-71206939D01*
X142629405Y-71106304D01*
X142371486Y-71055000D01*
X142108514Y-71055000D01*
X141850595Y-71106304D01*
X141607641Y-71206939D01*
X141388987Y-71353038D01*
X141203038Y-71538987D01*
X141056939Y-71757641D01*
X140956304Y-72000595D01*
X140905000Y-72258514D01*
X140905000Y-72521486D01*
X140956304Y-72779405D01*
X141056939Y-73022359D01*
X141203038Y-73241013D01*
X141388987Y-73426962D01*
X141452600Y-73469467D01*
X141452601Y-74891327D01*
X141448792Y-74930000D01*
X141463995Y-75084357D01*
X141509018Y-75232782D01*
X141571673Y-75350000D01*
X141582135Y-75369572D01*
X141680532Y-75489469D01*
X141710571Y-75514121D01*
X148151094Y-81954646D01*
X148127818Y-81998192D01*
X148070546Y-82186995D01*
X144094128Y-78210578D01*
X144069469Y-78180531D01*
X143949572Y-78082134D01*
X143812783Y-78009018D01*
X143664357Y-77963994D01*
X143548673Y-77952600D01*
X143548663Y-77952600D01*
X143510000Y-77948792D01*
X143471337Y-77952600D01*
X142169735Y-77952600D01*
X142084637Y-77825241D01*
X141884759Y-77625363D01*
X141649727Y-77468320D01*
X141388574Y-77360147D01*
X141111335Y-77305000D01*
X140828665Y-77305000D01*
X140551426Y-77360147D01*
X140290273Y-77468320D01*
X140055241Y-77625363D01*
X139855363Y-77825241D01*
X139698320Y-78060273D01*
X139590147Y-78321426D01*
X139535000Y-78598665D01*
X132245000Y-78598665D01*
X132189853Y-78321426D01*
X132081680Y-78060273D01*
X131924637Y-77825241D01*
X131724759Y-77625363D01*
X131597400Y-77540265D01*
X131597400Y-70176150D01*
X134130220Y-67643330D01*
X140947278Y-67643330D01*
X141037147Y-67889123D01*
X141173241Y-68112660D01*
X141350330Y-68305351D01*
X141561608Y-68459792D01*
X141798956Y-68570047D01*
X141906671Y-68602716D01*
X142113000Y-68479374D01*
X142113000Y-67437000D01*
X142367000Y-67437000D01*
X142367000Y-68479374D01*
X142573329Y-68602716D01*
X142681044Y-68570047D01*
X142918392Y-68459792D01*
X143129670Y-68305351D01*
X143306759Y-68112660D01*
X143442853Y-67889123D01*
X143532722Y-67643330D01*
X143410201Y-67437000D01*
X142367000Y-67437000D01*
X142113000Y-67437000D01*
X141069799Y-67437000D01*
X140947278Y-67643330D01*
X134130220Y-67643330D01*
X134796880Y-66976670D01*
X140947278Y-66976670D01*
X141069799Y-67183000D01*
X142113000Y-67183000D01*
X142113000Y-66140626D01*
X142367000Y-66140626D01*
X142367000Y-67183000D01*
X143410201Y-67183000D01*
X143532722Y-66976670D01*
X143442853Y-66730877D01*
X143306759Y-66507340D01*
X143129670Y-66314649D01*
X142918392Y-66160208D01*
X142681044Y-66049953D01*
X142573329Y-66017284D01*
X142367000Y-66140626D01*
X142113000Y-66140626D01*
X141906671Y-66017284D01*
X141798956Y-66049953D01*
X141561608Y-66160208D01*
X141350330Y-66314649D01*
X141173241Y-66507340D01*
X141037147Y-66730877D01*
X140947278Y-66976670D01*
X134796880Y-66976670D01*
X135874885Y-65898665D01*
X149695000Y-65898665D01*
X149695000Y-66181335D01*
X149750147Y-66458574D01*
X149858320Y-66719727D01*
X150015363Y-66954759D01*
X150215241Y-67154637D01*
X150450273Y-67311680D01*
X150711426Y-67419853D01*
X150988665Y-67475000D01*
X151271335Y-67475000D01*
X151548574Y-67419853D01*
X151809727Y-67311680D01*
X152044759Y-67154637D01*
X152244637Y-66954759D01*
X152401680Y-66719727D01*
X152509853Y-66458574D01*
X152565000Y-66181335D01*
X152565000Y-65898665D01*
X152509853Y-65621426D01*
X152401680Y-65360273D01*
X152244637Y-65125241D01*
X152044759Y-64925363D01*
X151809727Y-64768320D01*
X151548574Y-64660147D01*
X151271335Y-64605000D01*
X150988665Y-64605000D01*
X150711426Y-64660147D01*
X150450273Y-64768320D01*
X150215241Y-64925363D01*
X150015363Y-65125241D01*
X149858320Y-65360273D01*
X149750147Y-65621426D01*
X149695000Y-65898665D01*
X135874885Y-65898665D01*
X137924510Y-63849040D01*
X145928091Y-63849040D01*
X146022930Y-64113881D01*
X146167615Y-64355131D01*
X146356586Y-64563519D01*
X146582580Y-64731037D01*
X146836913Y-64851246D01*
X146970961Y-64891904D01*
X147193000Y-64769915D01*
X147193000Y-63627000D01*
X147447000Y-63627000D01*
X147447000Y-64769915D01*
X147669039Y-64891904D01*
X147803087Y-64851246D01*
X148057420Y-64731037D01*
X148283414Y-64563519D01*
X148472385Y-64355131D01*
X148617070Y-64113881D01*
X148711909Y-63849040D01*
X148590624Y-63627000D01*
X147447000Y-63627000D01*
X147193000Y-63627000D01*
X146049376Y-63627000D01*
X145928091Y-63849040D01*
X137924510Y-63849040D01*
X138622590Y-63150960D01*
X145928091Y-63150960D01*
X146049376Y-63373000D01*
X147193000Y-63373000D01*
X147193000Y-62230085D01*
X147447000Y-62230085D01*
X147447000Y-63373000D01*
X148590624Y-63373000D01*
X148711909Y-63150960D01*
X148617070Y-62886119D01*
X148472385Y-62644869D01*
X148283414Y-62436481D01*
X148057420Y-62268963D01*
X147803087Y-62148754D01*
X147669039Y-62108096D01*
X147447000Y-62230085D01*
X147193000Y-62230085D01*
X146970961Y-62108096D01*
X146836913Y-62148754D01*
X146582580Y-62268963D01*
X146356586Y-62436481D01*
X146167615Y-62644869D01*
X146022930Y-62886119D01*
X145928091Y-63150960D01*
X138622590Y-63150960D01*
X147028435Y-54745117D01*
X147178665Y-54775000D01*
X147461335Y-54775000D01*
X147738574Y-54719853D01*
X147999727Y-54611680D01*
X148234759Y-54454637D01*
X148434637Y-54254759D01*
X148591680Y-54019727D01*
X148699853Y-53758574D01*
X148755000Y-53481335D01*
X148755000Y-53198665D01*
X148725117Y-53048435D01*
X151456152Y-50317400D01*
X153680130Y-50317400D01*
X153786525Y-50476632D01*
X153993368Y-50683475D01*
X154236589Y-50845990D01*
X154506842Y-50957932D01*
X154793740Y-51015000D01*
X155086260Y-51015000D01*
X155373158Y-50957932D01*
X155643411Y-50845990D01*
X155886632Y-50683475D01*
X156093475Y-50476632D01*
X156255990Y-50233411D01*
X156367932Y-49963158D01*
X156425000Y-49676260D01*
X156425000Y-49383740D01*
X156367932Y-49096842D01*
X156255990Y-48826589D01*
X156093475Y-48583368D01*
X155961620Y-48451513D01*
X156034180Y-48429502D01*
X156144494Y-48370537D01*
X156241185Y-48291185D01*
X156320537Y-48194494D01*
X156379502Y-48084180D01*
X156415812Y-47964482D01*
X156428072Y-47840000D01*
X156428072Y-47777400D01*
X161360265Y-47777400D01*
X161445363Y-47904759D01*
X161645241Y-48104637D01*
X161880273Y-48261680D01*
X162141426Y-48369853D01*
X162418665Y-48425000D01*
X162701335Y-48425000D01*
X162978574Y-48369853D01*
X163239727Y-48261680D01*
X163474759Y-48104637D01*
X163674637Y-47904759D01*
X163759735Y-47777400D01*
X168980265Y-47777400D01*
X169065363Y-47904759D01*
X169265241Y-48104637D01*
X169392600Y-48189736D01*
X169392601Y-50761327D01*
X169388792Y-50800000D01*
X169403995Y-50954357D01*
X169449018Y-51102782D01*
X169449019Y-51102783D01*
X169522135Y-51239572D01*
X169620532Y-51359469D01*
X169650573Y-51384123D01*
X172584883Y-54318435D01*
X172555000Y-54468665D01*
X172555000Y-54751335D01*
X172610147Y-55028574D01*
X172718320Y-55289727D01*
X172875363Y-55524759D01*
X173075241Y-55724637D01*
X173310273Y-55881680D01*
X173571426Y-55989853D01*
X173848665Y-56045000D01*
X174131335Y-56045000D01*
X174408574Y-55989853D01*
X174669727Y-55881680D01*
X174904759Y-55724637D01*
X175104637Y-55524759D01*
X175261680Y-55289727D01*
X175369853Y-55028574D01*
X175425000Y-54751335D01*
X175425000Y-54468665D01*
X182715000Y-54468665D01*
X182715000Y-54751335D01*
X182770147Y-55028574D01*
X182878320Y-55289727D01*
X183035363Y-55524759D01*
X183235241Y-55724637D01*
X183470273Y-55881680D01*
X183731426Y-55989853D01*
X184008665Y-56045000D01*
X184291335Y-56045000D01*
X184568574Y-55989853D01*
X184829727Y-55881680D01*
X185064759Y-55724637D01*
X185264637Y-55524759D01*
X185421680Y-55289727D01*
X185529853Y-55028574D01*
X185585000Y-54751335D01*
X185585000Y-54468665D01*
X185529853Y-54191426D01*
X185421680Y-53930273D01*
X185264637Y-53695241D01*
X185064759Y-53495363D01*
X184829727Y-53338320D01*
X184568574Y-53230147D01*
X184291335Y-53175000D01*
X184008665Y-53175000D01*
X183731426Y-53230147D01*
X183470273Y-53338320D01*
X183235241Y-53495363D01*
X183035363Y-53695241D01*
X182878320Y-53930273D01*
X182770147Y-54191426D01*
X182715000Y-54468665D01*
X175425000Y-54468665D01*
X175369853Y-54191426D01*
X175261680Y-53930273D01*
X175104637Y-53695241D01*
X174904759Y-53495363D01*
X174669727Y-53338320D01*
X174408574Y-53230147D01*
X174131335Y-53175000D01*
X173848665Y-53175000D01*
X173698435Y-53204883D01*
X170967400Y-50473850D01*
X170967400Y-48189735D01*
X171094759Y-48104637D01*
X171294637Y-47904759D01*
X171451680Y-47669727D01*
X171559853Y-47408574D01*
X171615000Y-47131335D01*
X171615000Y-46848665D01*
X178905000Y-46848665D01*
X178905000Y-47131335D01*
X178960147Y-47408574D01*
X179068320Y-47669727D01*
X179225363Y-47904759D01*
X179425241Y-48104637D01*
X179660273Y-48261680D01*
X179921426Y-48369853D01*
X180198665Y-48425000D01*
X180481335Y-48425000D01*
X180758574Y-48369853D01*
X181019727Y-48261680D01*
X181254759Y-48104637D01*
X181454637Y-47904759D01*
X181539735Y-47777400D01*
X182841337Y-47777400D01*
X182880000Y-47781208D01*
X182918663Y-47777400D01*
X182918673Y-47777400D01*
X183034357Y-47766006D01*
X183182783Y-47720982D01*
X183319572Y-47647866D01*
X183439469Y-47549469D01*
X183464128Y-47519422D01*
X185045479Y-45938072D01*
X186270000Y-45938072D01*
X186394482Y-45925812D01*
X186514180Y-45889502D01*
X186624494Y-45830537D01*
X186721185Y-45751185D01*
X186800537Y-45654494D01*
X186859502Y-45544180D01*
X186895812Y-45424482D01*
X186908072Y-45300000D01*
X186908072Y-45237400D01*
X188903850Y-45237400D01*
X190982600Y-47316152D01*
X190982601Y-48330264D01*
X190855241Y-48415363D01*
X190655363Y-48615241D01*
X190498320Y-48850273D01*
X190390147Y-49111426D01*
X190335000Y-49388665D01*
X190335000Y-49671335D01*
X190390147Y-49948574D01*
X190498320Y-50209727D01*
X190655363Y-50444759D01*
X190855241Y-50644637D01*
X191090273Y-50801680D01*
X191351426Y-50909853D01*
X191628665Y-50965000D01*
X191911335Y-50965000D01*
X192188574Y-50909853D01*
X192449727Y-50801680D01*
X192684759Y-50644637D01*
X192884637Y-50444759D01*
X193041680Y-50209727D01*
X193149853Y-49948574D01*
X193158688Y-49904155D01*
X227135450Y-49904155D01*
X227531634Y-50424550D01*
X228246612Y-50814748D01*
X229023976Y-51057964D01*
X229833853Y-51144851D01*
X230645118Y-51072069D01*
X231426597Y-50842415D01*
X232148256Y-50464715D01*
X232208366Y-50424550D01*
X232604550Y-49904155D01*
X229870000Y-47169605D01*
X227135450Y-49904155D01*
X193158688Y-49904155D01*
X193205000Y-49671335D01*
X193205000Y-49388665D01*
X193149853Y-49111426D01*
X193041680Y-48850273D01*
X192884637Y-48615241D01*
X192684759Y-48415363D01*
X192557400Y-48330265D01*
X192557400Y-47028662D01*
X192561208Y-46989999D01*
X192557648Y-46953853D01*
X225715149Y-46953853D01*
X225787931Y-47765118D01*
X226017585Y-48546597D01*
X226395285Y-49268256D01*
X226435450Y-49328366D01*
X226955845Y-49724550D01*
X229690395Y-46990000D01*
X230049605Y-46990000D01*
X232784155Y-49724550D01*
X233304550Y-49328366D01*
X233694748Y-48613388D01*
X233937964Y-47836024D01*
X234024851Y-47026147D01*
X233952069Y-46214882D01*
X233722415Y-45433403D01*
X233344715Y-44711744D01*
X233304550Y-44651634D01*
X232784155Y-44255450D01*
X230049605Y-46990000D01*
X229690395Y-46990000D01*
X226955845Y-44255450D01*
X226435450Y-44651634D01*
X226045252Y-45366612D01*
X225802036Y-46143976D01*
X225715149Y-46953853D01*
X192557648Y-46953853D01*
X192557400Y-46951336D01*
X192557400Y-46951327D01*
X192546006Y-46835643D01*
X192500982Y-46687217D01*
X192427866Y-46550428D01*
X192375007Y-46486019D01*
X192354121Y-46460569D01*
X192354119Y-46460567D01*
X192329469Y-46430531D01*
X192299434Y-46405882D01*
X189969396Y-44075845D01*
X227135450Y-44075845D01*
X229870000Y-46810395D01*
X232604550Y-44075845D01*
X232208366Y-43555450D01*
X231493388Y-43165252D01*
X230716024Y-42922036D01*
X229906147Y-42835149D01*
X229094882Y-42907931D01*
X228313403Y-43137585D01*
X227591744Y-43515285D01*
X227531634Y-43555450D01*
X227135450Y-44075845D01*
X189969396Y-44075845D01*
X189814128Y-43920578D01*
X189789469Y-43890531D01*
X189669572Y-43792134D01*
X189532783Y-43719018D01*
X189384357Y-43673994D01*
X189268673Y-43662600D01*
X189268663Y-43662600D01*
X189230000Y-43658792D01*
X189191337Y-43662600D01*
X186908072Y-43662600D01*
X186908072Y-43600000D01*
X186895812Y-43475518D01*
X186859502Y-43355820D01*
X186800537Y-43245506D01*
X186721185Y-43148815D01*
X186624494Y-43069463D01*
X186514180Y-43010498D01*
X186394482Y-42974188D01*
X186270000Y-42961928D01*
X184570000Y-42961928D01*
X184445518Y-42974188D01*
X184325820Y-43010498D01*
X184215506Y-43069463D01*
X184118815Y-43148815D01*
X184039463Y-43245506D01*
X183980498Y-43355820D01*
X183944188Y-43475518D01*
X183931928Y-43600000D01*
X183931928Y-44824521D01*
X182553850Y-46202600D01*
X181539735Y-46202600D01*
X181454637Y-46075241D01*
X181254759Y-45875363D01*
X181019727Y-45718320D01*
X180758574Y-45610147D01*
X180481335Y-45555000D01*
X180198665Y-45555000D01*
X179921426Y-45610147D01*
X179660273Y-45718320D01*
X179425241Y-45875363D01*
X179225363Y-46075241D01*
X179068320Y-46310273D01*
X178960147Y-46571426D01*
X178905000Y-46848665D01*
X171615000Y-46848665D01*
X171559853Y-46571426D01*
X171451680Y-46310273D01*
X171294637Y-46075241D01*
X171094759Y-45875363D01*
X170859727Y-45718320D01*
X170598574Y-45610147D01*
X170321335Y-45555000D01*
X170038665Y-45555000D01*
X169761426Y-45610147D01*
X169500273Y-45718320D01*
X169265241Y-45875363D01*
X169065363Y-46075241D01*
X168980265Y-46202600D01*
X163759735Y-46202600D01*
X163674637Y-46075241D01*
X163474759Y-45875363D01*
X163239727Y-45718320D01*
X162978574Y-45610147D01*
X162701335Y-45555000D01*
X162418665Y-45555000D01*
X162141426Y-45610147D01*
X161880273Y-45718320D01*
X161645241Y-45875363D01*
X161445363Y-46075241D01*
X161360265Y-46202600D01*
X156428072Y-46202600D01*
X156428072Y-46140000D01*
X156415812Y-46015518D01*
X156379502Y-45895820D01*
X156320537Y-45785506D01*
X156241185Y-45688815D01*
X156144494Y-45609463D01*
X156034180Y-45550498D01*
X155914482Y-45514188D01*
X155790000Y-45501928D01*
X154090000Y-45501928D01*
X153965518Y-45514188D01*
X153845820Y-45550498D01*
X153735506Y-45609463D01*
X153638815Y-45688815D01*
X153559463Y-45785506D01*
X153500498Y-45895820D01*
X153464188Y-46015518D01*
X153451928Y-46140000D01*
X153451928Y-46202600D01*
X148808072Y-46202600D01*
X148808072Y-46140000D01*
X148795812Y-46015518D01*
X148759502Y-45895820D01*
X148700537Y-45785506D01*
X148621185Y-45688815D01*
X148524494Y-45609463D01*
X148414180Y-45550498D01*
X148294482Y-45514188D01*
X148170000Y-45501928D01*
X146470000Y-45501928D01*
X146345518Y-45514188D01*
X146225820Y-45550498D01*
X146115506Y-45609463D01*
X146018815Y-45688815D01*
X145939463Y-45785506D01*
X145880498Y-45895820D01*
X145844188Y-46015518D01*
X145831928Y-46140000D01*
X145831928Y-47840000D01*
X145844188Y-47964482D01*
X145880498Y-48084180D01*
X145939463Y-48194494D01*
X146018815Y-48291185D01*
X146115506Y-48370537D01*
X146225820Y-48429502D01*
X146345518Y-48465812D01*
X146470000Y-48478072D01*
X148170000Y-48478072D01*
X148294482Y-48465812D01*
X148414180Y-48429502D01*
X148524494Y-48370537D01*
X148621185Y-48291185D01*
X148700537Y-48194494D01*
X148759502Y-48084180D01*
X148795812Y-47964482D01*
X148808072Y-47840000D01*
X148808072Y-47777400D01*
X153451928Y-47777400D01*
X153451928Y-47840000D01*
X153464188Y-47964482D01*
X153500498Y-48084180D01*
X153559463Y-48194494D01*
X153638815Y-48291185D01*
X153735506Y-48370537D01*
X153845820Y-48429502D01*
X153918380Y-48451513D01*
X153786525Y-48583368D01*
X153680130Y-48742600D01*
X151168665Y-48742600D01*
X151130000Y-48738792D01*
X151091335Y-48742600D01*
X151091327Y-48742600D01*
X150975643Y-48753994D01*
X150827217Y-48799018D01*
X150690428Y-48872134D01*
X150600570Y-48945878D01*
X150600567Y-48945881D01*
X150570531Y-48970531D01*
X150545881Y-49000567D01*
X147611565Y-51934883D01*
X147461335Y-51905000D01*
X147178665Y-51905000D01*
X146901426Y-51960147D01*
X146640273Y-52068320D01*
X146405241Y-52225363D01*
X146205363Y-52425241D01*
X146048320Y-52660273D01*
X145940147Y-52921426D01*
X145885000Y-53198665D01*
X145885000Y-53481335D01*
X145914883Y-53631565D01*
X130280578Y-69265872D01*
X130250531Y-69290531D01*
X130152134Y-69410429D01*
X130079018Y-69547218D01*
X130033994Y-69695644D01*
X130022600Y-69811328D01*
X130022600Y-69811337D01*
X130018792Y-69850000D01*
X130022600Y-69888663D01*
X130022601Y-77540264D01*
X129895241Y-77625363D01*
X129695363Y-77825241D01*
X129538320Y-78060273D01*
X129430147Y-78321426D01*
X129375000Y-78598665D01*
X126857650Y-78598665D01*
X126821800Y-74117460D01*
X126821800Y-49904155D01*
X130615450Y-49904155D01*
X131011634Y-50424550D01*
X131726612Y-50814748D01*
X132503976Y-51057964D01*
X133313853Y-51144851D01*
X134125118Y-51072069D01*
X134906597Y-50842415D01*
X135628256Y-50464715D01*
X135688366Y-50424550D01*
X136084550Y-49904155D01*
X133350000Y-47169605D01*
X130615450Y-49904155D01*
X126821800Y-49904155D01*
X126821800Y-46953853D01*
X129195149Y-46953853D01*
X129267931Y-47765118D01*
X129497585Y-48546597D01*
X129875285Y-49268256D01*
X129915450Y-49328366D01*
X130435845Y-49724550D01*
X133170395Y-46990000D01*
X133529605Y-46990000D01*
X136264155Y-49724550D01*
X136784550Y-49328366D01*
X137174748Y-48613388D01*
X137417964Y-47836024D01*
X137504851Y-47026147D01*
X137432069Y-46214882D01*
X137202415Y-45433403D01*
X136824715Y-44711744D01*
X136784550Y-44651634D01*
X136264155Y-44255450D01*
X133529605Y-46990000D01*
X133170395Y-46990000D01*
X130435845Y-44255450D01*
X129915450Y-44651634D01*
X129525252Y-45366612D01*
X129282036Y-46143976D01*
X129195149Y-46953853D01*
X126821800Y-46953853D01*
X126821800Y-44075845D01*
X130615450Y-44075845D01*
X133350000Y-46810395D01*
X136084550Y-44075845D01*
X135688366Y-43555450D01*
X134973388Y-43165252D01*
X134196024Y-42922036D01*
X133386147Y-42835149D01*
X132574882Y-42907931D01*
X131793403Y-43137585D01*
X131071744Y-43515285D01*
X131011634Y-43555450D01*
X130615450Y-44075845D01*
X126821800Y-44075845D01*
X126821800Y-41299851D01*
X236945202Y-41275000D01*
X238061901Y-41275000D01*
X238061900Y-111633866D01*
%TD*%
M02*
